<mxfile host="app.diagrams.net" modified="2023-08-04T13:32:17.380Z" agent="Mozilla/5.0 (Windows NT 10.0; Win64; x64; rv:102.0) Gecko/20100101 Firefox/102.0" etag="e_LudxVo4dia-EyvHaeN" version="21.6.6" type="github" pages="3">
  <diagram id="R2lEEEUBdFMjLlhIrx00" name="Raman T-Box">
    <mxGraphModel dx="1868" dy="7450" grid="0" gridSize="10" guides="1" tooltips="1" connect="1" arrows="1" fold="1" page="1" pageScale="1" pageWidth="4681" pageHeight="3300" math="0" shadow="0" extFonts="Permanent Marker^https://fonts.googleapis.com/css?family=Permanent+Marker">
      <root>
        <mxCell id="0" />
        <mxCell id="1" parent="0" />
        <mxCell id="-qVNJrEobh2uuxl9ESg2-29" value="&lt;div style=&quot;font-size: 12px;&quot;&gt;&lt;span style=&quot;font-size: 12px; color: rgb(0, 0, 0); font-weight: normal; text-decoration: none; font-style: normal; text-decoration-skip-ink: none;&quot;&gt;vibso:horizontal shift speed setting&lt;/span&gt;&lt;br style=&quot;font-size: 12px;&quot;&gt;&lt;span style=&quot;font-size: 12px; color: rgb(0, 0, 0); font-weight: normal; text-decoration: none; font-style: normal; text-decoration-skip-ink: none;&quot;&gt;&lt;/span&gt;&lt;/div&gt;" style="rounded=0;whiteSpace=wrap;html=1;fontSize=12;fontFamily=Helvetica;fillColor=#dae8fc;strokeColor=#FF0000;strokeWidth=2;verticalAlign=middle;" parent="1" vertex="1">
          <mxGeometry x="208" y="-4876.000000000001" width="110" height="45" as="geometry" />
        </mxCell>
        <mxCell id="-qVNJrEobh2uuxl9ESg2-30" value="vibso:vertical shift speed setting" style="rounded=0;whiteSpace=wrap;html=1;fontSize=12;fontFamily=Helvetica;fillColor=#dae8fc;strokeColor=#FF0000;strokeWidth=2;verticalAlign=middle;" parent="1" vertex="1">
          <mxGeometry x="208" y="-4933.500000000001" width="110" height="45" as="geometry" />
        </mxCell>
        <mxCell id="-qVNJrEobh2uuxl9ESg2-31" value="&lt;div style=&quot;font-size: 12px;&quot;&gt;&lt;span style=&quot;font-size: 12px; color: rgb(0, 0, 0); font-weight: normal; text-decoration: none; font-style: normal; text-decoration-skip-ink: none;&quot;&gt;vibso:preamplifier gain setting&lt;/span&gt;&lt;br style=&quot;font-size: 12px;&quot;&gt;&lt;/div&gt;" style="rounded=0;whiteSpace=wrap;html=1;fontSize=12;fontFamily=Helvetica;fillColor=#dae8fc;strokeColor=#FF0000;strokeWidth=2;verticalAlign=middle;" parent="1" vertex="1">
          <mxGeometry x="208" y="-4991.999999999999" width="110" height="45" as="geometry" />
        </mxCell>
        <mxCell id="-qVNJrEobh2uuxl9ESg2-32" value="&lt;div style=&quot;font-size: 12px;&quot;&gt;&lt;span style=&quot;font-size: 12px; color: rgb(0, 0, 0); font-weight: normal; text-decoration: none; font-family: &amp;quot;Arial&amp;quot;; font-style: normal; text-decoration-skip-ink: none;&quot;&gt;vibso:CCD sensor binning read mode setting&lt;/span&gt;&lt;/div&gt;" style="rounded=0;whiteSpace=wrap;html=1;fontSize=12;fontFamily=Helvetica;fillColor=#dae8fc;strokeColor=#FF0000;strokeWidth=2;verticalAlign=middle;" parent="1" vertex="1">
          <mxGeometry x="208" y="-4813" width="110" height="45" as="geometry" />
        </mxCell>
        <mxCell id="-qVNJrEobh2uuxl9ESg2-33" value="&lt;div style=&quot;font-size: 12px;&quot;&gt;pato:lateral orientation&lt;/div&gt;" style="rounded=0;whiteSpace=wrap;html=1;fontSize=12;fontFamily=Helvetica;fillColor=#f5f5f5;strokeColor=#666666;strokeWidth=1;fontColor=#333333;" parent="1" vertex="1">
          <mxGeometry x="1095" y="-5264" width="105" height="40" as="geometry" />
        </mxCell>
        <mxCell id="-qVNJrEobh2uuxl9ESg2-34" value="&lt;div style=&quot;font-size: 12px;&quot;&gt;pato:longitudinal orientation&lt;/div&gt;" style="rounded=0;whiteSpace=wrap;html=1;fontSize=12;fontFamily=Helvetica;fillColor=#f5f5f5;strokeColor=#666666;strokeWidth=1;fontColor=#333333;" parent="1" vertex="1">
          <mxGeometry x="1095" y="-5326" width="105" height="40" as="geometry" />
        </mxCell>
        <mxCell id="-qVNJrEobh2uuxl9ESg2-35" style="edgeStyle=none;rounded=0;orthogonalLoop=1;jettySize=auto;html=1;fontSize=14;entryX=0.5;entryY=1;entryDx=0;entryDy=0;exitX=0.5;exitY=0;exitDx=0;exitDy=0;" parent="1" source="-qVNJrEobh2uuxl9ESg2-124" target="-qVNJrEobh2uuxl9ESg2-50" edge="1">
          <mxGeometry relative="1" as="geometry">
            <mxPoint x="2619.17" y="-6256.5" as="targetPoint" />
            <mxPoint x="1902.17" y="-6352" as="sourcePoint" />
          </mxGeometry>
        </mxCell>
        <mxCell id="-qVNJrEobh2uuxl9ESg2-36" value="&lt;div style=&quot;font-size: 14px;&quot;&gt;&lt;a style=&quot;font-size: 14px;&quot; class=&quot;jstree-anchor  jstree-clicked sub_property_of&quot; href=&quot;https://terminology.nfdi4chem.de/ts/ontologies/obi/properties?iri=http%3A%2F%2Fpurl.obolibrary.org%2Fobo%2FOBI_0000846#&quot; tabindex=&quot;-1&quot; title=&quot;http://purl.obolibrary.org/obo/OBI_0000846&quot; id=&quot;227261_1_anchor&quot;&gt;obi:&lt;/a&gt;&lt;a style=&quot;font-size: 14px;&quot; class=&quot;jstree-anchor  jstree-clicked sub_property_of&quot; href=&quot;https://terminology.nfdi4chem.de/ts/ontologies/obi/properties?iri=http%3A%2F%2Fpurl.obolibrary.org%2Fobo%2FOBI_0000846#&quot; tabindex=&quot;-1&quot; title=&quot;http://purl.obolibrary.org/obo/OBI_0000846&quot; id=&quot;227261_1_anchor&quot;&gt;is member of organization&lt;/a&gt;&lt;/div&gt;" style="edgeLabel;html=1;align=center;verticalAlign=middle;resizable=0;points=[];fontSize=14;" parent="-qVNJrEobh2uuxl9ESg2-35" connectable="0" vertex="1">
          <mxGeometry x="-0.1322" y="-1" relative="1" as="geometry">
            <mxPoint x="20" y="-4" as="offset" />
          </mxGeometry>
        </mxCell>
        <mxCell id="-qVNJrEobh2uuxl9ESg2-38" value="pato:concentration of" style="rounded=0;whiteSpace=wrap;html=1;glass=0;fillColor=#f5f5f5;fontStyle=0;fontSize=12;shadow=0;strokeColor=#666666;strokeWidth=1;fontColor=#333333;fontFamily=Helvetica;" parent="1" vertex="1">
          <mxGeometry x="1652.28" y="-4792" width="131" height="39" as="geometry" />
        </mxCell>
        <mxCell id="-qVNJrEobh2uuxl9ESg2-39" value="&lt;div style=&quot;font-size: 14px;&quot;&gt;&lt;a href=&quot;https://www.ebi.ac.uk/ols/ontologies/efo/terms?iri=http%3A%2F%2Fwww.ebi.ac.uk%2Fefo%2FEFO_0000647&amp;amp;lang=en&amp;amp;viewMode=All&amp;amp;siblings=false#&quot; class=&quot;waffle-rich-text-link&quot; style=&quot;font-size: 14px; color: rgb(17, 85, 204); text-decoration: underline; font-style: normal; text-decoration-skip-ink: none;&quot;&gt;efo:experiment performer&lt;/a&gt;&lt;/div&gt;&lt;div style=&quot;font-size: 14px;&quot;&gt;is_a&lt;br style=&quot;font-size: 14px;&quot;&gt;&lt;/div&gt;&lt;div style=&quot;font-size: 14px;&quot;&gt;bfo:&lt;a style=&quot;font-size: 14px;&quot; class=&quot;jstree-anchor  jstree-clicked is_a&quot; href=&quot;https://terminology.nfdi4chem.de/ts/ontologies/bfo/terms?iri=http%3A%2F%2Fpurl.obolibrary.org%2Fobo%2FBFO_0000023#&quot; tabindex=&quot;-1&quot; title=&quot;http://purl.obolibrary.org/obo/BFO_0000023&quot; id=&quot;23652_1_anchor&quot;&gt;role&lt;/a&gt;&lt;/div&gt;" style="rounded=0;whiteSpace=wrap;html=1;glass=0;fillColor=#d5e8d4;fontStyle=0;fontSize=14;shadow=0;strokeColor=#82b366;strokeWidth=2;fontFamily=Helvetica;" parent="1" vertex="1">
          <mxGeometry x="1638" y="-6329.5" width="105" height="75" as="geometry" />
        </mxCell>
        <mxCell id="-qVNJrEobh2uuxl9ESg2-40" style="edgeStyle=none;rounded=0;orthogonalLoop=1;jettySize=auto;html=1;exitX=0;exitY=0;exitDx=0;exitDy=0;fontSize=14;fontFamily=Helvetica;" parent="1" source="-qVNJrEobh2uuxl9ESg2-39" target="-qVNJrEobh2uuxl9ESg2-39" edge="1">
          <mxGeometry relative="1" as="geometry" />
        </mxCell>
        <mxCell id="-qVNJrEobh2uuxl9ESg2-41" style="edgeStyle=none;rounded=0;orthogonalLoop=1;jettySize=auto;html=1;exitX=0.5;exitY=0;exitDx=0;exitDy=0;fontSize=14;fontFamily=Helvetica;" parent="1" source="-qVNJrEobh2uuxl9ESg2-39" target="-qVNJrEobh2uuxl9ESg2-39" edge="1">
          <mxGeometry relative="1" as="geometry" />
        </mxCell>
        <mxCell id="-qVNJrEobh2uuxl9ESg2-42" value="&lt;div style=&quot;font-size: 14px;&quot;&gt;&lt;a style=&quot;font-size: 14px;&quot; class=&quot;jstree-anchor  jstree-clicked is_a&quot; href=&quot;https://www.ebi.ac.uk/ols/ontologies/efo/terms?iri=http%3A%2F%2Fwww.ebi.ac.uk%2Fefo%2FEFO_0009739&amp;amp;lang=en&amp;amp;viewMode=All&amp;amp;siblings=true#&quot; tabindex=&quot;-1&quot; title=&quot;http://www.ebi.ac.uk/efo/EFO_0009739&quot; id=&quot;213082309_1_anchor&quot;&gt;efo:technician&lt;/a&gt;&lt;/div&gt;&lt;div style=&quot;font-size: 14px;&quot;&gt;is_a&lt;br style=&quot;font-size: 14px;&quot;&gt;&lt;/div&gt;&lt;div style=&quot;font-size: 14px;&quot;&gt;bfo:&lt;a style=&quot;font-size: 14px;&quot; class=&quot;jstree-anchor  jstree-clicked is_a&quot; href=&quot;https://terminology.nfdi4chem.de/ts/ontologies/bfo/terms?iri=http%3A%2F%2Fpurl.obolibrary.org%2Fobo%2FBFO_0000023#&quot; tabindex=&quot;-1&quot; title=&quot;http://purl.obolibrary.org/obo/BFO_0000023&quot; id=&quot;23652_1_anchor&quot;&gt;role&lt;/a&gt;&lt;/div&gt;" style="rounded=0;whiteSpace=wrap;html=1;glass=0;fillColor=#d5e8d4;fontStyle=0;fontSize=14;shadow=0;strokeColor=#82b366;strokeWidth=2;fontFamily=Helvetica;" parent="1" vertex="1">
          <mxGeometry x="1858" y="-6284" width="124" height="84" as="geometry" />
        </mxCell>
        <mxCell id="-qVNJrEobh2uuxl9ESg2-43" value="&lt;div style=&quot;font-size: 12px;&quot;&gt;chmo:Raman microscope&lt;/div&gt;&lt;div style=&quot;font-size: 12px;&quot;&gt;also is a&lt;/div&gt;&lt;div style=&quot;font-size: 12px;&quot;&gt;obi:microscope&lt;/div&gt;" style="rounded=0;whiteSpace=wrap;html=1;glass=0;fillColor=#fff2cc;fontStyle=0;fontSize=12;shadow=0;strokeColor=#d6b656;strokeWidth=1;fontFamily=Helvetica;" parent="1" vertex="1">
          <mxGeometry x="1200" y="-5126" width="150.75" height="45" as="geometry" />
        </mxCell>
        <mxCell id="-qVNJrEobh2uuxl9ESg2-45" value="&lt;div style=&quot;font-size: 12px;&quot;&gt;&lt;span style=&quot;font-size: 12px; color: rgb(0, 0, 0); font-weight: normal; text-decoration: none; font-style: normal; text-decoration-skip-ink: none;&quot;&gt;vibso:number of accumulations&lt;br style=&quot;font-size: 12px;&quot;&gt;&lt;/span&gt;&lt;/div&gt;" style="rounded=0;whiteSpace=wrap;html=1;fontSize=12;fontFamily=Helvetica;fillColor=#dae8fc;strokeColor=#FF0000;strokeWidth=2;verticalAlign=middle;" parent="1" vertex="1">
          <mxGeometry x="207.99999999999994" y="-4690" width="110" height="45" as="geometry" />
        </mxCell>
        <mxCell id="-qVNJrEobh2uuxl9ESg2-47" value="" style="endArrow=classic;html=1;dashed=1;strokeColor=#000000;strokeWidth=2;fontSize=12;fontFamily=Helvetica;opacity=50;" parent="1" source="-qVNJrEobh2uuxl9ESg2-43" target="QKKoRjnMVttNz9pZIT6n-5" edge="1">
          <mxGeometry width="50" height="50" relative="1" as="geometry">
            <mxPoint x="1809.75" y="-5272.75" as="sourcePoint" />
            <mxPoint x="1581" y="-5226" as="targetPoint" />
          </mxGeometry>
        </mxCell>
        <mxCell id="-qVNJrEobh2uuxl9ESg2-49" value="&lt;div style=&quot;font-size: 14px;&quot;&gt;obi:&lt;a style=&quot;font-size: 14px;&quot; class=&quot;search-results-label nounderline&quot; title=&quot;investigation&quot; href=&quot;https://terminology.nfdi4chem.de/ts/ontologies/obi/terms?iri=http%3A%2F%2Fpurl.obolibrary.org%2Fobo%2FOBI_0000066&quot;&gt;investigation&lt;/a&gt;&lt;/div&gt;" style="rounded=0;whiteSpace=wrap;html=1;fillColor=#f8cecc;strokeColor=#b85450;fontStyle=0;fontSize=14;" parent="1" vertex="1">
          <mxGeometry x="1139" y="-6249" width="163" height="61" as="geometry" />
        </mxCell>
        <mxCell id="-qVNJrEobh2uuxl9ESg2-50" value="&lt;a style=&quot;font-size: 14px;&quot; class=&quot;jstree-anchor  is_a&quot; href=&quot;https://terminology.nfdi4chem.de/ts/ontologies/obi/terms?iri=http%3A%2F%2Fpurl.obolibrary.org%2Fobo%2FOBI_0000828&amp;amp;viewMode=All&amp;amp;siblings=false#&quot; tabindex=&quot;-1&quot; title=&quot;http://purl.obolibrary.org/obo/OBI_0000245&quot; id=&quot;219776_1_anchor&quot;&gt;obi:organization&lt;/a&gt;" style="rounded=0;whiteSpace=wrap;html=1;glass=0;fillColor=#fff2cc;fontStyle=0;fontSize=14;shadow=0;strokeColor=#d6b656;strokeWidth=2;" parent="1" vertex="1">
          <mxGeometry x="1515" y="-6561" width="157" height="44" as="geometry" />
        </mxCell>
        <mxCell id="-qVNJrEobh2uuxl9ESg2-51" style="edgeStyle=none;rounded=0;orthogonalLoop=1;jettySize=auto;html=1;exitX=0;exitY=0.75;exitDx=0;exitDy=0;entryX=0.75;entryY=0;entryDx=0;entryDy=0;fontSize=14;" parent="1" source="-qVNJrEobh2uuxl9ESg2-124" target="-qVNJrEobh2uuxl9ESg2-49" edge="1">
          <mxGeometry relative="1" as="geometry" />
        </mxCell>
        <mxCell id="-qVNJrEobh2uuxl9ESg2-52" value="&lt;div style=&quot;font-size: 14px;&quot;&gt;&lt;a style=&quot;font-size: 14px;&quot; class=&quot;search-results-label nounderline&quot; title=&quot;participates in&quot; href=&quot;https://terminology.nfdi4chem.de/ts/ontologies/ro/properties?iri=http%3A%2F%2Fpurl.obolibrary.org%2Fobo%2FRO_0000056&quot;&gt;ro:participates in&lt;/a&gt;&lt;/div&gt;" style="edgeLabel;html=1;align=center;verticalAlign=middle;resizable=0;points=[];fontSize=14;" parent="-qVNJrEobh2uuxl9ESg2-51" connectable="0" vertex="1">
          <mxGeometry x="0.2993" y="4" relative="1" as="geometry">
            <mxPoint x="79" y="-72" as="offset" />
          </mxGeometry>
        </mxCell>
        <mxCell id="-qVNJrEobh2uuxl9ESg2-56" style="edgeStyle=none;rounded=0;orthogonalLoop=1;jettySize=auto;html=1;fontSize=14;entryX=0.25;entryY=1;entryDx=0;entryDy=0;" parent="1" source="-qVNJrEobh2uuxl9ESg2-49" target="-qVNJrEobh2uuxl9ESg2-125" edge="1">
          <mxGeometry relative="1" as="geometry">
            <mxPoint x="1378" y="-6457" as="targetPoint" />
            <mxPoint x="1269.5000000000005" y="-6420.17" as="sourcePoint" />
          </mxGeometry>
        </mxCell>
        <mxCell id="-qVNJrEobh2uuxl9ESg2-57" value="&lt;a style=&quot;font-size: 14px;&quot; class=&quot;search-results-label nounderline&quot; title=&quot;realizes&quot; href=&quot;https://terminology.nfdi4chem.de/ts/ontologies/ro/properties?iri=http%3A%2F%2Fpurl.obolibrary.org%2Fobo%2FBFO_0000055&quot;&gt;bfo:realizes&lt;/a&gt;" style="edgeLabel;html=1;align=center;verticalAlign=middle;resizable=0;points=[];fontSize=14;" parent="-qVNJrEobh2uuxl9ESg2-56" connectable="0" vertex="1">
          <mxGeometry x="-0.1287" relative="1" as="geometry">
            <mxPoint x="1" as="offset" />
          </mxGeometry>
        </mxCell>
        <mxCell id="-qVNJrEobh2uuxl9ESg2-66" value="&lt;div style=&quot;font-size: 12px;&quot; align=&quot;center&quot;&gt;&lt;font style=&quot;font-size: 12px;&quot; face=&quot;Helvetica&quot;&gt;obi:specimen identifier&lt;/font&gt;&lt;/div&gt;" style="rounded=0;whiteSpace=wrap;html=1;fontSize=12;fillColor=#dae8fc;strokeColor=#6c8ebf;imageWidth=30;imageHeight=25;strokeWidth=1;fontStyle=0;align=center;" parent="1" vertex="1">
          <mxGeometry x="1678.28" y="-4891" width="105" height="40" as="geometry" />
        </mxCell>
        <mxCell id="-qVNJrEobh2uuxl9ESg2-71" style="rounded=0;orthogonalLoop=1;jettySize=auto;html=1;strokeColor=#000000;strokeWidth=1;fontSize=14;" parent="1" source="-qVNJrEobh2uuxl9ESg2-66" target="QKKoRjnMVttNz9pZIT6n-18" edge="1">
          <mxGeometry relative="1" as="geometry">
            <mxPoint x="1399" y="-4533" as="sourcePoint" />
            <mxPoint x="1422" y="-4466" as="targetPoint" />
          </mxGeometry>
        </mxCell>
        <mxCell id="-qVNJrEobh2uuxl9ESg2-72" value="iao: denotes" style="edgeLabel;html=1;align=center;verticalAlign=middle;resizable=0;points=[];fontSize=11;" parent="-qVNJrEobh2uuxl9ESg2-71" connectable="0" vertex="1">
          <mxGeometry x="-0.1975" relative="1" as="geometry">
            <mxPoint x="-13" y="1" as="offset" />
          </mxGeometry>
        </mxCell>
        <mxCell id="-qVNJrEobh2uuxl9ESg2-92" style="rounded=0;orthogonalLoop=1;jettySize=auto;html=1;fontSize=14;" parent="1" source="-qVNJrEobh2uuxl9ESg2-38" target="QKKoRjnMVttNz9pZIT6n-18" edge="1">
          <mxGeometry relative="1" as="geometry">
            <mxPoint x="490.0000000000009" y="-3993.5" as="sourcePoint" />
            <mxPoint x="1104.372112676057" y="-4589" as="targetPoint" />
            <Array as="points" />
          </mxGeometry>
        </mxCell>
        <mxCell id="-qVNJrEobh2uuxl9ESg2-93" value="&lt;div style=&quot;font-size: 11px;&quot;&gt;ro:quality of&lt;/div&gt;" style="edgeLabel;html=1;align=center;verticalAlign=middle;resizable=0;points=[];fontSize=11;" parent="-qVNJrEobh2uuxl9ESg2-92" connectable="0" vertex="1">
          <mxGeometry x="-0.1652" y="3" relative="1" as="geometry">
            <mxPoint as="offset" />
          </mxGeometry>
        </mxCell>
        <mxCell id="-qVNJrEobh2uuxl9ESg2-95" value="&lt;div style=&quot;font-size: 12px;&quot;&gt;vibso:eposure time setting&lt;br style=&quot;font-size: 12px;&quot;&gt;&lt;/div&gt;" style="rounded=0;whiteSpace=wrap;html=1;fontSize=12;fontFamily=Helvetica;fillColor=#dae8fc;strokeColor=#FF0000;strokeWidth=2;verticalAlign=middle;" parent="1" vertex="1">
          <mxGeometry x="208" y="-4752.999999999999" width="110" height="45" as="geometry" />
        </mxCell>
        <mxCell id="-qVNJrEobh2uuxl9ESg2-97" value="obi:microscope slide" style="rounded=0;whiteSpace=wrap;html=1;glass=0;fillColor=#fff2cc;fontStyle=0;fontSize=12;shadow=0;strokeColor=#d6b656;strokeWidth=1;fontFamily=Helvetica;" parent="1" vertex="1">
          <mxGeometry x="1310" y="-5265" width="105" height="41" as="geometry" />
        </mxCell>
        <mxCell id="-qVNJrEobh2uuxl9ESg2-99" style="rounded=0;orthogonalLoop=1;jettySize=auto;html=1;fontSize=12;" parent="1" source="-qVNJrEobh2uuxl9ESg2-34" target="-qVNJrEobh2uuxl9ESg2-97" edge="1">
          <mxGeometry relative="1" as="geometry">
            <mxPoint x="978.75" y="-5173.75" as="sourcePoint" />
            <mxPoint x="1671.75" y="-5299.5" as="targetPoint" />
          </mxGeometry>
        </mxCell>
        <mxCell id="-qVNJrEobh2uuxl9ESg2-100" value="&lt;div style=&quot;font-size: 12px;&quot;&gt;ro:quality of&lt;/div&gt;" style="edgeLabel;html=1;align=center;verticalAlign=middle;resizable=0;points=[];fontSize=12;" parent="-qVNJrEobh2uuxl9ESg2-99" connectable="0" vertex="1">
          <mxGeometry x="-0.1652" y="3" relative="1" as="geometry">
            <mxPoint as="offset" />
          </mxGeometry>
        </mxCell>
        <mxCell id="-qVNJrEobh2uuxl9ESg2-101" style="rounded=0;orthogonalLoop=1;jettySize=auto;html=1;fontSize=12;" parent="1" source="-qVNJrEobh2uuxl9ESg2-33" target="-qVNJrEobh2uuxl9ESg2-97" edge="1">
          <mxGeometry relative="1" as="geometry">
            <mxPoint x="1417.25" y="-4763.25" as="sourcePoint" />
            <mxPoint x="1702.75" y="-5026.25" as="targetPoint" />
          </mxGeometry>
        </mxCell>
        <mxCell id="-qVNJrEobh2uuxl9ESg2-102" value="&lt;div style=&quot;font-size: 12px;&quot;&gt;ro:quality of&lt;/div&gt;" style="edgeLabel;html=1;align=center;verticalAlign=middle;resizable=0;points=[];fontSize=12;" parent="-qVNJrEobh2uuxl9ESg2-101" connectable="0" vertex="1">
          <mxGeometry x="-0.1652" y="3" relative="1" as="geometry">
            <mxPoint as="offset" />
          </mxGeometry>
        </mxCell>
        <mxCell id="-qVNJrEobh2uuxl9ESg2-114" style="edgeStyle=none;rounded=0;sketch=0;orthogonalLoop=1;jettySize=auto;html=1;exitX=0.5;exitY=0;exitDx=0;exitDy=0;fontSize=12;strokeColor=#000000;strokeWidth=1;" parent="1" source="-qVNJrEobh2uuxl9ESg2-33" target="-qVNJrEobh2uuxl9ESg2-33" edge="1">
          <mxGeometry relative="1" as="geometry" />
        </mxCell>
        <mxCell id="-qVNJrEobh2uuxl9ESg2-122" style="edgeStyle=none;rounded=0;orthogonalLoop=1;jettySize=auto;html=1;exitX=0;exitY=0.25;exitDx=0;exitDy=0;fontSize=14;" parent="1" source="-qVNJrEobh2uuxl9ESg2-124" target="-qVNJrEobh2uuxl9ESg2-125" edge="1">
          <mxGeometry relative="1" as="geometry">
            <mxPoint x="1436" y="-6501" as="targetPoint" />
          </mxGeometry>
        </mxCell>
        <mxCell id="-qVNJrEobh2uuxl9ESg2-123" value="&lt;font style=&quot;font-size: 14px;&quot; face=&quot;Helvetica&quot;&gt;&lt;a style=&quot;font-size: 14px;&quot; class=&quot;search-results-label nounderline&quot; title=&quot;has role&quot; href=&quot;https://terminology.nfdi4chem.de/ts/ontologies/obi/properties?iri=http%3A%2F%2Fpurl.obolibrary.org%2Fobo%2FRO_0000087&quot;&gt;ro:has role&lt;/a&gt;&lt;/font&gt;" style="edgeLabel;html=1;align=center;verticalAlign=middle;resizable=0;points=[];fontSize=14;" parent="-qVNJrEobh2uuxl9ESg2-122" connectable="0" vertex="1">
          <mxGeometry x="-0.273" y="1" relative="1" as="geometry">
            <mxPoint x="-5" y="-10" as="offset" />
          </mxGeometry>
        </mxCell>
        <mxCell id="-qVNJrEobh2uuxl9ESg2-124" value="&lt;a style=&quot;font-size: 14px;&quot; class=&quot;search-results-label nounderline&quot; title=&quot;Homo sapiens&quot; href=&quot;https://terminology.nfdi4chem.de/ts/ontologies/ms/terms?iri=http%3A%2F%2Fpurl.obolibrary.org%2Fobo%2FNCBITaxon_9606&quot;&gt;NCBITaxon:Homo sapiens&lt;/a&gt;" style="rounded=0;whiteSpace=wrap;html=1;glass=0;fillColor=#fff2cc;fontStyle=0;fontSize=14;shadow=0;strokeColor=#d6b656;strokeWidth=2;" parent="1" vertex="1">
          <mxGeometry x="1523.5" y="-6447.75" width="136" height="54.5" as="geometry" />
        </mxCell>
        <mxCell id="-qVNJrEobh2uuxl9ESg2-125" value="&lt;div style=&quot;font-size: 14px;&quot;&gt;&lt;a style=&quot;font-size: 14px;&quot; class=&quot;jstree-anchor  jstree-clicked is_a&quot; href=&quot;https://terminology.nfdi4chem.de/ts/ontologies/obi/terms?iri=http%3A%2F%2Fpurl.obolibrary.org%2Fobo%2FOBI_0000202#&quot; tabindex=&quot;-1&quot; title=&quot;http://purl.obolibrary.org/obo/OBI_0000202&quot; id=&quot;218904_1_anchor&quot;&gt;obi:investigation agent role&lt;/a&gt;&lt;/div&gt;&lt;div style=&quot;font-size: 14px;&quot;&gt;is_a&lt;br style=&quot;font-size: 14px;&quot;&gt;&lt;/div&gt;&lt;div style=&quot;font-size: 14px;&quot;&gt;bfo:&lt;a style=&quot;font-size: 14px;&quot; class=&quot;jstree-anchor  jstree-clicked is_a&quot; href=&quot;https://terminology.nfdi4chem.de/ts/ontologies/bfo/terms?iri=http%3A%2F%2Fpurl.obolibrary.org%2Fobo%2FBFO_0000023#&quot; tabindex=&quot;-1&quot; title=&quot;http://purl.obolibrary.org/obo/BFO_0000023&quot; id=&quot;23652_1_anchor&quot;&gt;role&lt;/a&gt;&lt;/div&gt;" style="text;whiteSpace=wrap;html=1;fillColor=#d5e8d4;strokeColor=#82b366;strokeWidth=2;align=center;verticalAlign=middle;fontSize=14;" parent="1" vertex="1">
          <mxGeometry x="1227" y="-6543" width="160" height="84" as="geometry" />
        </mxCell>
        <mxCell id="-qVNJrEobh2uuxl9ESg2-126" style="edgeStyle=none;rounded=0;orthogonalLoop=1;jettySize=auto;html=1;exitX=0.5;exitY=0;exitDx=0;exitDy=0;fontSize=14;" parent="1" source="-qVNJrEobh2uuxl9ESg2-125" target="-qVNJrEobh2uuxl9ESg2-125" edge="1">
          <mxGeometry relative="1" as="geometry" />
        </mxCell>
        <mxCell id="-qVNJrEobh2uuxl9ESg2-129" style="edgeStyle=none;rounded=0;orthogonalLoop=1;jettySize=auto;html=1;exitX=0.25;exitY=1;exitDx=0;exitDy=0;fontSize=14;" parent="1" source="-qVNJrEobh2uuxl9ESg2-124" edge="1">
          <mxGeometry relative="1" as="geometry">
            <mxPoint x="1750.17" y="-6355" as="sourcePoint" />
            <mxPoint x="1468.9639321074956" y="-6247" as="targetPoint" />
          </mxGeometry>
        </mxCell>
        <mxCell id="-qVNJrEobh2uuxl9ESg2-130" value="&lt;div style=&quot;font-size: 14px;&quot;&gt;&lt;a style=&quot;font-size: 14px;&quot; class=&quot;search-results-label nounderline&quot; title=&quot;participates in&quot; href=&quot;https://terminology.nfdi4chem.de/ts/ontologies/ro/properties?iri=http%3A%2F%2Fpurl.obolibrary.org%2Fobo%2FRO_0000056&quot;&gt;ro:participates in&lt;/a&gt;&lt;/div&gt;" style="edgeLabel;html=1;align=center;verticalAlign=middle;resizable=0;points=[];fontSize=14;" parent="-qVNJrEobh2uuxl9ESg2-129" connectable="0" vertex="1">
          <mxGeometry x="0.2993" y="4" relative="1" as="geometry">
            <mxPoint x="23" y="-36" as="offset" />
          </mxGeometry>
        </mxCell>
        <mxCell id="-qVNJrEobh2uuxl9ESg2-131" style="edgeStyle=none;rounded=0;orthogonalLoop=1;jettySize=auto;html=1;exitX=1;exitY=0.5;exitDx=0;exitDy=0;fontSize=14;" parent="1" source="-qVNJrEobh2uuxl9ESg2-124" target="-qVNJrEobh2uuxl9ESg2-42" edge="1">
          <mxGeometry relative="1" as="geometry">
            <mxPoint x="1827.17" y="-6417" as="sourcePoint" />
            <mxPoint x="1713.67" y="-6514" as="targetPoint" />
          </mxGeometry>
        </mxCell>
        <mxCell id="-qVNJrEobh2uuxl9ESg2-132" value="&lt;font style=&quot;font-size: 14px;&quot; face=&quot;Helvetica&quot;&gt;&lt;a style=&quot;font-size: 14px;&quot; href=&quot;https://terminology.nfdi4chem.de/ts/ontologies/obi/properties?iri=http%3A%2F%2Fpurl.obolibrary.org%2Fobo%2FRO_0000087&quot; title=&quot;has role&quot; class=&quot;search-results-label nounderline&quot;&gt;ro:has role&lt;/a&gt;&lt;/font&gt;" style="edgeLabel;html=1;align=center;verticalAlign=middle;resizable=0;points=[];fontSize=14;" parent="-qVNJrEobh2uuxl9ESg2-131" connectable="0" vertex="1">
          <mxGeometry x="-0.273" y="1" relative="1" as="geometry">
            <mxPoint x="26" y="7" as="offset" />
          </mxGeometry>
        </mxCell>
        <mxCell id="-qVNJrEobh2uuxl9ESg2-133" style="edgeStyle=none;rounded=0;orthogonalLoop=1;jettySize=auto;html=1;exitX=1;exitY=0.5;exitDx=0;exitDy=0;fontSize=14;entryX=0;entryY=0.75;entryDx=0;entryDy=0;" parent="1" target="-qVNJrEobh2uuxl9ESg2-42" edge="1">
          <mxGeometry relative="1" as="geometry">
            <mxPoint x="1532" y="-6216.5" as="sourcePoint" />
            <mxPoint x="1668.92" y="-6514" as="targetPoint" />
          </mxGeometry>
        </mxCell>
        <mxCell id="-qVNJrEobh2uuxl9ESg2-134" value="&lt;a style=&quot;font-size: 14px;&quot; href=&quot;https://terminology.nfdi4chem.de/ts/ontologies/ro/properties?iri=http%3A%2F%2Fpurl.obolibrary.org%2Fobo%2FBFO_0000055&quot; title=&quot;realizes&quot; class=&quot;search-results-label nounderline&quot;&gt;bfo:realizes&lt;/a&gt;" style="edgeLabel;html=1;align=center;verticalAlign=middle;resizable=0;points=[];fontSize=14;" parent="-qVNJrEobh2uuxl9ESg2-133" connectable="0" vertex="1">
          <mxGeometry x="-0.1287" relative="1" as="geometry">
            <mxPoint x="1" as="offset" />
          </mxGeometry>
        </mxCell>
        <mxCell id="-qVNJrEobh2uuxl9ESg2-135" style="edgeStyle=none;rounded=0;orthogonalLoop=1;jettySize=auto;html=1;exitX=1;exitY=0.25;exitDx=0;exitDy=0;fontSize=14;entryX=0;entryY=0.5;entryDx=0;entryDy=0;" parent="1" target="-qVNJrEobh2uuxl9ESg2-39" edge="1">
          <mxGeometry relative="1" as="geometry">
            <mxPoint x="1532" y="-6231.75" as="sourcePoint" />
            <mxPoint x="2211.17" y="-6323.5" as="targetPoint" />
          </mxGeometry>
        </mxCell>
        <mxCell id="-qVNJrEobh2uuxl9ESg2-136" value="&lt;a style=&quot;font-size: 14px;&quot; class=&quot;search-results-label nounderline&quot; title=&quot;realizes&quot; href=&quot;https://terminology.nfdi4chem.de/ts/ontologies/ro/properties?iri=http%3A%2F%2Fpurl.obolibrary.org%2Fobo%2FBFO_0000055&quot;&gt;bfo:realizes&lt;/a&gt;" style="edgeLabel;html=1;align=center;verticalAlign=middle;resizable=0;points=[];fontSize=14;" parent="-qVNJrEobh2uuxl9ESg2-135" connectable="0" vertex="1">
          <mxGeometry x="-0.1287" relative="1" as="geometry">
            <mxPoint x="1" as="offset" />
          </mxGeometry>
        </mxCell>
        <mxCell id="-qVNJrEobh2uuxl9ESg2-137" style="edgeStyle=none;rounded=0;orthogonalLoop=1;jettySize=auto;html=1;exitX=0.75;exitY=1;exitDx=0;exitDy=0;fontSize=14;" parent="1" source="-qVNJrEobh2uuxl9ESg2-124" target="-qVNJrEobh2uuxl9ESg2-39" edge="1">
          <mxGeometry relative="1" as="geometry">
            <mxPoint x="1963.17" y="-6397" as="sourcePoint" />
            <mxPoint x="2211.17" y="-6336" as="targetPoint" />
          </mxGeometry>
        </mxCell>
        <mxCell id="-qVNJrEobh2uuxl9ESg2-138" value="&lt;font style=&quot;font-size: 14px;&quot; face=&quot;Helvetica&quot;&gt;&lt;a style=&quot;font-size: 14px;&quot; class=&quot;search-results-label nounderline&quot; title=&quot;has role&quot; href=&quot;https://terminology.nfdi4chem.de/ts/ontologies/obi/properties?iri=http%3A%2F%2Fpurl.obolibrary.org%2Fobo%2FRO_0000087&quot;&gt;ro:has role&lt;/a&gt;&lt;/font&gt;" style="edgeLabel;html=1;align=center;verticalAlign=middle;resizable=0;points=[];fontSize=14;" parent="-qVNJrEobh2uuxl9ESg2-137" connectable="0" vertex="1">
          <mxGeometry x="-0.273" y="1" relative="1" as="geometry">
            <mxPoint x="18" y="3" as="offset" />
          </mxGeometry>
        </mxCell>
        <mxCell id="-qVNJrEobh2uuxl9ESg2-139" style="edgeStyle=none;rounded=0;orthogonalLoop=1;jettySize=auto;html=1;exitX=1;exitY=0.25;exitDx=0;exitDy=0;fontSize=14;" parent="1" source="-qVNJrEobh2uuxl9ESg2-42" target="-qVNJrEobh2uuxl9ESg2-42" edge="1">
          <mxGeometry relative="1" as="geometry" />
        </mxCell>
        <mxCell id="-qVNJrEobh2uuxl9ESg2-140" value="&lt;span style=&quot;font-size: 12px; color: rgb(0, 0, 0); font-weight: normal; text-decoration: none; font-style: normal; text-decoration-skip-ink: none;&quot;&gt;vibso:exitation wavelength setting&lt;/span&gt;" style="rounded=0;whiteSpace=wrap;html=1;fontSize=12;fontFamily=Helvetica;fillColor=#dae8fc;strokeColor=#FF0000;strokeWidth=2;verticalAlign=middle;" parent="1" vertex="1">
          <mxGeometry x="208" y="-5178.999999999999" width="110" height="45" as="geometry" />
        </mxCell>
        <mxCell id="-qVNJrEobh2uuxl9ESg2-142" value="&lt;div style=&quot;font-size: 12px;&quot;&gt;vibso:device temperature setting&lt;span style=&quot;font-size: 12px; color: rgb(0, 0, 0); font-weight: normal; text-decoration: none; font-style: normal; text-decoration-skip-ink: none;&quot;&gt;&lt;br style=&quot;font-size: 12px;&quot;&gt;&lt;/span&gt;&lt;/div&gt;" style="rounded=0;whiteSpace=wrap;html=1;fontSize=12;fontFamily=Helvetica;fillColor=#dae8fc;strokeColor=#FF0000;strokeWidth=2;verticalAlign=middle;" parent="1" vertex="1">
          <mxGeometry x="208" y="-5052" width="110" height="45" as="geometry" />
        </mxCell>
        <mxCell id="-qVNJrEobh2uuxl9ESg2-147" value="&lt;a href=&quot;https://terminology.nfdi4chem.de/ts/ontologies/edam/terms?iri=http%3A%2F%2Fedamontology.org%2Fdata_1689&quot; class=&quot;waffle-rich-text-link&quot; style=&quot;font-size: 14px; color: rgb(17, 85, 204); font-weight: normal; text-decoration: underline; font-family: &amp;quot;Arial&amp;quot;; font-style: normal; text-decoration-skip-ink: none;&quot;&gt;edam:Username&lt;/a&gt;" style="text;whiteSpace=wrap;html=1;fillColor=#dae8fc;strokeColor=#6c8ebf;fontSize=14;verticalAlign=middle;align=center;" parent="1" vertex="1">
          <mxGeometry x="1822" y="-6555" width="119" height="38" as="geometry" />
        </mxCell>
        <mxCell id="-qVNJrEobh2uuxl9ESg2-148" style="rounded=0;orthogonalLoop=1;jettySize=auto;html=1;exitX=0.25;exitY=1;exitDx=0;exitDy=0;entryX=1;entryY=0.25;entryDx=0;entryDy=0;strokeColor=#000000;strokeWidth=1;fontSize=14;" parent="1" source="-qVNJrEobh2uuxl9ESg2-147" target="-qVNJrEobh2uuxl9ESg2-124" edge="1">
          <mxGeometry relative="1" as="geometry">
            <mxPoint x="1015.17" y="-6359.5" as="sourcePoint" />
            <mxPoint x="1369.17" y="-6357.25" as="targetPoint" />
          </mxGeometry>
        </mxCell>
        <mxCell id="-qVNJrEobh2uuxl9ESg2-149" value="&lt;a style=&quot;font-size: 14px;&quot; href=&quot;http://purl.obolibrary.org/obo/IAO_0000219&quot;&gt;iao: denotes&lt;/a&gt;" style="edgeLabel;html=1;align=center;verticalAlign=middle;resizable=0;points=[];fontSize=14;" parent="-qVNJrEobh2uuxl9ESg2-148" connectable="0" vertex="1">
          <mxGeometry x="-0.1975" relative="1" as="geometry">
            <mxPoint x="6" y="1" as="offset" />
          </mxGeometry>
        </mxCell>
        <mxCell id="-qVNJrEobh2uuxl9ESg2-197" style="edgeStyle=none;rounded=0;orthogonalLoop=1;jettySize=auto;html=1;exitX=0;exitY=0.5;exitDx=0;exitDy=0;fontSize=14;entryX=1;entryY=0.25;entryDx=0;entryDy=0;" parent="1" source="-qVNJrEobh2uuxl9ESg2-50" target="-qVNJrEobh2uuxl9ESg2-125" edge="1">
          <mxGeometry relative="1" as="geometry">
            <mxPoint x="1533.5" y="-6424.125" as="sourcePoint" />
            <mxPoint x="1397" y="-6466.288683602772" as="targetPoint" />
          </mxGeometry>
        </mxCell>
        <mxCell id="-qVNJrEobh2uuxl9ESg2-198" value="&lt;font style=&quot;font-size: 14px;&quot; face=&quot;Helvetica&quot;&gt;&lt;a href=&quot;https://terminology.nfdi4chem.de/ts/ontologies/obi/properties?iri=http%3A%2F%2Fpurl.obolibrary.org%2Fobo%2FRO_0000087&quot; title=&quot;has role&quot; class=&quot;search-results-label nounderline&quot; style=&quot;font-size: 14px;&quot;&gt;ro:has role&lt;/a&gt;&lt;/font&gt;" style="edgeLabel;html=1;align=center;verticalAlign=middle;resizable=0;points=[];fontSize=14;" parent="-qVNJrEobh2uuxl9ESg2-197" connectable="0" vertex="1">
          <mxGeometry x="-0.273" y="1" relative="1" as="geometry">
            <mxPoint x="-9" y="-4" as="offset" />
          </mxGeometry>
        </mxCell>
        <mxCell id="Ohz4nThSJCRxAfsm-9E9-1" value="vibso:spectral window range minimum" style="rounded=0;whiteSpace=wrap;html=1;fillColor=#dae8fc;strokeColor=#FF0000;strokeWidth=2;fontSize=12;" parent="1" vertex="1">
          <mxGeometry x="1638.28" y="-4608" width="145" height="40" as="geometry" />
        </mxCell>
        <mxCell id="gwl36sVPS2Ytlpi96ezr-6" style="edgeStyle=none;rounded=0;orthogonalLoop=1;jettySize=auto;html=1;exitX=0;exitY=0.5;exitDx=0;exitDy=0;" parent="1" source="86rUVxohuHS5CdAOukHg-3" target="QKKoRjnMVttNz9pZIT6n-24" edge="1">
          <mxGeometry relative="1" as="geometry">
            <mxPoint x="1632.9356564822467" y="-4664" as="targetPoint" />
          </mxGeometry>
        </mxCell>
        <mxCell id="gwl36sVPS2Ytlpi96ezr-9" value="bfo:part of" style="edgeLabel;html=1;align=center;verticalAlign=middle;resizable=0;points=[];" parent="gwl36sVPS2Ytlpi96ezr-6" connectable="0" vertex="1">
          <mxGeometry x="0.1966" y="3" relative="1" as="geometry">
            <mxPoint x="30" y="-10" as="offset" />
          </mxGeometry>
        </mxCell>
        <mxCell id="86rUVxohuHS5CdAOukHg-3" value="vibso:spectral window range maxium" style="rounded=0;whiteSpace=wrap;html=1;fillColor=#dae8fc;strokeColor=#FF0000;strokeWidth=2;fontSize=12;" parent="1" vertex="1">
          <mxGeometry x="1638.28" y="-4673" width="145" height="40" as="geometry" />
        </mxCell>
        <mxCell id="5XHmPhQ1afuUtzLrEp4E-8" style="edgeStyle=none;rounded=0;orthogonalLoop=1;jettySize=auto;html=1;exitX=0;exitY=0.5;exitDx=0;exitDy=0;" parent="1" source="Ohz4nThSJCRxAfsm-9E9-1" target="QKKoRjnMVttNz9pZIT6n-24" edge="1">
          <mxGeometry relative="1" as="geometry">
            <mxPoint x="1709.28" y="-4554.349999999999" as="sourcePoint" />
            <mxPoint x="1591.04318261103" y="-4664" as="targetPoint" />
          </mxGeometry>
        </mxCell>
        <mxCell id="5XHmPhQ1afuUtzLrEp4E-9" value="bfo:part of" style="edgeLabel;html=1;align=center;verticalAlign=middle;resizable=0;points=[];" parent="5XHmPhQ1afuUtzLrEp4E-8" connectable="0" vertex="1">
          <mxGeometry x="0.1966" y="3" relative="1" as="geometry">
            <mxPoint x="28" y="-7" as="offset" />
          </mxGeometry>
        </mxCell>
        <mxCell id="fdevJqxyKwK1-lTB1GL0-1" value="pato:power" style="rounded=0;whiteSpace=wrap;html=1;glass=0;fillColor=#f5f5f5;fontStyle=0;fontSize=12;shadow=0;strokeColor=#666666;strokeWidth=1;fontColor=#333333;fontFamily=Helvetica;" parent="1" vertex="1">
          <mxGeometry x="532.4199999999998" y="-5109.5" width="105" height="40" as="geometry" />
        </mxCell>
        <mxCell id="QKKoRjnMVttNz9pZIT6n-1" value="&lt;div&gt;chmo:&#39;Raman spectroscopy&#39;&lt;/div&gt;" style="rounded=0;whiteSpace=wrap;html=1;fillColor=#f8cecc;strokeColor=#b85450;" vertex="1" parent="1">
          <mxGeometry x="1149.72" y="-4835.5" width="105" height="90" as="geometry" />
        </mxCell>
        <mxCell id="QKKoRjnMVttNz9pZIT6n-2" value="&lt;div&gt;iao:data item&lt;/div&gt;" style="rounded=0;whiteSpace=wrap;html=1;fillColor=#dae8fc;strokeColor=#6c8ebf;arcSize=15;glass=0;shadow=0;" vertex="1" parent="1">
          <mxGeometry x="1241" y="-4681" width="105" height="40" as="geometry" />
        </mxCell>
        <mxCell id="QKKoRjnMVttNz9pZIT6n-3" style="rounded=0;orthogonalLoop=1;jettySize=auto;html=1;jumpStyle=arc;" edge="1" parent="1" source="QKKoRjnMVttNz9pZIT6n-1" target="QKKoRjnMVttNz9pZIT6n-2">
          <mxGeometry relative="1" as="geometry">
            <mxPoint x="1292.22" y="-4777.17" as="sourcePoint" />
            <mxPoint x="1789.97" y="-4850.84" as="targetPoint" />
            <Array as="points" />
          </mxGeometry>
        </mxCell>
        <mxCell id="QKKoRjnMVttNz9pZIT6n-4" value="&lt;div&gt;obi:has &lt;br&gt;&lt;/div&gt;&lt;div&gt;specified &lt;br&gt;&lt;/div&gt;&lt;div&gt;output&lt;/div&gt;" style="edgeLabel;html=1;align=center;verticalAlign=middle;resizable=0;points=[];" connectable="0" vertex="1" parent="QKKoRjnMVttNz9pZIT6n-3">
          <mxGeometry x="-0.2211" y="2" relative="1" as="geometry">
            <mxPoint x="-4" y="6" as="offset" />
          </mxGeometry>
        </mxCell>
        <mxCell id="QKKoRjnMVttNz9pZIT6n-5" value="chmo:Raman spectrometer" style="rounded=0;whiteSpace=wrap;html=1;fillColor=#fff2cc;strokeColor=#d6b656;" vertex="1" parent="1">
          <mxGeometry x="1149.72" y="-4981" width="105" height="78" as="geometry" />
        </mxCell>
        <mxCell id="QKKoRjnMVttNz9pZIT6n-6" style="rounded=0;orthogonalLoop=1;jettySize=auto;html=1;jumpStyle=arc;strokeColor=#000000;entryX=0.5;entryY=1;entryDx=0;entryDy=0;fontColor=#000000;" edge="1" parent="1" source="QKKoRjnMVttNz9pZIT6n-1" target="QKKoRjnMVttNz9pZIT6n-5">
          <mxGeometry relative="1" as="geometry">
            <mxPoint x="1254.5" y="-5112" as="sourcePoint" />
            <mxPoint x="1233" y="-5164.5" as="targetPoint" />
          </mxGeometry>
        </mxCell>
        <object label="&lt;div class=&quot;node-metadata-label&quot;&gt;&lt;/div&gt;&lt;div class=&quot;col-sm-8 col-md-9 node-metadata-value&quot;&gt;obi:has &lt;br&gt;&lt;/div&gt;&lt;div class=&quot;col-sm-8 col-md-9 node-metadata-value&quot;&gt;specified &lt;br&gt;&lt;/div&gt;&lt;div class=&quot;col-sm-8 col-md-9 node-metadata-value&quot;&gt;input&lt;/div&gt;" definition="a relation between a continuant and a process, in which the continuant is somehow involved in the process" id="QKKoRjnMVttNz9pZIT6n-7">
          <mxCell style="edgeLabel;html=1;align=center;verticalAlign=middle;resizable=0;points=[];fontColor=#000000;" connectable="0" vertex="1" parent="QKKoRjnMVttNz9pZIT6n-6">
            <mxGeometry x="-0.417" y="-1" relative="1" as="geometry">
              <mxPoint x="-6" y="-14" as="offset" />
            </mxGeometry>
          </mxCell>
        </object>
        <mxCell id="QKKoRjnMVttNz9pZIT6n-8" value="obi:device setting" style="rounded=0;whiteSpace=wrap;html=1;fillColor=#f5f5f5;strokeColor=#666666;fontColor=#333333;" vertex="1" parent="1">
          <mxGeometry x="636" y="-4937" width="105" height="66.25" as="geometry" />
        </mxCell>
        <mxCell id="QKKoRjnMVttNz9pZIT6n-9" style="rounded=0;orthogonalLoop=1;jettySize=auto;html=1;jumpStyle=arc;strokeColor=#000000;exitX=0;exitY=0.25;exitDx=0;exitDy=0;fontColor=#000000;" edge="1" parent="1" source="QKKoRjnMVttNz9pZIT6n-1" target="QKKoRjnMVttNz9pZIT6n-8">
          <mxGeometry relative="1" as="geometry">
            <mxPoint x="1259.75" y="-4785" as="sourcePoint" />
            <mxPoint x="780.75" y="-4785" as="targetPoint" />
          </mxGeometry>
        </mxCell>
        <mxCell id="QKKoRjnMVttNz9pZIT6n-10" value="bfo:realizes" style="edgeLabel;html=1;align=center;verticalAlign=middle;resizable=0;points=[];fontColor=#000000;" connectable="0" vertex="1" parent="QKKoRjnMVttNz9pZIT6n-9">
          <mxGeometry x="-0.3129" y="2" relative="1" as="geometry">
            <mxPoint x="-33" y="3" as="offset" />
          </mxGeometry>
        </mxCell>
        <mxCell id="QKKoRjnMVttNz9pZIT6n-11" style="rounded=0;orthogonalLoop=1;jettySize=auto;html=1;" edge="1" parent="1" source="QKKoRjnMVttNz9pZIT6n-8" target="QKKoRjnMVttNz9pZIT6n-5">
          <mxGeometry relative="1" as="geometry">
            <mxPoint x="807" y="-4822.5" as="sourcePoint" />
            <mxPoint x="1339.75" y="-5060" as="targetPoint" />
            <Array as="points" />
          </mxGeometry>
        </mxCell>
        <mxCell id="QKKoRjnMVttNz9pZIT6n-12" value="&lt;div style=&quot;font-size: 11px;&quot;&gt;ro:quality of&lt;/div&gt;" style="edgeLabel;html=1;align=center;verticalAlign=middle;resizable=0;points=[];labelBackgroundColor=default;" connectable="0" vertex="1" parent="QKKoRjnMVttNz9pZIT6n-11">
          <mxGeometry x="0.2475" y="-4" relative="1" as="geometry">
            <mxPoint x="-121" y="23" as="offset" />
          </mxGeometry>
        </mxCell>
        <mxCell id="QKKoRjnMVttNz9pZIT6n-127" style="rounded=0;orthogonalLoop=1;jettySize=auto;html=1;exitX=0.5;exitY=0;exitDx=0;exitDy=0;" edge="1" parent="1" source="QKKoRjnMVttNz9pZIT6n-13" target="QKKoRjnMVttNz9pZIT6n-117">
          <mxGeometry relative="1" as="geometry" />
        </mxCell>
        <mxCell id="QKKoRjnMVttNz9pZIT6n-128" value="obi:has value&lt;br&gt;specification" style="edgeLabel;html=1;align=center;verticalAlign=middle;resizable=0;points=[];" vertex="1" connectable="0" parent="QKKoRjnMVttNz9pZIT6n-127">
          <mxGeometry x="-0.0954" y="2" relative="1" as="geometry">
            <mxPoint y="1" as="offset" />
          </mxGeometry>
        </mxCell>
        <mxCell id="QKKoRjnMVttNz9pZIT6n-13" value="&lt;div&gt;iao:setting datum&lt;br&gt;&lt;/div&gt;" style="rounded=0;whiteSpace=wrap;html=1;fillColor=#dae8fc;strokeColor=#6c8ebf;arcSize=15;glass=0;shadow=0;" vertex="1" parent="1">
          <mxGeometry x="42.99999999999994" y="-4615" width="105" height="60" as="geometry" />
        </mxCell>
        <mxCell id="QKKoRjnMVttNz9pZIT6n-18" value="obi:material sample" style="rounded=0;whiteSpace=wrap;html=1;fillColor=#fff2cc;strokeColor=#d6b656;" vertex="1" parent="1">
          <mxGeometry x="1443" y="-4816.5" width="105" height="52" as="geometry" />
        </mxCell>
        <mxCell id="QKKoRjnMVttNz9pZIT6n-19" value="" style="rounded=0;orthogonalLoop=1;jettySize=auto;html=1;" edge="1" parent="1" source="QKKoRjnMVttNz9pZIT6n-1" target="QKKoRjnMVttNz9pZIT6n-18">
          <mxGeometry relative="1" as="geometry">
            <mxPoint x="1354.47" y="-4790" as="sourcePoint" />
            <mxPoint x="1513.47" y="-4667" as="targetPoint" />
          </mxGeometry>
        </mxCell>
        <object label="&lt;div class=&quot;node-metadata-label&quot;&gt;&lt;/div&gt;&lt;div class=&quot;col-sm-8 col-md-9 node-metadata-value&quot;&gt;obi:has &lt;br&gt;&lt;/div&gt;&lt;div class=&quot;col-sm-8 col-md-9 node-metadata-value&quot;&gt;specified &lt;br&gt;&lt;/div&gt;&lt;div class=&quot;col-sm-8 col-md-9 node-metadata-value&quot;&gt;input&lt;/div&gt;" definition="a relation between a continuant and a process, in which the continuant is somehow involved in the process" id="QKKoRjnMVttNz9pZIT6n-20">
          <mxCell style="edgeLabel;html=1;align=center;verticalAlign=middle;resizable=0;points=[];" connectable="0" vertex="1" parent="QKKoRjnMVttNz9pZIT6n-19">
            <mxGeometry x="-0.417" y="-1" relative="1" as="geometry">
              <mxPoint x="8" y="8" as="offset" />
            </mxGeometry>
          </mxCell>
        </object>
        <mxCell id="QKKoRjnMVttNz9pZIT6n-21" value="&lt;div&gt;obi:data transformation&lt;br&gt;&lt;/div&gt;" style="rounded=0;whiteSpace=wrap;html=1;fillColor=#f8cecc;strokeColor=#b85450;" vertex="1" parent="1">
          <mxGeometry x="1010" y="-4605" width="105" height="40" as="geometry" />
        </mxCell>
        <mxCell id="QKKoRjnMVttNz9pZIT6n-22" style="rounded=0;orthogonalLoop=1;jettySize=auto;html=1;jumpStyle=arc;strokeColor=#000000;fontColor=#000000;" edge="1" parent="1" source="QKKoRjnMVttNz9pZIT6n-21" target="QKKoRjnMVttNz9pZIT6n-24">
          <mxGeometry relative="1" as="geometry">
            <mxPoint x="1467.75" y="-4854" as="sourcePoint" />
            <mxPoint x="1475.75" y="-4543" as="targetPoint" />
            <Array as="points" />
          </mxGeometry>
        </mxCell>
        <mxCell id="QKKoRjnMVttNz9pZIT6n-23" value="&lt;div&gt;obi:has &lt;br&gt;&lt;/div&gt;&lt;div&gt;specified &lt;br&gt;&lt;/div&gt;&lt;div&gt;output&lt;/div&gt;" style="edgeLabel;html=1;align=center;verticalAlign=middle;resizable=0;points=[];fontColor=#000000;" connectable="0" vertex="1" parent="QKKoRjnMVttNz9pZIT6n-22">
          <mxGeometry x="-0.2211" y="2" relative="1" as="geometry">
            <mxPoint x="-5" as="offset" />
          </mxGeometry>
        </mxCell>
        <mxCell id="QKKoRjnMVttNz9pZIT6n-24" value="chmo:Raman spectrum" style="rounded=0;whiteSpace=wrap;html=1;fillColor=#dae8fc;strokeColor=#6c8ebf;arcSize=15;glass=0;shadow=0;" vertex="1" parent="1">
          <mxGeometry x="1402" y="-4608" width="105" height="40" as="geometry" />
        </mxCell>
        <mxCell id="QKKoRjnMVttNz9pZIT6n-25" value="" style="rounded=0;orthogonalLoop=1;jettySize=auto;html=1;exitX=0;exitY=0.5;exitDx=0;exitDy=0;" edge="1" parent="1" source="QKKoRjnMVttNz9pZIT6n-2" target="QKKoRjnMVttNz9pZIT6n-21">
          <mxGeometry relative="1" as="geometry">
            <mxPoint x="1521.75" y="-4854" as="sourcePoint" />
            <mxPoint x="1707.75" y="-4761" as="targetPoint" />
          </mxGeometry>
        </mxCell>
        <object label="&lt;div class=&quot;node-metadata-label&quot;&gt;&lt;/div&gt;&lt;div class=&quot;col-sm-8 col-md-9 node-metadata-value&quot;&gt;obi:has &lt;br&gt;&lt;/div&gt;&lt;div class=&quot;col-sm-8 col-md-9 node-metadata-value&quot;&gt;specified &lt;br&gt;&lt;/div&gt;&lt;div class=&quot;col-sm-8 col-md-9 node-metadata-value&quot;&gt;input&lt;/div&gt;" definition="a relation between a continuant and a process, in which the continuant is somehow involved in the process" id="QKKoRjnMVttNz9pZIT6n-26">
          <mxCell style="edgeLabel;html=1;align=center;verticalAlign=middle;resizable=0;points=[];" connectable="0" vertex="1" parent="QKKoRjnMVttNz9pZIT6n-25">
            <mxGeometry x="-0.417" y="-1" relative="1" as="geometry">
              <mxPoint x="-8" as="offset" />
            </mxGeometry>
          </mxCell>
        </object>
        <mxCell id="QKKoRjnMVttNz9pZIT6n-29" value="obi:assay objective" style="rounded=0;whiteSpace=wrap;html=1;fillColor=#dae8fc;strokeColor=#6c8ebf;" vertex="1" parent="1">
          <mxGeometry x="754" y="-4605" width="105" height="40" as="geometry" />
        </mxCell>
        <mxCell id="QKKoRjnMVttNz9pZIT6n-30" style="rounded=0;orthogonalLoop=1;jettySize=auto;html=1;jumpStyle=arc;fontColor=#000000;strokeColor=#000000;" edge="1" parent="1" source="QKKoRjnMVttNz9pZIT6n-34" target="QKKoRjnMVttNz9pZIT6n-29">
          <mxGeometry relative="1" as="geometry">
            <mxPoint x="726.75" y="-5080" as="sourcePoint" />
            <mxPoint x="1022.5" y="-5130" as="targetPoint" />
            <Array as="points" />
          </mxGeometry>
        </mxCell>
        <mxCell id="QKKoRjnMVttNz9pZIT6n-31" value="&lt;div&gt;bfo:has &lt;br&gt;&lt;/div&gt;&lt;div&gt;part&lt;/div&gt;" style="edgeLabel;html=1;align=center;verticalAlign=middle;resizable=0;points=[];fontColor=#000000;" connectable="0" vertex="1" parent="QKKoRjnMVttNz9pZIT6n-30">
          <mxGeometry x="-0.2064" y="1" relative="1" as="geometry">
            <mxPoint x="-3" y="5" as="offset" />
          </mxGeometry>
        </mxCell>
        <mxCell id="QKKoRjnMVttNz9pZIT6n-32" style="rounded=0;orthogonalLoop=1;jettySize=auto;html=1;exitX=0;exitY=0.867;exitDx=0;exitDy=0;exitPerimeter=0;" edge="1" parent="1" source="QKKoRjnMVttNz9pZIT6n-1" target="QKKoRjnMVttNz9pZIT6n-29">
          <mxGeometry relative="1" as="geometry">
            <Array as="points" />
            <mxPoint x="991.75" y="-4853" as="sourcePoint" />
          </mxGeometry>
        </mxCell>
        <mxCell id="QKKoRjnMVttNz9pZIT6n-33" value="&lt;div&gt;obi:achieves&lt;/div&gt;&lt;div&gt;planned objective&lt;br&gt;&lt;/div&gt;" style="edgeLabel;html=1;align=center;verticalAlign=middle;resizable=0;points=[];" connectable="0" vertex="1" parent="QKKoRjnMVttNz9pZIT6n-32">
          <mxGeometry x="-0.2881" y="-4" relative="1" as="geometry">
            <mxPoint x="-49" y="36" as="offset" />
          </mxGeometry>
        </mxCell>
        <mxCell id="QKKoRjnMVttNz9pZIT6n-34" value="&lt;div&gt;obi:investigation&lt;/div&gt;&lt;div&gt;assay specification&lt;br&gt;&lt;/div&gt;" style="rounded=0;whiteSpace=wrap;html=1;fillColor=#dae8fc;strokeColor=#6c8ebf;" vertex="1" parent="1">
          <mxGeometry x="545" y="-4615" width="105" height="60" as="geometry" />
        </mxCell>
        <mxCell id="QKKoRjnMVttNz9pZIT6n-35" style="rounded=0;orthogonalLoop=1;jettySize=auto;html=1;entryX=0.019;entryY=0.344;entryDx=0;entryDy=0;entryPerimeter=0;exitX=0.75;exitY=0;exitDx=0;exitDy=0;" edge="1" parent="1" source="QKKoRjnMVttNz9pZIT6n-34" target="QKKoRjnMVttNz9pZIT6n-1">
          <mxGeometry relative="1" as="geometry">
            <mxPoint x="733.25" y="-5287.67" as="sourcePoint" />
            <mxPoint x="927.25" y="-4800" as="targetPoint" />
            <Array as="points" />
          </mxGeometry>
        </mxCell>
        <mxCell id="QKKoRjnMVttNz9pZIT6n-36" value="iao:is about" style="edgeLabel;html=1;align=center;verticalAlign=middle;resizable=0;points=[];" connectable="0" vertex="1" parent="QKKoRjnMVttNz9pZIT6n-35">
          <mxGeometry x="0.2301" y="-2" relative="1" as="geometry">
            <mxPoint x="-185" y="69" as="offset" />
          </mxGeometry>
        </mxCell>
        <mxCell id="QKKoRjnMVttNz9pZIT6n-37" style="edgeStyle=orthogonalEdgeStyle;rounded=0;orthogonalLoop=1;jettySize=auto;html=1;exitX=0.5;exitY=1;exitDx=0;exitDy=0;" edge="1" parent="1" source="QKKoRjnMVttNz9pZIT6n-34" target="QKKoRjnMVttNz9pZIT6n-34">
          <mxGeometry relative="1" as="geometry" />
        </mxCell>
        <mxCell id="QKKoRjnMVttNz9pZIT6n-49" style="rounded=0;orthogonalLoop=1;jettySize=auto;html=1;jumpStyle=arc;strokeColor=#000000;fontColor=#000000;" edge="1" parent="1" source="QKKoRjnMVttNz9pZIT6n-2" target="QKKoRjnMVttNz9pZIT6n-18">
          <mxGeometry relative="1" as="geometry">
            <mxPoint x="978.97" y="-4528" as="sourcePoint" />
            <mxPoint x="1350.97" y="-4522" as="targetPoint" />
            <Array as="points" />
          </mxGeometry>
        </mxCell>
        <mxCell id="QKKoRjnMVttNz9pZIT6n-50" value="&lt;div&gt;iao:is about&lt;/div&gt;" style="edgeLabel;html=1;align=center;verticalAlign=middle;resizable=0;points=[];fontColor=#000000;" connectable="0" vertex="1" parent="QKKoRjnMVttNz9pZIT6n-49">
          <mxGeometry x="0.2301" y="-2" relative="1" as="geometry">
            <mxPoint x="-50" y="28" as="offset" />
          </mxGeometry>
        </mxCell>
        <mxCell id="QKKoRjnMVttNz9pZIT6n-51" style="rounded=0;orthogonalLoop=1;jettySize=auto;html=1;" edge="1" parent="1" source="QKKoRjnMVttNz9pZIT6n-18" target="QKKoRjnMVttNz9pZIT6n-89">
          <mxGeometry relative="1" as="geometry">
            <mxPoint x="1520.04" y="-4676" as="sourcePoint" />
            <mxPoint x="1682.54" y="-4735.000384615384" as="targetPoint" />
            <Array as="points" />
          </mxGeometry>
        </mxCell>
        <mxCell id="QKKoRjnMVttNz9pZIT6n-52" value="ro:has role" style="edgeLabel;html=1;align=center;verticalAlign=middle;resizable=0;points=[];" connectable="0" vertex="1" parent="QKKoRjnMVttNz9pZIT6n-51">
          <mxGeometry x="-0.3225" y="4" relative="1" as="geometry">
            <mxPoint x="4" y="2" as="offset" />
          </mxGeometry>
        </mxCell>
        <mxCell id="QKKoRjnMVttNz9pZIT6n-53" value="obi:evaluant role" style="rounded=0;whiteSpace=wrap;html=1;fillColor=#d5e8d4;strokeColor=#82b366;" vertex="1" parent="1">
          <mxGeometry x="1370" y="-4931" width="105" height="40" as="geometry" />
        </mxCell>
        <mxCell id="QKKoRjnMVttNz9pZIT6n-54" style="rounded=0;orthogonalLoop=1;jettySize=auto;html=1;" edge="1" parent="1" source="QKKoRjnMVttNz9pZIT6n-18" target="QKKoRjnMVttNz9pZIT6n-53">
          <mxGeometry relative="1" as="geometry">
            <mxPoint x="1998.04" y="-4726" as="sourcePoint" />
            <mxPoint x="2050.04" y="-4776" as="targetPoint" />
            <Array as="points" />
          </mxGeometry>
        </mxCell>
        <mxCell id="QKKoRjnMVttNz9pZIT6n-55" value="ro:has role" style="edgeLabel;html=1;align=center;verticalAlign=middle;resizable=0;points=[];" connectable="0" vertex="1" parent="QKKoRjnMVttNz9pZIT6n-54">
          <mxGeometry x="-0.3225" y="4" relative="1" as="geometry">
            <mxPoint x="2" y="-9" as="offset" />
          </mxGeometry>
        </mxCell>
        <mxCell id="QKKoRjnMVttNz9pZIT6n-56" value="&lt;div&gt;obi:material sampling process&lt;br&gt;&lt;/div&gt;" style="rounded=0;whiteSpace=wrap;html=1;fillColor=#f8cecc;strokeColor=#b85450;" vertex="1" parent="1">
          <mxGeometry x="1443" y="-5136.5" width="105" height="45" as="geometry" />
        </mxCell>
        <mxCell id="QKKoRjnMVttNz9pZIT6n-57" value="bfo:material entity" style="rounded=0;whiteSpace=wrap;html=1;fillColor=#fff2cc;strokeColor=#d6b656;" vertex="1" parent="1">
          <mxGeometry x="1439" y="-5265" width="105" height="40" as="geometry" />
        </mxCell>
        <mxCell id="QKKoRjnMVttNz9pZIT6n-58" value="" style="rounded=0;orthogonalLoop=1;jettySize=auto;html=1;" edge="1" parent="1" source="QKKoRjnMVttNz9pZIT6n-56" target="QKKoRjnMVttNz9pZIT6n-57">
          <mxGeometry relative="1" as="geometry">
            <mxPoint x="1451.5400000000002" y="-4942" as="sourcePoint" />
            <mxPoint x="1545.54" y="-4956" as="targetPoint" />
          </mxGeometry>
        </mxCell>
        <object label="&lt;div class=&quot;node-metadata-label&quot;&gt;&lt;/div&gt;&lt;div class=&quot;col-sm-8 col-md-9 node-metadata-value&quot;&gt;obi:has &lt;br&gt;&lt;/div&gt;&lt;div class=&quot;col-sm-8 col-md-9 node-metadata-value&quot;&gt;specified &lt;br&gt;&lt;/div&gt;&lt;div class=&quot;col-sm-8 col-md-9 node-metadata-value&quot;&gt;input&lt;/div&gt;" definition="a relation between a continuant and a process, in which the continuant is somehow involved in the process" id="QKKoRjnMVttNz9pZIT6n-59">
          <mxCell style="edgeLabel;html=1;align=center;verticalAlign=middle;resizable=0;points=[];" connectable="0" vertex="1" parent="QKKoRjnMVttNz9pZIT6n-58">
            <mxGeometry x="-0.417" y="-1" relative="1" as="geometry">
              <mxPoint x="3" y="-13" as="offset" />
            </mxGeometry>
          </mxCell>
        </object>
        <mxCell id="QKKoRjnMVttNz9pZIT6n-60" style="rounded=0;orthogonalLoop=1;jettySize=auto;html=1;jumpStyle=arc;" edge="1" parent="1" source="QKKoRjnMVttNz9pZIT6n-56" target="QKKoRjnMVttNz9pZIT6n-18">
          <mxGeometry relative="1" as="geometry">
            <mxPoint x="1618.04" y="-4772" as="sourcePoint" />
            <mxPoint x="1658.04" y="-4606" as="targetPoint" />
            <Array as="points" />
          </mxGeometry>
        </mxCell>
        <mxCell id="QKKoRjnMVttNz9pZIT6n-61" value="&lt;div&gt;obi:has &lt;br&gt;&lt;/div&gt;&lt;div&gt;specified &lt;br&gt;&lt;/div&gt;&lt;div&gt;output&lt;/div&gt;" style="edgeLabel;html=1;align=center;verticalAlign=middle;resizable=0;points=[];" connectable="0" vertex="1" parent="QKKoRjnMVttNz9pZIT6n-60">
          <mxGeometry x="-0.2211" y="2" relative="1" as="geometry">
            <mxPoint x="3" y="-7" as="offset" />
          </mxGeometry>
        </mxCell>
        <mxCell id="QKKoRjnMVttNz9pZIT6n-62" style="rounded=0;orthogonalLoop=1;jettySize=auto;html=1;jumpStyle=arc;" edge="1" parent="1" source="QKKoRjnMVttNz9pZIT6n-1" target="QKKoRjnMVttNz9pZIT6n-53">
          <mxGeometry relative="1" as="geometry">
            <mxPoint x="1693.97" y="-4867" as="targetPoint" />
            <mxPoint x="1476.97" y="-4871" as="sourcePoint" />
          </mxGeometry>
        </mxCell>
        <mxCell id="QKKoRjnMVttNz9pZIT6n-63" value="bfo:realizes" style="edgeLabel;html=1;align=center;verticalAlign=middle;resizable=0;points=[];" connectable="0" vertex="1" parent="QKKoRjnMVttNz9pZIT6n-62">
          <mxGeometry x="-0.3129" y="2" relative="1" as="geometry">
            <mxPoint x="10" as="offset" />
          </mxGeometry>
        </mxCell>
        <mxCell id="QKKoRjnMVttNz9pZIT6n-69" style="rounded=0;orthogonalLoop=1;jettySize=auto;html=1;jumpStyle=arc;fontColor=#000000;strokeColor=#000000;exitX=0.75;exitY=1;exitDx=0;exitDy=0;" edge="1" parent="1" source="QKKoRjnMVttNz9pZIT6n-56" target="QKKoRjnMVttNz9pZIT6n-89">
          <mxGeometry relative="1" as="geometry">
            <mxPoint x="1669.54" y="-4806" as="targetPoint" />
            <mxPoint x="1714.04" y="-4769" as="sourcePoint" />
          </mxGeometry>
        </mxCell>
        <mxCell id="QKKoRjnMVttNz9pZIT6n-70" value="bfo:realizes" style="edgeLabel;html=1;align=center;verticalAlign=middle;resizable=0;points=[];fontColor=#000000;" connectable="0" vertex="1" parent="QKKoRjnMVttNz9pZIT6n-69">
          <mxGeometry x="-0.3129" y="2" relative="1" as="geometry">
            <mxPoint x="3" y="6" as="offset" />
          </mxGeometry>
        </mxCell>
        <mxCell id="QKKoRjnMVttNz9pZIT6n-76" style="rounded=0;orthogonalLoop=1;jettySize=auto;html=1;jumpStyle=arc;fontColor=#000000;strokeColor=#000000;" edge="1" parent="1" source="QKKoRjnMVttNz9pZIT6n-34" target="QKKoRjnMVttNz9pZIT6n-98">
          <mxGeometry relative="1" as="geometry">
            <mxPoint x="757.75" y="-4712" as="sourcePoint" />
            <mxPoint x="757.75" y="-4756" as="targetPoint" />
            <Array as="points" />
          </mxGeometry>
        </mxCell>
        <mxCell id="QKKoRjnMVttNz9pZIT6n-77" value="&lt;div&gt;bfo:has &lt;br&gt;&lt;/div&gt;&lt;div&gt;part&lt;/div&gt;" style="edgeLabel;html=1;align=center;verticalAlign=middle;resizable=0;points=[];fontColor=#000000;" connectable="0" vertex="1" parent="QKKoRjnMVttNz9pZIT6n-76">
          <mxGeometry x="-0.2064" y="1" relative="1" as="geometry">
            <mxPoint as="offset" />
          </mxGeometry>
        </mxCell>
        <mxCell id="QKKoRjnMVttNz9pZIT6n-89" value="&lt;div&gt;obi:material &lt;br&gt;&lt;/div&gt;&lt;div&gt;sample role&lt;/div&gt;" style="rounded=0;whiteSpace=wrap;html=1;fillColor=#d5e8d4;strokeColor=#82b366;" vertex="1" parent="1">
          <mxGeometry x="1634" y="-5004" width="105" height="40" as="geometry" />
        </mxCell>
        <mxCell id="QKKoRjnMVttNz9pZIT6n-90" style="rounded=0;orthogonalLoop=1;jettySize=auto;html=1;strokeColor=#000000;fontColor=#000000;exitX=-0.01;exitY=0.644;exitDx=0;exitDy=0;exitPerimeter=0;entryX=1;entryY=0.25;entryDx=0;entryDy=0;" edge="1" parent="1" source="QKKoRjnMVttNz9pZIT6n-1" target="QKKoRjnMVttNz9pZIT6n-34">
          <mxGeometry relative="1" as="geometry">
            <mxPoint x="900" y="-4775" as="sourcePoint" />
            <mxPoint x="810.3" y="-4777" as="targetPoint" />
            <Array as="points" />
          </mxGeometry>
        </mxCell>
        <mxCell id="QKKoRjnMVttNz9pZIT6n-91" value="stato:executes" style="edgeLabel;html=1;align=center;verticalAlign=middle;resizable=0;points=[];fontColor=#000000;" connectable="0" vertex="1" parent="QKKoRjnMVttNz9pZIT6n-90">
          <mxGeometry x="-0.2313" y="-1" relative="1" as="geometry">
            <mxPoint x="64" y="-28" as="offset" />
          </mxGeometry>
        </mxCell>
        <mxCell id="QKKoRjnMVttNz9pZIT6n-98" value="&lt;span class=&quot;text-2xl mr-3&quot;&gt;foodon:device specification&lt;/span&gt;" style="text;whiteSpace=wrap;html=1;fillColor=#dae8fc;strokeColor=#6c8ebf;align=center;verticalAlign=middle;" vertex="1" parent="1">
          <mxGeometry x="287" y="-4615" width="105" height="60" as="geometry" />
        </mxCell>
        <mxCell id="QKKoRjnMVttNz9pZIT6n-101" style="rounded=0;orthogonalLoop=1;jettySize=auto;html=1;jumpStyle=arc;fontColor=#000000;strokeColor=#000000;" edge="1" parent="1" source="QKKoRjnMVttNz9pZIT6n-98" target="QKKoRjnMVttNz9pZIT6n-13">
          <mxGeometry relative="1" as="geometry">
            <mxPoint x="496" y="-4677" as="sourcePoint" />
            <mxPoint x="496" y="-4751" as="targetPoint" />
            <Array as="points" />
          </mxGeometry>
        </mxCell>
        <mxCell id="QKKoRjnMVttNz9pZIT6n-102" value="&lt;div&gt;bfo:has &lt;br&gt;&lt;/div&gt;&lt;div&gt;part&lt;/div&gt;" style="edgeLabel;html=1;align=center;verticalAlign=middle;resizable=0;points=[];fontColor=#000000;" connectable="0" vertex="1" parent="QKKoRjnMVttNz9pZIT6n-101">
          <mxGeometry x="-0.2064" y="1" relative="1" as="geometry">
            <mxPoint y="-4" as="offset" />
          </mxGeometry>
        </mxCell>
        <mxCell id="QKKoRjnMVttNz9pZIT6n-103" style="rounded=0;orthogonalLoop=1;jettySize=auto;html=1;fontColor=#000000;strokeColor=#000000;" edge="1" parent="1" source="QKKoRjnMVttNz9pZIT6n-56" target="QKKoRjnMVttNz9pZIT6n-1">
          <mxGeometry relative="1" as="geometry">
            <mxPoint x="930.72" y="-4506" as="targetPoint" />
            <mxPoint x="1178.72" y="-4743" as="sourcePoint" />
          </mxGeometry>
        </mxCell>
        <mxCell id="QKKoRjnMVttNz9pZIT6n-104" value="bfo:precedes" style="edgeLabel;html=1;align=center;verticalAlign=middle;resizable=0;points=[];fontColor=#000000;" connectable="0" vertex="1" parent="QKKoRjnMVttNz9pZIT6n-103">
          <mxGeometry x="-0.44" y="2" relative="1" as="geometry">
            <mxPoint x="-10" y="2" as="offset" />
          </mxGeometry>
        </mxCell>
        <mxCell id="QKKoRjnMVttNz9pZIT6n-105" value="&lt;font style=&quot;font-size: 12px;&quot;&gt;pato:physical quality&lt;/font&gt;" style="rounded=0;whiteSpace=wrap;html=1;glass=0;fillColor=#f5f5f5;fontStyle=0;fontSize=14;shadow=0;strokeColor=#666666;strokeWidth=1;fontColor=#333333;fontFamily=Helvetica;" vertex="1" parent="1">
          <mxGeometry x="428.50000000000006" y="-5294" width="123.5" height="40" as="geometry" />
        </mxCell>
        <mxCell id="QKKoRjnMVttNz9pZIT6n-114" style="rounded=0;orthogonalLoop=1;jettySize=auto;html=1;jumpStyle=arc;" edge="1" parent="1" source="QKKoRjnMVttNz9pZIT6n-98" target="QKKoRjnMVttNz9pZIT6n-5">
          <mxGeometry relative="1" as="geometry">
            <mxPoint x="552" y="-4791" as="sourcePoint" />
            <mxPoint x="938" y="-4791" as="targetPoint" />
            <Array as="points" />
          </mxGeometry>
        </mxCell>
        <mxCell id="QKKoRjnMVttNz9pZIT6n-115" value="iao:is about" style="edgeLabel;html=1;align=center;verticalAlign=middle;resizable=0;points=[];" connectable="0" vertex="1" parent="QKKoRjnMVttNz9pZIT6n-114">
          <mxGeometry x="0.2301" y="-2" relative="1" as="geometry">
            <mxPoint x="-396" y="165" as="offset" />
          </mxGeometry>
        </mxCell>
        <mxCell id="QKKoRjnMVttNz9pZIT6n-117" value="&lt;div&gt;obi:value&lt;/div&gt;&lt;div&gt;specification&lt;/div&gt;" style="rounded=0;whiteSpace=wrap;html=1;fontSize=12;fontFamily=Helvetica;fillColor=#dae8fc;strokeColor=#6c8ebf;strokeWidth=1;" vertex="1" parent="1">
          <mxGeometry x="43" y="-5294" width="105" height="40" as="geometry" />
        </mxCell>
        <mxCell id="QKKoRjnMVttNz9pZIT6n-118" style="rounded=0;orthogonalLoop=1;jettySize=auto;html=1;jumpStyle=arc;" edge="1" parent="1" source="QKKoRjnMVttNz9pZIT6n-117" target="QKKoRjnMVttNz9pZIT6n-105">
          <mxGeometry relative="1" as="geometry">
            <mxPoint x="1224" y="-5762" as="targetPoint" />
            <mxPoint x="1342" y="-5445" as="sourcePoint" />
          </mxGeometry>
        </mxCell>
        <mxCell id="QKKoRjnMVttNz9pZIT6n-119" value="&lt;div style=&quot;font-size: 11px;&quot;&gt;&lt;font style=&quot;font-size: 11px;&quot;&gt;obi:specifies&lt;/font&gt;&lt;/div&gt;&lt;div style=&quot;font-size: 11px;&quot;&gt;&lt;font style=&quot;font-size: 11px;&quot;&gt;value of&lt;/font&gt;&lt;/div&gt;" style="edgeLabel;html=1;align=center;verticalAlign=middle;resizable=0;points=[];fontSize=11;" connectable="0" vertex="1" parent="QKKoRjnMVttNz9pZIT6n-118">
          <mxGeometry x="-0.261" y="2" relative="1" as="geometry">
            <mxPoint x="6" y="2" as="offset" />
          </mxGeometry>
        </mxCell>
        <mxCell id="QKKoRjnMVttNz9pZIT6n-120" style="rounded=0;orthogonalLoop=1;jettySize=auto;html=1;jumpStyle=arc;fontColor=#000000;strokeColor=#000000;entryX=0.5;entryY=1;entryDx=0;entryDy=0;" edge="1" parent="1" source="QKKoRjnMVttNz9pZIT6n-117" target="QKKoRjnMVttNz9pZIT6n-122">
          <mxGeometry relative="1" as="geometry">
            <mxPoint x="754" y="-4775" as="sourcePoint" />
            <mxPoint x="1132" y="-5161" as="targetPoint" />
            <Array as="points" />
          </mxGeometry>
        </mxCell>
        <mxCell id="QKKoRjnMVttNz9pZIT6n-121" value="&lt;div&gt;bfo:has &lt;br&gt;&lt;/div&gt;&lt;div&gt;part&lt;/div&gt;" style="edgeLabel;html=1;align=center;verticalAlign=middle;resizable=0;points=[];fontColor=#000000;" connectable="0" vertex="1" parent="QKKoRjnMVttNz9pZIT6n-120">
          <mxGeometry x="-0.2064" y="1" relative="1" as="geometry">
            <mxPoint x="1" as="offset" />
          </mxGeometry>
        </mxCell>
        <mxCell id="QKKoRjnMVttNz9pZIT6n-122" value="uo:unit" style="rounded=0;whiteSpace=wrap;html=1;fontSize=12;fontFamily=Helvetica;fillColor=#dae8fc;strokeColor=#6c8ebf;strokeWidth=1;" vertex="1" parent="1">
          <mxGeometry x="42.99999999999994" y="-5399" width="105" height="40" as="geometry" />
        </mxCell>
        <mxCell id="QKKoRjnMVttNz9pZIT6n-123" style="edgeStyle=none;rounded=0;jumpStyle=arc;orthogonalLoop=1;jettySize=auto;html=1;fontSize=14;" edge="1" parent="1" source="QKKoRjnMVttNz9pZIT6n-117" target="QKKoRjnMVttNz9pZIT6n-125">
          <mxGeometry relative="1" as="geometry">
            <mxPoint x="1316" y="-5320" as="sourcePoint" />
            <mxPoint x="1353" y="-5120" as="targetPoint" />
          </mxGeometry>
        </mxCell>
        <mxCell id="QKKoRjnMVttNz9pZIT6n-124" value="&lt;div style=&quot;font-size: 11px;&quot;&gt;obi:has&lt;/div&gt;&lt;div style=&quot;font-size: 11px;&quot;&gt;specified value&lt;/div&gt;" style="edgeLabel;html=1;align=center;verticalAlign=middle;resizable=0;points=[];fontSize=11;" connectable="0" vertex="1" parent="QKKoRjnMVttNz9pZIT6n-123">
          <mxGeometry x="-0.3129" y="-2" relative="1" as="geometry">
            <mxPoint x="4" y="-8" as="offset" />
          </mxGeometry>
        </mxCell>
        <mxCell id="QKKoRjnMVttNz9pZIT6n-125" value="rdfs:Literal" style="rounded=0;whiteSpace=wrap;html=1;strokeColor=#00FF00;strokeWidth=2;fontSize=12;" vertex="1" parent="1">
          <mxGeometry x="244.5" y="-5399" width="105" height="40" as="geometry" />
        </mxCell>
        <mxCell id="QKKoRjnMVttNz9pZIT6n-130" style="rounded=0;orthogonalLoop=1;jettySize=auto;html=1;jumpStyle=arc;fontColor=#000000;strokeColor=#000000;entryX=0.5;entryY=0;entryDx=0;entryDy=0;exitX=0.25;exitY=1;exitDx=0;exitDy=0;" edge="1" parent="1" source="QKKoRjnMVttNz9pZIT6n-1" target="QKKoRjnMVttNz9pZIT6n-21">
          <mxGeometry relative="1" as="geometry">
            <mxPoint x="977.72" y="-4815" as="sourcePoint" />
            <mxPoint x="977.72" y="-4945" as="targetPoint" />
            <Array as="points" />
          </mxGeometry>
        </mxCell>
        <mxCell id="QKKoRjnMVttNz9pZIT6n-131" value="&lt;div&gt;bfo:has &lt;br&gt;&lt;/div&gt;&lt;div&gt;part&lt;/div&gt;" style="edgeLabel;html=1;align=center;verticalAlign=middle;resizable=0;points=[];fontColor=#000000;" connectable="0" vertex="1" parent="QKKoRjnMVttNz9pZIT6n-130">
          <mxGeometry x="-0.2064" y="1" relative="1" as="geometry">
            <mxPoint x="6" y="-5" as="offset" />
          </mxGeometry>
        </mxCell>
        <mxCell id="qPUqY0fuj3WnYDfDUJOC-1" style="rounded=0;orthogonalLoop=1;jettySize=auto;html=1;jumpStyle=arc;strokeColor=#000000;fontColor=#000000;" edge="1" parent="1" source="QKKoRjnMVttNz9pZIT6n-24" target="QKKoRjnMVttNz9pZIT6n-18">
          <mxGeometry relative="1" as="geometry">
            <mxPoint x="1264.72" y="-4619" as="sourcePoint" />
            <mxPoint x="1465.72" y="-4674" as="targetPoint" />
            <Array as="points" />
          </mxGeometry>
        </mxCell>
        <mxCell id="qPUqY0fuj3WnYDfDUJOC-2" value="&lt;div&gt;iao:is about&lt;/div&gt;" style="edgeLabel;html=1;align=center;verticalAlign=middle;resizable=0;points=[];fontColor=#000000;" connectable="0" vertex="1" parent="qPUqY0fuj3WnYDfDUJOC-1">
          <mxGeometry x="0.2301" y="-2" relative="1" as="geometry">
            <mxPoint x="-16" y="54" as="offset" />
          </mxGeometry>
        </mxCell>
        <mxCell id="qPUqY0fuj3WnYDfDUJOC-3" value="&lt;font style=&quot;font-size: 12px;&quot;&gt;vibso:&lt;br style=&quot;font-size: 12px;&quot;&gt;&lt;/font&gt;&lt;div style=&quot;font-size: 12px;&quot;&gt;&lt;font style=&quot;font-size: 12px;&quot;&gt;&lt;span style=&quot;color: rgb(0, 0, 0); font-weight: normal; text-decoration: none; font-style: normal; text-decoration-skip-ink: none; font-size: 12px;&quot;&gt;diffraction grating&lt;br style=&quot;font-size: 12px;&quot;&gt;&lt;/span&gt;&lt;/font&gt;&lt;/div&gt;&lt;div style=&quot;font-size: 12px;&quot;&gt;&lt;font style=&quot;font-size: 12px;&quot;&gt;&lt;span style=&quot;color: rgb(0, 0, 0); font-weight: normal; text-decoration: none; font-style: normal; text-decoration-skip-ink: none; font-size: 12px;&quot;&gt;&lt;/span&gt;&lt;/font&gt;&lt;/div&gt;" style="rounded=0;whiteSpace=wrap;html=1;glass=0;fillColor=#fff2cc;fontStyle=0;fontSize=12;shadow=0;strokeColor=#FF0000;strokeWidth=2;fontFamily=Helvetica;" vertex="1" parent="1">
          <mxGeometry x="990" y="-5169" width="105" height="40" as="geometry" />
        </mxCell>
        <mxCell id="qPUqY0fuj3WnYDfDUJOC-5" style="rounded=0;orthogonalLoop=1;jettySize=auto;html=1;jumpStyle=arc;fontColor=#000000;strokeColor=#000000;" edge="1" parent="1" source="QKKoRjnMVttNz9pZIT6n-5" target="qPUqY0fuj3WnYDfDUJOC-3">
          <mxGeometry relative="1" as="geometry">
            <mxPoint x="758" y="-4789" as="sourcePoint" />
            <mxPoint x="758" y="-4915" as="targetPoint" />
            <Array as="points" />
          </mxGeometry>
        </mxCell>
        <mxCell id="qPUqY0fuj3WnYDfDUJOC-6" value="&lt;div&gt;bfo:has &lt;br&gt;&lt;/div&gt;&lt;div&gt;part&lt;/div&gt;" style="edgeLabel;html=1;align=center;verticalAlign=middle;resizable=0;points=[];fontColor=#000000;" connectable="0" vertex="1" parent="qPUqY0fuj3WnYDfDUJOC-5">
          <mxGeometry x="-0.2064" y="1" relative="1" as="geometry">
            <mxPoint x="4" y="7" as="offset" />
          </mxGeometry>
        </mxCell>
        <mxCell id="qPUqY0fuj3WnYDfDUJOC-7" value="" style="group" vertex="1" connectable="0" parent="1">
          <mxGeometry x="1595" y="-5428.370604147881" width="224" height="194.37060414788084" as="geometry" />
        </mxCell>
        <mxCell id="-qVNJrEobh2uuxl9ESg2-179" value="" style="endArrow=classic;html=1;dashed=1;strokeColor=#000000;strokeWidth=2;fontSize=11;" parent="qPUqY0fuj3WnYDfDUJOC-7" edge="1">
          <mxGeometry width="50" height="50" relative="1" as="geometry">
            <mxPoint y="49.176735798016125" as="sourcePoint" />
            <mxPoint x="33" y="49.01899909828626" as="targetPoint" />
          </mxGeometry>
        </mxCell>
        <mxCell id="-qVNJrEobh2uuxl9ESg2-180" value="- rdfs:subclassOf" style="text;html=1;strokeColor=none;fillColor=none;align=left;verticalAlign=middle;whiteSpace=wrap;rounded=0;fontSize=11;" parent="qPUqY0fuj3WnYDfDUJOC-7" vertex="1">
          <mxGeometry x="37.5" y="42.68169522091921" width="96" height="12.990081154192968" as="geometry" />
        </mxCell>
        <mxCell id="-qVNJrEobh2uuxl9ESg2-182" value="&lt;div style=&quot;font-size: 11px;&quot;&gt;&lt;br style=&quot;font-size: 11px;&quot;&gt;&lt;/div&gt;" style="rounded=0;whiteSpace=wrap;html=1;glass=0;fillColor=#dae8fc;fontStyle=1;fontSize=11;shadow=0;strokeColor=#6c8ebf;strokeWidth=2;" parent="qPUqY0fuj3WnYDfDUJOC-7" vertex="1">
          <mxGeometry x="1.5" y="58.20919747520293" width="31" height="11.134355275022543" as="geometry" />
        </mxCell>
        <mxCell id="-qVNJrEobh2uuxl9ESg2-183" value="&lt;div style=&quot;font-size: 11px;&quot;&gt;- &lt;a style=&quot;font-size: 11px;&quot; href=&quot;http://purl.obolibrary.org/obo/IAO_0000030&quot;&gt;iao:information content entity&lt;/a&gt;&lt;br style=&quot;font-size: 11px;&quot;&gt;&lt;/div&gt;&lt;div style=&quot;font-size: 11px;&quot;&gt;&lt;/div&gt;" style="text;html=1;strokeColor=none;fillColor=none;align=center;verticalAlign=middle;whiteSpace=wrap;rounded=0;fontSize=11;" parent="qPUqY0fuj3WnYDfDUJOC-7" vertex="1">
          <mxGeometry x="37.5" y="57.281334535617134" width="165.5" height="12.990081154192968" as="geometry" />
        </mxCell>
        <mxCell id="-qVNJrEobh2uuxl9ESg2-185" value="&lt;div style=&quot;font-size: 11px;&quot;&gt;&lt;br style=&quot;font-size: 11px;&quot;&gt;&lt;/div&gt;" style="rounded=0;whiteSpace=wrap;html=1;glass=0;fillColor=#f8cecc;fontStyle=1;fontSize=11;shadow=0;strokeColor=#b85450;strokeWidth=2;" parent="qPUqY0fuj3WnYDfDUJOC-7" vertex="1">
          <mxGeometry x="1.5" y="76.76645626690697" width="31" height="11.134355275022543" as="geometry" />
        </mxCell>
        <mxCell id="-qVNJrEobh2uuxl9ESg2-186" value="&lt;div style=&quot;font-size: 11px;&quot;&gt;- &lt;a style=&quot;font-size: 11px;&quot; class=&quot;jstree-anchor  jstree-clicked is_a&quot; href=&quot;https://www.ebi.ac.uk/ols/ontologies/ido/terms?iri=http%3A%2F%2Fpurl.obolibrary.org%2Fobo%2FBFO_0000003&amp;amp;lang=en&amp;amp;viewMode=All&amp;amp;siblings=false#&quot; tabindex=&quot;-1&quot; title=&quot;http://purl.obolibrary.org/obo/BFO_0000003&quot; id=&quot;3785713_1_anchor&quot;&gt;bfo:occurrent&lt;/a&gt;&lt;/div&gt;" style="text;html=1;strokeColor=none;fillColor=none;align=left;verticalAlign=middle;whiteSpace=wrap;rounded=0;fontSize=11;" parent="qPUqY0fuj3WnYDfDUJOC-7" vertex="1">
          <mxGeometry x="37.5" y="75.83859332732209" width="122.5" height="12.990081154192968" as="geometry" />
        </mxCell>
        <mxCell id="-qVNJrEobh2uuxl9ESg2-187" value="&lt;div style=&quot;font-size: 11px;&quot;&gt;&lt;br style=&quot;font-size: 11px;&quot;&gt;&lt;/div&gt;" style="rounded=0;whiteSpace=wrap;html=1;glass=0;fillColor=#fff2cc;fontStyle=1;fontSize=11;shadow=0;strokeColor=#d6b656;strokeWidth=2;" parent="qPUqY0fuj3WnYDfDUJOC-7" vertex="1">
          <mxGeometry x="1.5" y="96.25157799819681" width="31" height="11.134355275022543" as="geometry" />
        </mxCell>
        <mxCell id="-qVNJrEobh2uuxl9ESg2-188" value="&lt;div style=&quot;font-size: 11px;&quot;&gt;&lt;span style=&quot;font-size: 11px;&quot;&gt;&lt;font style=&quot;font-size: 11px;&quot;&gt;- &lt;/font&gt;&lt;/span&gt;&lt;a style=&quot;font-size: 11px;&quot; href=&quot;http://purl.obolibrary.org/obo/BFO_0000040&quot;&gt;bfo:material entity&lt;/a&gt;&lt;span style=&quot;font-size: 11px;&quot;&gt;&lt;/span&gt;&lt;span style=&quot;font-size: 11px;&quot;&gt;&lt;/span&gt;&lt;/div&gt;&lt;div style=&quot;font-size: 11px;&quot;&gt;&lt;/div&gt;" style="text;html=1;strokeColor=none;fillColor=none;align=center;verticalAlign=middle;whiteSpace=wrap;rounded=0;fontSize=11;" parent="qPUqY0fuj3WnYDfDUJOC-7" vertex="1">
          <mxGeometry x="37.5" y="95.32371505861101" width="105.5" height="12.990081154192968" as="geometry" />
        </mxCell>
        <mxCell id="-qVNJrEobh2uuxl9ESg2-189" value="&lt;div style=&quot;font-size: 11px;&quot;&gt;&lt;br style=&quot;font-size: 11px;&quot;&gt;&lt;/div&gt;" style="rounded=0;whiteSpace=wrap;html=1;glass=0;fillColor=#d5e8d4;fontStyle=1;fontSize=11;shadow=0;strokeColor=#82b366;strokeWidth=2;" parent="qPUqY0fuj3WnYDfDUJOC-7" vertex="1">
          <mxGeometry x="1.5" y="117.59242560865641" width="31" height="11.134355275022543" as="geometry" />
        </mxCell>
        <mxCell id="-qVNJrEobh2uuxl9ESg2-190" value="&lt;div style=&quot;font-size: 11px;&quot;&gt;&lt;span style=&quot;font-size: 11px;&quot;&gt;&lt;font style=&quot;font-size: 11px;&quot;&gt;- &lt;/font&gt;&lt;/span&gt;&lt;font style=&quot;font-size: 11px;&quot;&gt;&lt;a style=&quot;font-size: 11px;&quot; href=&quot;http://purl.obolibrary.org/obo/BFO_0000017&quot;&gt;&lt;font style=&quot;font-size: 11px;&quot;&gt;bfo:realizable entity&lt;/font&gt;&lt;/a&gt;&lt;/font&gt;&lt;span style=&quot;font-size: 11px;&quot;&gt;&lt;/span&gt;&lt;span style=&quot;font-size: 11px;&quot;&gt;&lt;/span&gt;&lt;/div&gt;&lt;div style=&quot;font-size: 11px;&quot;&gt;&lt;/div&gt;" style="text;html=1;strokeColor=none;fillColor=none;align=center;verticalAlign=middle;whiteSpace=wrap;rounded=0;fontSize=11;" parent="qPUqY0fuj3WnYDfDUJOC-7" vertex="1">
          <mxGeometry x="37.5" y="116.66456266907153" width="114.5" height="12.990081154192968" as="geometry" />
        </mxCell>
        <mxCell id="-qVNJrEobh2uuxl9ESg2-191" value="" style="rounded=0;whiteSpace=wrap;html=1;fontSize=11;strokeColor=#FF0000;strokeWidth=2;" parent="qPUqY0fuj3WnYDfDUJOC-7" vertex="1">
          <mxGeometry x="2" y="161.20198376916142" width="31" height="11.134355275022543" as="geometry" />
        </mxCell>
        <mxCell id="-qVNJrEobh2uuxl9ESg2-192" value="- term in VIBSO" style="text;html=1;strokeColor=none;fillColor=none;align=left;verticalAlign=middle;whiteSpace=wrap;rounded=0;fontSize=11;" parent="qPUqY0fuj3WnYDfDUJOC-7" vertex="1">
          <mxGeometry x="37.5" y="160.34625788999074" width="186.5" height="12.990081154192968" as="geometry" />
        </mxCell>
        <mxCell id="-qVNJrEobh2uuxl9ESg2-195" value="&lt;div style=&quot;font-size: 11px;&quot;&gt;&lt;br style=&quot;font-size: 11px;&quot;&gt;&lt;/div&gt;" style="rounded=0;whiteSpace=wrap;html=1;glass=0;fillColor=#f5f5f5;fontStyle=1;fontSize=11;shadow=0;strokeColor=#666666;strokeWidth=2;fontColor=#333333;" parent="qPUqY0fuj3WnYDfDUJOC-7" vertex="1">
          <mxGeometry x="2" y="138.93327321911602" width="31" height="11.134355275022543" as="geometry" />
        </mxCell>
        <mxCell id="-qVNJrEobh2uuxl9ESg2-196" value="- &lt;a style=&quot;font-size: 11px;&quot; href=&quot;http://purl.obolibrary.org/obo/BFO_0000019&quot;&gt;bfo:quality&lt;/a&gt;" style="text;html=1;strokeColor=none;fillColor=none;align=center;verticalAlign=middle;whiteSpace=wrap;rounded=0;fontSize=11;" parent="qPUqY0fuj3WnYDfDUJOC-7" vertex="1">
          <mxGeometry x="37" y="137.00541027953113" width="67" height="12.990081154192968" as="geometry" />
        </mxCell>
        <mxCell id="5XHmPhQ1afuUtzLrEp4E-2" value="&lt;div style=&quot;font-size: 11px;&quot;&gt;&lt;br style=&quot;font-size: 11px;&quot;&gt;&lt;/div&gt;" style="rounded=0;whiteSpace=wrap;html=1;glass=0;fillColor=#e1d5e7;fontStyle=1;fontSize=11;shadow=0;strokeColor=#9673a6;strokeWidth=2;" parent="qPUqY0fuj3WnYDfDUJOC-7" vertex="1">
          <mxGeometry x="2" y="182.3032732191159" width="31" height="11.134355275022543" as="geometry" />
        </mxCell>
        <mxCell id="5XHmPhQ1afuUtzLrEp4E-3" value="- &lt;a href=&quot;http://purl.obolibrary.org/obo/BFO_0000019&quot; style=&quot;font-size: 11px;&quot;&gt;owl:NamedIndividual&lt;/a&gt;" style="text;html=1;strokeColor=none;fillColor=none;align=center;verticalAlign=middle;whiteSpace=wrap;rounded=0;fontSize=11;" parent="qPUqY0fuj3WnYDfDUJOC-7" vertex="1">
          <mxGeometry x="37" y="181.37060414788084" width="122" height="13" as="geometry" />
        </mxCell>
        <mxCell id="qPUqY0fuj3WnYDfDUJOC-8" value="vibso:&lt;div style=&quot;font-size: 12px;&quot;&gt;&lt;span style=&quot;font-size: 12px; color: rgb(0, 0, 0); text-decoration: none; font-style: normal; text-decoration-skip-ink: none;&quot;&gt;groove density&lt;/span&gt;&lt;/div&gt;" style="rounded=0;whiteSpace=wrap;html=1;glass=0;fillColor=#f5f5f5;fontStyle=0;fontSize=12;shadow=0;strokeColor=#FF0000;strokeWidth=2;fontColor=#333333;fontFamily=Helvetica;" vertex="1" parent="1">
          <mxGeometry x="720" y="-5234" width="105" height="40" as="geometry" />
        </mxCell>
        <mxCell id="qPUqY0fuj3WnYDfDUJOC-9" style="rounded=0;orthogonalLoop=1;jettySize=auto;html=1;fontSize=14;" edge="1" parent="1" source="qPUqY0fuj3WnYDfDUJOC-8" target="qPUqY0fuj3WnYDfDUJOC-3">
          <mxGeometry relative="1" as="geometry">
            <mxPoint x="977.58" y="-4926" as="sourcePoint" />
            <mxPoint x="1097.5800000000002" y="-4924" as="targetPoint" />
          </mxGeometry>
        </mxCell>
        <mxCell id="qPUqY0fuj3WnYDfDUJOC-10" value="&lt;div style=&quot;font-size: 11px;&quot;&gt;ro:quality of&lt;/div&gt;" style="edgeLabel;html=1;align=center;verticalAlign=middle;resizable=0;points=[];fontSize=14;" connectable="0" vertex="1" parent="qPUqY0fuj3WnYDfDUJOC-9">
          <mxGeometry x="-0.1652" y="3" relative="1" as="geometry">
            <mxPoint x="-2" y="3" as="offset" />
          </mxGeometry>
        </mxCell>
        <mxCell id="qPUqY0fuj3WnYDfDUJOC-11" value="pato:wavelength" style="rounded=0;whiteSpace=wrap;html=1;glass=0;fillColor=#f5f5f5;fontStyle=0;fontSize=12;shadow=0;strokeColor=#666666;strokeWidth=1;fontColor=#333333;fontFamily=Helvetica;" vertex="1" parent="1">
          <mxGeometry x="625" y="-5176.5" width="105" height="40" as="geometry" />
        </mxCell>
        <mxCell id="qPUqY0fuj3WnYDfDUJOC-12" value="pato:temperature" style="rounded=0;whiteSpace=wrap;html=1;glass=0;fillColor=#f5f5f5;fontStyle=0;fontSize=12;shadow=0;strokeColor=#666666;strokeWidth=1;fontColor=#333333;fontFamily=Helvetica;" vertex="1" parent="1">
          <mxGeometry x="437.75000000000006" y="-5049.5" width="105" height="40" as="geometry" />
        </mxCell>
        <mxCell id="qPUqY0fuj3WnYDfDUJOC-15" value="obi:laser" style="rounded=0;whiteSpace=wrap;html=1;fillColor=#fff2cc;strokeColor=#d6b656;" vertex="1" parent="1">
          <mxGeometry x="950" y="-5079" width="105" height="40" as="geometry" />
        </mxCell>
        <mxCell id="qPUqY0fuj3WnYDfDUJOC-16" style="rounded=0;orthogonalLoop=1;jettySize=auto;html=1;jumpStyle=arc;fontColor=#000000;strokeColor=#000000;" edge="1" parent="1" source="QKKoRjnMVttNz9pZIT6n-5" target="qPUqY0fuj3WnYDfDUJOC-15">
          <mxGeometry relative="1" as="geometry">
            <mxPoint x="1002" y="-4943" as="sourcePoint" />
            <mxPoint x="1046" y="-5040" as="targetPoint" />
            <Array as="points" />
          </mxGeometry>
        </mxCell>
        <mxCell id="qPUqY0fuj3WnYDfDUJOC-17" value="&lt;div&gt;bfo:has &lt;br&gt;&lt;/div&gt;&lt;div&gt;part&lt;/div&gt;" style="edgeLabel;html=1;align=center;verticalAlign=middle;resizable=0;points=[];fontColor=#000000;" connectable="0" vertex="1" parent="qPUqY0fuj3WnYDfDUJOC-16">
          <mxGeometry x="-0.2064" y="1" relative="1" as="geometry">
            <mxPoint x="4" y="7" as="offset" />
          </mxGeometry>
        </mxCell>
        <mxCell id="qPUqY0fuj3WnYDfDUJOC-18" style="rounded=0;orthogonalLoop=1;jettySize=auto;html=1;fontSize=14;" edge="1" parent="1" source="qPUqY0fuj3WnYDfDUJOC-12" target="QKKoRjnMVttNz9pZIT6n-5">
          <mxGeometry relative="1" as="geometry">
            <mxPoint x="1127" y="-5118" as="sourcePoint" />
            <mxPoint x="1098" y="-5080" as="targetPoint" />
          </mxGeometry>
        </mxCell>
        <mxCell id="qPUqY0fuj3WnYDfDUJOC-19" value="&lt;div style=&quot;font-size: 11px;&quot;&gt;ro:quality of&lt;/div&gt;" style="edgeLabel;html=1;align=center;verticalAlign=middle;resizable=0;points=[];fontSize=14;" connectable="0" vertex="1" parent="qPUqY0fuj3WnYDfDUJOC-18">
          <mxGeometry x="-0.1652" y="3" relative="1" as="geometry">
            <mxPoint x="84" y="12" as="offset" />
          </mxGeometry>
        </mxCell>
        <mxCell id="qPUqY0fuj3WnYDfDUJOC-20" style="rounded=0;orthogonalLoop=1;jettySize=auto;html=1;fontSize=14;" edge="1" parent="1" source="qPUqY0fuj3WnYDfDUJOC-11" target="qPUqY0fuj3WnYDfDUJOC-15">
          <mxGeometry relative="1" as="geometry">
            <mxPoint x="944.5799999999999" y="-5181" as="sourcePoint" />
            <mxPoint x="1134.5800000000002" y="-4934" as="targetPoint" />
          </mxGeometry>
        </mxCell>
        <mxCell id="qPUqY0fuj3WnYDfDUJOC-21" value="&lt;div style=&quot;font-size: 11px;&quot;&gt;ro:quality of&lt;/div&gt;" style="edgeLabel;html=1;align=center;verticalAlign=middle;resizable=0;points=[];fontSize=14;" connectable="0" vertex="1" parent="qPUqY0fuj3WnYDfDUJOC-20">
          <mxGeometry x="-0.1652" y="3" relative="1" as="geometry">
            <mxPoint x="73" y="21" as="offset" />
          </mxGeometry>
        </mxCell>
        <mxCell id="qPUqY0fuj3WnYDfDUJOC-26" value="&lt;div style=&quot;font-size: 12px;&quot;&gt;&lt;span style=&quot;font-size: 12px; color: rgb(0, 0, 0); font-weight: normal; text-decoration: none; font-style: normal; text-decoration-skip-ink: none;&quot;&gt;vibso:groove density setting&lt;br style=&quot;font-size: 12px;&quot;&gt;&lt;/span&gt;&lt;/div&gt;" style="rounded=0;whiteSpace=wrap;html=1;fontSize=12;fontFamily=Helvetica;fillColor=#dae8fc;strokeColor=#FF0000;strokeWidth=2;" vertex="1" parent="1">
          <mxGeometry x="208" y="-5236.5" width="110" height="45" as="geometry" />
        </mxCell>
        <mxCell id="qPUqY0fuj3WnYDfDUJOC-27" value="" style="endArrow=classic;html=1;dashed=1;strokeColor=#000000;strokeWidth=2;fontSize=14;fontFamily=Helvetica;edgeStyle=entityRelationEdgeStyle;opacity=50;" edge="1" parent="1" source="qPUqY0fuj3WnYDfDUJOC-26" target="QKKoRjnMVttNz9pZIT6n-13">
          <mxGeometry width="50" height="50" relative="1" as="geometry">
            <mxPoint x="426" y="-5283" as="sourcePoint" />
            <mxPoint x="312" y="-5259" as="targetPoint" />
          </mxGeometry>
        </mxCell>
        <mxCell id="M2NuF1pntOAMJRWihoIL-4" style="rounded=0;orthogonalLoop=1;jettySize=auto;html=1;jumpStyle=arc;fontColor=#000000;strokeColor=#000000;" edge="1" parent="1" source="-qVNJrEobh2uuxl9ESg2-43" target="-qVNJrEobh2uuxl9ESg2-97">
          <mxGeometry relative="1" as="geometry">
            <mxPoint x="991" y="-4943" as="sourcePoint" />
            <mxPoint x="981" y="-5040" as="targetPoint" />
            <Array as="points" />
          </mxGeometry>
        </mxCell>
        <mxCell id="M2NuF1pntOAMJRWihoIL-5" value="&lt;div&gt;bfo:has &lt;br&gt;&lt;/div&gt;&lt;div&gt;part&lt;/div&gt;" style="edgeLabel;html=1;align=center;verticalAlign=middle;resizable=0;points=[];fontColor=#000000;" connectable="0" vertex="1" parent="M2NuF1pntOAMJRWihoIL-4">
          <mxGeometry x="-0.2064" y="1" relative="1" as="geometry">
            <mxPoint x="4" y="7" as="offset" />
          </mxGeometry>
        </mxCell>
        <mxCell id="M2NuF1pntOAMJRWihoIL-7" value="" style="endArrow=classic;html=1;dashed=1;strokeColor=#000000;strokeWidth=2;fontSize=14;fontFamily=Helvetica;opacity=50;entryX=1;entryY=0.5;entryDx=0;entryDy=0;" edge="1" parent="1" source="qPUqY0fuj3WnYDfDUJOC-8" target="QKKoRjnMVttNz9pZIT6n-105">
          <mxGeometry width="50" height="50" relative="1" as="geometry">
            <mxPoint x="562.5799999999999" y="-4959" as="sourcePoint" />
            <mxPoint x="480.5799999999999" y="-4865" as="targetPoint" />
            <Array as="points">
              <mxPoint x="566" y="-5274" />
            </Array>
          </mxGeometry>
        </mxCell>
        <mxCell id="M2NuF1pntOAMJRWihoIL-8" value="" style="endArrow=classic;html=1;dashed=1;strokeColor=#000000;strokeWidth=2;fontSize=14;fontFamily=Helvetica;opacity=50;entryX=1;entryY=0.5;entryDx=0;entryDy=0;" edge="1" parent="1" source="qPUqY0fuj3WnYDfDUJOC-11" target="QKKoRjnMVttNz9pZIT6n-105">
          <mxGeometry width="50" height="50" relative="1" as="geometry">
            <mxPoint x="687.5799999999999" y="-5071" as="sourcePoint" />
            <mxPoint x="652.5799999999999" y="-5189" as="targetPoint" />
            <Array as="points">
              <mxPoint x="579" y="-5274" />
            </Array>
          </mxGeometry>
        </mxCell>
        <mxCell id="M2NuF1pntOAMJRWihoIL-10" value="" style="endArrow=classic;html=1;dashed=1;strokeColor=#000000;strokeWidth=2;fontSize=14;fontFamily=Helvetica;opacity=50;" edge="1" parent="1" source="qPUqY0fuj3WnYDfDUJOC-12" target="QKKoRjnMVttNz9pZIT6n-105">
          <mxGeometry width="50" height="50" relative="1" as="geometry">
            <mxPoint x="1067.5800000000002" y="-5133" as="sourcePoint" />
            <mxPoint x="708.5799999999999" y="-5198" as="targetPoint" />
          </mxGeometry>
        </mxCell>
        <mxCell id="M2NuF1pntOAMJRWihoIL-11" style="rounded=0;orthogonalLoop=1;jettySize=auto;html=1;fontSize=14;" edge="1" parent="1" source="fdevJqxyKwK1-lTB1GL0-1" target="QKKoRjnMVttNz9pZIT6n-5">
          <mxGeometry relative="1" as="geometry">
            <mxPoint x="601" y="-5112" as="sourcePoint" />
            <mxPoint x="959" y="-4931" as="targetPoint" />
          </mxGeometry>
        </mxCell>
        <mxCell id="M2NuF1pntOAMJRWihoIL-12" value="&lt;div style=&quot;font-size: 11px;&quot;&gt;ro:quality of&lt;/div&gt;" style="edgeLabel;html=1;align=center;verticalAlign=middle;resizable=0;points=[];fontSize=14;" connectable="0" vertex="1" parent="M2NuF1pntOAMJRWihoIL-11">
          <mxGeometry x="-0.1652" y="3" relative="1" as="geometry">
            <mxPoint x="40" y="10" as="offset" />
          </mxGeometry>
        </mxCell>
        <mxCell id="M2NuF1pntOAMJRWihoIL-17" value="" style="endArrow=classic;html=1;dashed=1;strokeColor=#000000;strokeWidth=2;fontSize=14;fontFamily=Helvetica;opacity=50;entryX=1;entryY=0.5;entryDx=0;entryDy=0;" edge="1" parent="1" source="fdevJqxyKwK1-lTB1GL0-1" target="QKKoRjnMVttNz9pZIT6n-105">
          <mxGeometry width="50" height="50" relative="1" as="geometry">
            <mxPoint x="631" y="-4925" as="sourcePoint" />
            <mxPoint x="738" y="-5300" as="targetPoint" />
            <Array as="points">
              <mxPoint x="572" y="-5274" />
            </Array>
          </mxGeometry>
        </mxCell>
        <mxCell id="M2NuF1pntOAMJRWihoIL-24" value="" style="endArrow=classic;html=1;dashed=1;strokeColor=#000000;strokeWidth=2;fontSize=14;fontFamily=Helvetica;edgeStyle=entityRelationEdgeStyle;opacity=50;" edge="1" parent="1" source="-qVNJrEobh2uuxl9ESg2-32" target="QKKoRjnMVttNz9pZIT6n-13">
          <mxGeometry width="50" height="50" relative="1" as="geometry">
            <mxPoint x="298" y="-4811" as="sourcePoint" />
            <mxPoint x="154" y="-4829" as="targetPoint" />
          </mxGeometry>
        </mxCell>
        <mxCell id="M2NuF1pntOAMJRWihoIL-25" value="" style="endArrow=classic;html=1;dashed=1;strokeColor=#000000;strokeWidth=2;fontSize=14;fontFamily=Helvetica;edgeStyle=entityRelationEdgeStyle;opacity=50;" edge="1" parent="1" source="-qVNJrEobh2uuxl9ESg2-29" target="QKKoRjnMVttNz9pZIT6n-13">
          <mxGeometry width="50" height="50" relative="1" as="geometry">
            <mxPoint x="254" y="-4883" as="sourcePoint" />
            <mxPoint x="154" y="-4852" as="targetPoint" />
          </mxGeometry>
        </mxCell>
        <mxCell id="M2NuF1pntOAMJRWihoIL-28" value="" style="endArrow=classic;html=1;dashed=1;strokeColor=#000000;strokeWidth=2;fontSize=14;fontFamily=Helvetica;edgeStyle=entityRelationEdgeStyle;opacity=50;" edge="1" parent="1" source="-qVNJrEobh2uuxl9ESg2-30" target="QKKoRjnMVttNz9pZIT6n-13">
          <mxGeometry width="50" height="50" relative="1" as="geometry">
            <mxPoint x="267" y="-4924" as="sourcePoint" />
            <mxPoint x="139" y="-4855" as="targetPoint" />
          </mxGeometry>
        </mxCell>
        <mxCell id="M2NuF1pntOAMJRWihoIL-29" value="" style="endArrow=classic;html=1;dashed=1;strokeColor=#000000;strokeWidth=2;fontSize=14;fontFamily=Helvetica;edgeStyle=entityRelationEdgeStyle;opacity=50;" edge="1" parent="1" source="-qVNJrEobh2uuxl9ESg2-31" target="QKKoRjnMVttNz9pZIT6n-13">
          <mxGeometry width="50" height="50" relative="1" as="geometry">
            <mxPoint x="277" y="-4914" as="sourcePoint" />
            <mxPoint x="149" y="-4845" as="targetPoint" />
          </mxGeometry>
        </mxCell>
        <mxCell id="M2NuF1pntOAMJRWihoIL-30" style="rounded=0;orthogonalLoop=1;jettySize=auto;html=1;jumpStyle=arc;fontColor=#000000;strokeColor=#000000;entryX=0;entryY=0.5;entryDx=0;entryDy=0;exitX=0.5;exitY=1;exitDx=0;exitDy=0;" edge="1" parent="1" source="qPUqY0fuj3WnYDfDUJOC-12" target="QKKoRjnMVttNz9pZIT6n-8">
          <mxGeometry relative="1" as="geometry">
            <mxPoint x="771" y="-4855" as="sourcePoint" />
            <mxPoint x="771" y="-4734" as="targetPoint" />
            <Array as="points" />
          </mxGeometry>
        </mxCell>
        <mxCell id="M2NuF1pntOAMJRWihoIL-31" value="&lt;div&gt;bfo:is part of&lt;/div&gt;" style="edgeLabel;html=1;align=center;verticalAlign=middle;resizable=0;points=[];fontColor=#000000;" connectable="0" vertex="1" parent="M2NuF1pntOAMJRWihoIL-30">
          <mxGeometry x="-0.2064" y="1" relative="1" as="geometry">
            <mxPoint x="-11" y="-5" as="offset" />
          </mxGeometry>
        </mxCell>
        <mxCell id="M2NuF1pntOAMJRWihoIL-32" value="" style="endArrow=classic;html=1;dashed=1;strokeColor=#000000;strokeWidth=2;fontSize=14;fontFamily=Helvetica;edgeStyle=entityRelationEdgeStyle;opacity=50;" edge="1" parent="1" source="-qVNJrEobh2uuxl9ESg2-95" target="QKKoRjnMVttNz9pZIT6n-13">
          <mxGeometry width="50" height="50" relative="1" as="geometry">
            <mxPoint x="154" y="-4918" as="sourcePoint" />
            <mxPoint x="255" y="-4875" as="targetPoint" />
          </mxGeometry>
        </mxCell>
        <mxCell id="M2NuF1pntOAMJRWihoIL-33" value="" style="endArrow=classic;html=1;dashed=1;strokeColor=#000000;strokeWidth=2;fontSize=14;fontFamily=Helvetica;edgeStyle=entityRelationEdgeStyle;opacity=50;" edge="1" parent="1" source="-qVNJrEobh2uuxl9ESg2-142" target="QKKoRjnMVttNz9pZIT6n-13">
          <mxGeometry width="50" height="50" relative="1" as="geometry">
            <mxPoint x="166" y="-4804" as="sourcePoint" />
            <mxPoint x="255" y="-4875" as="targetPoint" />
          </mxGeometry>
        </mxCell>
        <mxCell id="M2NuF1pntOAMJRWihoIL-34" value="" style="endArrow=classic;html=1;dashed=1;strokeColor=#000000;strokeWidth=2;fontSize=14;fontFamily=Helvetica;edgeStyle=entityRelationEdgeStyle;opacity=50;" edge="1" parent="1" source="qPUqY0fuj3WnYDfDUJOC-22" target="QKKoRjnMVttNz9pZIT6n-13">
          <mxGeometry width="50" height="50" relative="1" as="geometry">
            <mxPoint x="166" y="-4739" as="sourcePoint" />
            <mxPoint x="265" y="-4865" as="targetPoint" />
          </mxGeometry>
        </mxCell>
        <mxCell id="M2NuF1pntOAMJRWihoIL-35" value="" style="endArrow=classic;html=1;dashed=1;strokeColor=#000000;strokeWidth=2;fontSize=14;fontFamily=Helvetica;edgeStyle=entityRelationEdgeStyle;opacity=50;" edge="1" parent="1" source="-qVNJrEobh2uuxl9ESg2-140" target="QKKoRjnMVttNz9pZIT6n-13">
          <mxGeometry width="50" height="50" relative="1" as="geometry">
            <mxPoint x="154" y="-4678" as="sourcePoint" />
            <mxPoint x="255" y="-4875" as="targetPoint" />
          </mxGeometry>
        </mxCell>
        <mxCell id="M2NuF1pntOAMJRWihoIL-37" value="" style="endArrow=classic;html=1;dashed=1;strokeColor=#000000;strokeWidth=2;fontSize=14;fontFamily=Helvetica;edgeStyle=entityRelationEdgeStyle;opacity=50;" edge="1" parent="1" source="qPUqY0fuj3WnYDfDUJOC-22" target="QKKoRjnMVttNz9pZIT6n-13">
          <mxGeometry width="50" height="50" relative="1" as="geometry">
            <mxPoint x="218" y="-5149" as="sourcePoint" />
            <mxPoint x="16" y="-4710" as="targetPoint" />
          </mxGeometry>
        </mxCell>
        <mxCell id="M2NuF1pntOAMJRWihoIL-39" style="rounded=0;orthogonalLoop=1;jettySize=auto;html=1;jumpStyle=arc;" edge="1" parent="1" source="qPUqY0fuj3WnYDfDUJOC-12" target="-qVNJrEobh2uuxl9ESg2-142">
          <mxGeometry relative="1" as="geometry">
            <mxPoint x="502" y="-4786" as="targetPoint" />
            <mxPoint x="328" y="-4666" as="sourcePoint" />
            <Array as="points" />
          </mxGeometry>
        </mxCell>
        <mxCell id="M2NuF1pntOAMJRWihoIL-40" value="ro:concretizes" style="edgeLabel;html=1;align=center;verticalAlign=middle;resizable=0;points=[];" connectable="0" vertex="1" parent="M2NuF1pntOAMJRWihoIL-39">
          <mxGeometry x="-0.6373" y="-2" relative="1" as="geometry">
            <mxPoint x="-38" y="1" as="offset" />
          </mxGeometry>
        </mxCell>
        <mxCell id="M2NuF1pntOAMJRWihoIL-41" value="" style="endArrow=classic;html=1;dashed=1;strokeColor=#000000;strokeWidth=2;fontSize=14;fontFamily=Helvetica;edgeStyle=entityRelationEdgeStyle;opacity=50;" edge="1" parent="1" source="-qVNJrEobh2uuxl9ESg2-45" target="QKKoRjnMVttNz9pZIT6n-13">
          <mxGeometry width="50" height="50" relative="1" as="geometry">
            <mxPoint x="242" y="-5222" as="sourcePoint" />
            <mxPoint x="148" y="-4593" as="targetPoint" />
          </mxGeometry>
        </mxCell>
        <mxCell id="qPUqY0fuj3WnYDfDUJOC-22" value="vibso:incident light power datum" style="text;whiteSpace=wrap;fillColor=#dae8fc;strokeColor=#FF0000;align=center;verticalAlign=middle;strokeWidth=2;" vertex="1" parent="1">
          <mxGeometry x="208.00076923076858" y="-5112" width="110" height="45" as="geometry" />
        </mxCell>
        <mxCell id="M2NuF1pntOAMJRWihoIL-48" style="rounded=0;orthogonalLoop=1;jettySize=auto;html=1;jumpStyle=arc;fontColor=#000000;strokeColor=#000000;" edge="1" parent="1" source="fdevJqxyKwK1-lTB1GL0-1" target="QKKoRjnMVttNz9pZIT6n-8">
          <mxGeometry relative="1" as="geometry">
            <mxPoint x="519" y="-4912" as="sourcePoint" />
            <mxPoint x="766" y="-4875" as="targetPoint" />
            <Array as="points" />
          </mxGeometry>
        </mxCell>
        <mxCell id="M2NuF1pntOAMJRWihoIL-49" value="&lt;div&gt;bfo:is part of&lt;/div&gt;" style="edgeLabel;html=1;align=center;verticalAlign=middle;resizable=0;points=[];fontColor=#000000;" connectable="0" vertex="1" parent="M2NuF1pntOAMJRWihoIL-48">
          <mxGeometry x="-0.2064" y="1" relative="1" as="geometry">
            <mxPoint x="-25" y="-34" as="offset" />
          </mxGeometry>
        </mxCell>
        <mxCell id="M2NuF1pntOAMJRWihoIL-50" style="rounded=0;orthogonalLoop=1;jettySize=auto;html=1;jumpStyle=arc;fontColor=#000000;strokeColor=#000000;" edge="1" parent="1" source="qPUqY0fuj3WnYDfDUJOC-11" target="QKKoRjnMVttNz9pZIT6n-8">
          <mxGeometry relative="1" as="geometry">
            <mxPoint x="617" y="-4986" as="sourcePoint" />
            <mxPoint x="766" y="-4898" as="targetPoint" />
            <Array as="points" />
          </mxGeometry>
        </mxCell>
        <mxCell id="M2NuF1pntOAMJRWihoIL-51" value="&lt;div&gt;bfo:is part of&lt;/div&gt;" style="edgeLabel;html=1;align=center;verticalAlign=middle;resizable=0;points=[];fontColor=#000000;" connectable="0" vertex="1" parent="M2NuF1pntOAMJRWihoIL-50">
          <mxGeometry x="-0.2064" y="1" relative="1" as="geometry">
            <mxPoint x="1" y="-64" as="offset" />
          </mxGeometry>
        </mxCell>
        <mxCell id="M2NuF1pntOAMJRWihoIL-53" style="rounded=0;orthogonalLoop=1;jettySize=auto;html=1;jumpStyle=arc;" edge="1" parent="1" source="fdevJqxyKwK1-lTB1GL0-1" target="qPUqY0fuj3WnYDfDUJOC-22">
          <mxGeometry relative="1" as="geometry">
            <mxPoint x="328" y="-5020" as="targetPoint" />
            <mxPoint x="435" y="-5021" as="sourcePoint" />
            <Array as="points" />
          </mxGeometry>
        </mxCell>
        <mxCell id="M2NuF1pntOAMJRWihoIL-54" value="ro:concretizes" style="edgeLabel;html=1;align=center;verticalAlign=middle;resizable=0;points=[];" connectable="0" vertex="1" parent="M2NuF1pntOAMJRWihoIL-53">
          <mxGeometry x="-0.6373" y="-2" relative="1" as="geometry">
            <mxPoint x="-115" as="offset" />
          </mxGeometry>
        </mxCell>
        <mxCell id="M2NuF1pntOAMJRWihoIL-55" style="rounded=0;orthogonalLoop=1;jettySize=auto;html=1;jumpStyle=arc;" edge="1" parent="1" source="qPUqY0fuj3WnYDfDUJOC-11" target="-qVNJrEobh2uuxl9ESg2-140">
          <mxGeometry relative="1" as="geometry">
            <mxPoint x="338" y="-5010" as="targetPoint" />
            <mxPoint x="445" y="-5011" as="sourcePoint" />
            <Array as="points" />
          </mxGeometry>
        </mxCell>
        <mxCell id="M2NuF1pntOAMJRWihoIL-56" value="ro:concretizes" style="edgeLabel;html=1;align=center;verticalAlign=middle;resizable=0;points=[];" connectable="0" vertex="1" parent="M2NuF1pntOAMJRWihoIL-55">
          <mxGeometry x="-0.6373" y="-2" relative="1" as="geometry">
            <mxPoint x="-191" y="2" as="offset" />
          </mxGeometry>
        </mxCell>
        <mxCell id="M2NuF1pntOAMJRWihoIL-57" style="rounded=0;orthogonalLoop=1;jettySize=auto;html=1;jumpStyle=arc;" edge="1" parent="1" source="qPUqY0fuj3WnYDfDUJOC-8" target="qPUqY0fuj3WnYDfDUJOC-26">
          <mxGeometry relative="1" as="geometry">
            <mxPoint x="328" y="-5139" as="targetPoint" />
            <mxPoint x="636" y="-5096" as="sourcePoint" />
            <Array as="points" />
          </mxGeometry>
        </mxCell>
        <mxCell id="M2NuF1pntOAMJRWihoIL-58" value="ro:concretizes" style="edgeLabel;html=1;align=center;verticalAlign=middle;resizable=0;points=[];" connectable="0" vertex="1" parent="M2NuF1pntOAMJRWihoIL-57">
          <mxGeometry x="-0.6373" y="-2" relative="1" as="geometry">
            <mxPoint x="-269" y="2" as="offset" />
          </mxGeometry>
        </mxCell>
        <mxCell id="M2NuF1pntOAMJRWihoIL-59" style="rounded=0;orthogonalLoop=1;jettySize=auto;html=1;jumpStyle=arc;entryX=0.75;entryY=0;entryDx=0;entryDy=0;exitX=0.5;exitY=1;exitDx=0;exitDy=0;" edge="1" parent="1" source="QKKoRjnMVttNz9pZIT6n-8" target="QKKoRjnMVttNz9pZIT6n-98">
          <mxGeometry relative="1" as="geometry">
            <mxPoint x="328" y="-5079" as="targetPoint" />
            <mxPoint x="498" y="-5079" as="sourcePoint" />
            <Array as="points" />
          </mxGeometry>
        </mxCell>
        <mxCell id="M2NuF1pntOAMJRWihoIL-60" value="ro:concretizes" style="edgeLabel;html=1;align=center;verticalAlign=middle;resizable=0;points=[];" connectable="0" vertex="1" parent="M2NuF1pntOAMJRWihoIL-59">
          <mxGeometry x="-0.6373" y="-2" relative="1" as="geometry">
            <mxPoint x="36" y="-19" as="offset" />
          </mxGeometry>
        </mxCell>
        <mxCell id="QKKoRjnMVttNz9pZIT6n-112" style="rounded=0;orthogonalLoop=1;jettySize=auto;html=1;jumpStyle=arc;fontColor=#000000;strokeColor=#000000;" edge="1" parent="1" source="qPUqY0fuj3WnYDfDUJOC-8" target="QKKoRjnMVttNz9pZIT6n-8">
          <mxGeometry relative="1" as="geometry">
            <mxPoint x="754.5" y="-4835" as="sourcePoint" />
            <mxPoint x="622" y="-5009" as="targetPoint" />
            <Array as="points" />
          </mxGeometry>
        </mxCell>
        <mxCell id="QKKoRjnMVttNz9pZIT6n-113" value="&lt;div&gt;bfo:is part of&lt;/div&gt;" style="edgeLabel;html=1;align=center;verticalAlign=middle;resizable=0;points=[];fontColor=#000000;" connectable="0" vertex="1" parent="QKKoRjnMVttNz9pZIT6n-112">
          <mxGeometry x="-0.2064" y="1" relative="1" as="geometry">
            <mxPoint x="31" y="-91" as="offset" />
          </mxGeometry>
        </mxCell>
        <mxCell id="M2NuF1pntOAMJRWihoIL-61" value="" style="endArrow=classic;html=1;dashed=1;strokeColor=#000000;strokeWidth=2;fontSize=14;fontFamily=Helvetica;opacity=50;edgeStyle=entityRelationEdgeStyle;" edge="1" parent="1" source="-qVNJrEobh2uuxl9ESg2-33" target="QKKoRjnMVttNz9pZIT6n-105">
          <mxGeometry width="50" height="50" relative="1" as="geometry">
            <mxPoint x="682" y="-5221" as="sourcePoint" />
            <mxPoint x="585" y="-5247" as="targetPoint" />
          </mxGeometry>
        </mxCell>
        <mxCell id="M2NuF1pntOAMJRWihoIL-62" value="" style="endArrow=classic;html=1;dashed=1;strokeColor=#000000;strokeWidth=2;fontSize=14;fontFamily=Helvetica;opacity=50;edgeStyle=entityRelationEdgeStyle;" edge="1" parent="1" source="-qVNJrEobh2uuxl9ESg2-34" target="QKKoRjnMVttNz9pZIT6n-105">
          <mxGeometry width="50" height="50" relative="1" as="geometry">
            <mxPoint x="1402" y="-5207" as="sourcePoint" />
            <mxPoint x="585" y="-5260" as="targetPoint" />
          </mxGeometry>
        </mxCell>
      </root>
    </mxGraphModel>
  </diagram>
  <diagram id="GqFazfxBKc9R1wEYDF73" name="general assay pattern">
    <mxGraphModel dx="2135" dy="7663" grid="0" gridSize="10" guides="1" tooltips="1" connect="1" arrows="1" fold="1" page="1" pageScale="1" pageWidth="4681" pageHeight="3300" math="0" shadow="0">
      <root>
        <mxCell id="wvn5aXwUQFeutLeLyO1h-0" />
        <mxCell id="wvn5aXwUQFeutLeLyO1h-1" parent="wvn5aXwUQFeutLeLyO1h-0" />
        <mxCell id="cuhHOgTxAMi1feGoNmrJ-0" value="&lt;div&gt;obi:assay&lt;/div&gt;" style="rounded=0;whiteSpace=wrap;html=1;fillColor=#f8cecc;strokeColor=#b85450;" vertex="1" parent="wvn5aXwUQFeutLeLyO1h-1">
          <mxGeometry x="637" y="-6266" width="105" height="90" as="geometry" />
        </mxCell>
        <mxCell id="cuhHOgTxAMi1feGoNmrJ-1" value="&lt;div&gt;iao:data item&lt;/div&gt;" style="rounded=0;whiteSpace=wrap;html=1;fillColor=#dae8fc;strokeColor=#6c8ebf;arcSize=15;glass=0;shadow=0;" vertex="1" parent="wvn5aXwUQFeutLeLyO1h-1">
          <mxGeometry x="637" y="-6075" width="105" height="40" as="geometry" />
        </mxCell>
        <mxCell id="cuhHOgTxAMi1feGoNmrJ-2" style="rounded=0;orthogonalLoop=1;jettySize=auto;html=1;jumpStyle=arc;" edge="1" parent="wvn5aXwUQFeutLeLyO1h-1" source="cuhHOgTxAMi1feGoNmrJ-0" target="cuhHOgTxAMi1feGoNmrJ-1">
          <mxGeometry relative="1" as="geometry">
            <mxPoint x="779.5" y="-6218.17" as="sourcePoint" />
            <mxPoint x="1277.25" y="-6291.84" as="targetPoint" />
            <Array as="points" />
          </mxGeometry>
        </mxCell>
        <mxCell id="cuhHOgTxAMi1feGoNmrJ-3" value="&lt;div&gt;obi:has &lt;br&gt;&lt;/div&gt;&lt;div&gt;specified &lt;br&gt;&lt;/div&gt;&lt;div&gt;output&lt;/div&gt;" style="edgeLabel;html=1;align=center;verticalAlign=middle;resizable=0;points=[];" connectable="0" vertex="1" parent="cuhHOgTxAMi1feGoNmrJ-2">
          <mxGeometry x="-0.2211" y="2" relative="1" as="geometry">
            <mxPoint x="-4" y="6" as="offset" />
          </mxGeometry>
        </mxCell>
        <mxCell id="cuhHOgTxAMi1feGoNmrJ-4" value="obi:device" style="rounded=0;whiteSpace=wrap;html=1;fillColor=#fff2cc;strokeColor=#d6b656;" vertex="1" parent="wvn5aXwUQFeutLeLyO1h-1">
          <mxGeometry x="637" y="-6391" width="105" height="40" as="geometry" />
        </mxCell>
        <mxCell id="cuhHOgTxAMi1feGoNmrJ-5" style="rounded=0;orthogonalLoop=1;jettySize=auto;html=1;jumpStyle=arc;strokeColor=#000000;entryX=0.5;entryY=1;entryDx=0;entryDy=0;fontColor=#000000;" edge="1" parent="wvn5aXwUQFeutLeLyO1h-1" source="cuhHOgTxAMi1feGoNmrJ-0" target="cuhHOgTxAMi1feGoNmrJ-4">
          <mxGeometry relative="1" as="geometry">
            <mxPoint x="961.5" y="-6550" as="sourcePoint" />
            <mxPoint x="940" y="-6602.5" as="targetPoint" />
          </mxGeometry>
        </mxCell>
        <object label="&lt;div class=&quot;node-metadata-label&quot;&gt;&lt;/div&gt;&lt;div class=&quot;col-sm-8 col-md-9 node-metadata-value&quot;&gt;obi:has &lt;br&gt;&lt;/div&gt;&lt;div class=&quot;col-sm-8 col-md-9 node-metadata-value&quot;&gt;specified &lt;br&gt;&lt;/div&gt;&lt;div class=&quot;col-sm-8 col-md-9 node-metadata-value&quot;&gt;input&lt;/div&gt;" definition="a relation between a continuant and a process, in which the continuant is somehow involved in the process" id="cuhHOgTxAMi1feGoNmrJ-6">
          <mxCell style="edgeLabel;html=1;align=center;verticalAlign=middle;resizable=0;points=[];fontColor=#000000;" connectable="0" vertex="1" parent="cuhHOgTxAMi1feGoNmrJ-5">
            <mxGeometry x="-0.417" y="-1" relative="1" as="geometry">
              <mxPoint x="-6" y="-14" as="offset" />
            </mxGeometry>
          </mxCell>
        </object>
        <mxCell id="cuhHOgTxAMi1feGoNmrJ-7" value="obi:device setting" style="rounded=0;whiteSpace=wrap;html=1;fillColor=#f5f5f5;strokeColor=#666666;fontColor=#333333;" vertex="1" parent="wvn5aXwUQFeutLeLyO1h-1">
          <mxGeometry x="402.77000000000004" y="-6237" width="105" height="40" as="geometry" />
        </mxCell>
        <mxCell id="cuhHOgTxAMi1feGoNmrJ-8" style="rounded=0;orthogonalLoop=1;jettySize=auto;html=1;jumpStyle=arc;strokeColor=#000000;exitX=0;exitY=0.25;exitDx=0;exitDy=0;fontColor=#000000;" edge="1" parent="wvn5aXwUQFeutLeLyO1h-1" source="cuhHOgTxAMi1feGoNmrJ-0" target="cuhHOgTxAMi1feGoNmrJ-7">
          <mxGeometry relative="1" as="geometry">
            <mxPoint x="966.75" y="-6223" as="sourcePoint" />
            <mxPoint x="1150.75" y="-6236" as="targetPoint" />
          </mxGeometry>
        </mxCell>
        <mxCell id="cuhHOgTxAMi1feGoNmrJ-9" value="bfo:realizes" style="edgeLabel;html=1;align=center;verticalAlign=middle;resizable=0;points=[];fontColor=#000000;" connectable="0" vertex="1" parent="cuhHOgTxAMi1feGoNmrJ-8">
          <mxGeometry x="-0.3129" y="2" relative="1" as="geometry">
            <mxPoint x="-22" y="-12" as="offset" />
          </mxGeometry>
        </mxCell>
        <mxCell id="cuhHOgTxAMi1feGoNmrJ-10" style="rounded=0;orthogonalLoop=1;jettySize=auto;html=1;entryX=0;entryY=0.75;entryDx=0;entryDy=0;exitX=0.75;exitY=0;exitDx=0;exitDy=0;" edge="1" parent="wvn5aXwUQFeutLeLyO1h-1" source="cuhHOgTxAMi1feGoNmrJ-7" target="cuhHOgTxAMi1feGoNmrJ-4">
          <mxGeometry relative="1" as="geometry">
            <mxPoint x="991.75" y="-6462" as="sourcePoint" />
            <mxPoint x="1046.75" y="-6498" as="targetPoint" />
            <Array as="points" />
          </mxGeometry>
        </mxCell>
        <mxCell id="cuhHOgTxAMi1feGoNmrJ-11" value="&lt;div style=&quot;font-size: 11px;&quot;&gt;ro:quality of&lt;/div&gt;" style="edgeLabel;html=1;align=center;verticalAlign=middle;resizable=0;points=[];labelBackgroundColor=default;" connectable="0" vertex="1" parent="cuhHOgTxAMi1feGoNmrJ-10">
          <mxGeometry x="0.2475" y="-4" relative="1" as="geometry">
            <mxPoint x="-39" y="33" as="offset" />
          </mxGeometry>
        </mxCell>
        <mxCell id="cuhHOgTxAMi1feGoNmrJ-12" style="rounded=0;orthogonalLoop=1;jettySize=auto;html=1;exitX=0.5;exitY=0;exitDx=0;exitDy=0;" edge="1" parent="wvn5aXwUQFeutLeLyO1h-1" source="cuhHOgTxAMi1feGoNmrJ-14" target="cuhHOgTxAMi1feGoNmrJ-78">
          <mxGeometry relative="1" as="geometry" />
        </mxCell>
        <mxCell id="cuhHOgTxAMi1feGoNmrJ-13" value="obi:has value&lt;br&gt;specification" style="edgeLabel;html=1;align=center;verticalAlign=middle;resizable=0;points=[];" vertex="1" connectable="0" parent="cuhHOgTxAMi1feGoNmrJ-12">
          <mxGeometry x="-0.0954" y="2" relative="1" as="geometry">
            <mxPoint y="1" as="offset" />
          </mxGeometry>
        </mxCell>
        <mxCell id="cuhHOgTxAMi1feGoNmrJ-14" value="&lt;div&gt;iao:setting datum&lt;br&gt;&lt;/div&gt;" style="rounded=0;whiteSpace=wrap;html=1;fillColor=#dae8fc;strokeColor=#6c8ebf;arcSize=15;glass=0;shadow=0;" vertex="1" parent="wvn5aXwUQFeutLeLyO1h-1">
          <mxGeometry x="141.99999999999994" y="-6277" width="105" height="40" as="geometry" />
        </mxCell>
        <mxCell id="cuhHOgTxAMi1feGoNmrJ-15" style="rounded=0;orthogonalLoop=1;jettySize=auto;html=1;entryX=0;entryY=0.75;entryDx=0;entryDy=0;exitX=1;exitY=0.5;exitDx=0;exitDy=0;" edge="1" parent="wvn5aXwUQFeutLeLyO1h-1" source="cuhHOgTxAMi1feGoNmrJ-64" target="cuhHOgTxAMi1feGoNmrJ-7">
          <mxGeometry relative="1" as="geometry">
            <mxPoint x="286" y="-6279" as="targetPoint" />
          </mxGeometry>
        </mxCell>
        <mxCell id="cuhHOgTxAMi1feGoNmrJ-16" value="ro:is concretized as" style="edgeLabel;html=1;align=center;verticalAlign=middle;resizable=0;points=[];rotation=0;" connectable="0" vertex="1" parent="cuhHOgTxAMi1feGoNmrJ-15">
          <mxGeometry x="-0.6373" y="-2" relative="1" as="geometry">
            <mxPoint x="41" y="-9" as="offset" />
          </mxGeometry>
        </mxCell>
        <mxCell id="cuhHOgTxAMi1feGoNmrJ-17" value="obi:material sample" style="rounded=0;whiteSpace=wrap;html=1;fillColor=#fff2cc;strokeColor=#d6b656;" vertex="1" parent="wvn5aXwUQFeutLeLyO1h-1">
          <mxGeometry x="943" y="-6159" width="105" height="45" as="geometry" />
        </mxCell>
        <mxCell id="cuhHOgTxAMi1feGoNmrJ-18" value="" style="rounded=0;orthogonalLoop=1;jettySize=auto;html=1;exitX=1;exitY=0.75;exitDx=0;exitDy=0;entryX=0;entryY=0.25;entryDx=0;entryDy=0;" edge="1" parent="wvn5aXwUQFeutLeLyO1h-1" source="cuhHOgTxAMi1feGoNmrJ-0" target="cuhHOgTxAMi1feGoNmrJ-17">
          <mxGeometry relative="1" as="geometry">
            <mxPoint x="841.75" y="-6231" as="sourcePoint" />
            <mxPoint x="1000.75" y="-6108" as="targetPoint" />
          </mxGeometry>
        </mxCell>
        <object label="&lt;div class=&quot;node-metadata-label&quot;&gt;&lt;/div&gt;&lt;div class=&quot;col-sm-8 col-md-9 node-metadata-value&quot;&gt;obi:has &lt;br&gt;&lt;/div&gt;&lt;div class=&quot;col-sm-8 col-md-9 node-metadata-value&quot;&gt;specified &lt;br&gt;&lt;/div&gt;&lt;div class=&quot;col-sm-8 col-md-9 node-metadata-value&quot;&gt;input&lt;/div&gt;" definition="a relation between a continuant and a process, in which the continuant is somehow involved in the process" id="cuhHOgTxAMi1feGoNmrJ-19">
          <mxCell style="edgeLabel;html=1;align=center;verticalAlign=middle;resizable=0;points=[];" connectable="0" vertex="1" parent="cuhHOgTxAMi1feGoNmrJ-18">
            <mxGeometry x="-0.417" y="-1" relative="1" as="geometry">
              <mxPoint x="8" y="8" as="offset" />
            </mxGeometry>
          </mxCell>
        </object>
        <mxCell id="cuhHOgTxAMi1feGoNmrJ-20" value="&lt;div&gt;obi:data transformation&lt;br&gt;&lt;/div&gt;" style="rounded=0;whiteSpace=wrap;html=1;fillColor=#f8cecc;strokeColor=#b85450;" vertex="1" parent="wvn5aXwUQFeutLeLyO1h-1">
          <mxGeometry x="402.77" y="-5985" width="105" height="40" as="geometry" />
        </mxCell>
        <mxCell id="cuhHOgTxAMi1feGoNmrJ-21" style="rounded=0;orthogonalLoop=1;jettySize=auto;html=1;jumpStyle=arc;strokeColor=#000000;fontColor=#000000;" edge="1" parent="wvn5aXwUQFeutLeLyO1h-1" source="cuhHOgTxAMi1feGoNmrJ-20" target="cuhHOgTxAMi1feGoNmrJ-23">
          <mxGeometry relative="1" as="geometry">
            <mxPoint x="836.75" y="-6231" as="sourcePoint" />
            <mxPoint x="844.75" y="-5920" as="targetPoint" />
            <Array as="points" />
          </mxGeometry>
        </mxCell>
        <mxCell id="cuhHOgTxAMi1feGoNmrJ-22" value="&lt;div&gt;obi:has &lt;br&gt;&lt;/div&gt;&lt;div&gt;specified &lt;br&gt;&lt;/div&gt;&lt;div&gt;output&lt;/div&gt;" style="edgeLabel;html=1;align=center;verticalAlign=middle;resizable=0;points=[];fontColor=#000000;" connectable="0" vertex="1" parent="cuhHOgTxAMi1feGoNmrJ-21">
          <mxGeometry x="-0.2211" y="2" relative="1" as="geometry">
            <mxPoint x="-5" as="offset" />
          </mxGeometry>
        </mxCell>
        <mxCell id="cuhHOgTxAMi1feGoNmrJ-23" value="&lt;div&gt;iao:information content entity&lt;br&gt;&lt;/div&gt;" style="rounded=0;whiteSpace=wrap;html=1;fillColor=#dae8fc;strokeColor=#6c8ebf;arcSize=15;glass=0;shadow=0;" vertex="1" parent="wvn5aXwUQFeutLeLyO1h-1">
          <mxGeometry x="637" y="-5985" width="105" height="40" as="geometry" />
        </mxCell>
        <mxCell id="cuhHOgTxAMi1feGoNmrJ-24" value="" style="rounded=0;orthogonalLoop=1;jettySize=auto;html=1;exitX=0;exitY=0.5;exitDx=0;exitDy=0;" edge="1" parent="wvn5aXwUQFeutLeLyO1h-1" source="cuhHOgTxAMi1feGoNmrJ-1" target="cuhHOgTxAMi1feGoNmrJ-20">
          <mxGeometry relative="1" as="geometry">
            <mxPoint x="890.75" y="-6231" as="sourcePoint" />
            <mxPoint x="1076.75" y="-6138" as="targetPoint" />
          </mxGeometry>
        </mxCell>
        <object label="&lt;div class=&quot;node-metadata-label&quot;&gt;&lt;/div&gt;&lt;div class=&quot;col-sm-8 col-md-9 node-metadata-value&quot;&gt;obi:has &lt;br&gt;&lt;/div&gt;&lt;div class=&quot;col-sm-8 col-md-9 node-metadata-value&quot;&gt;specified &lt;br&gt;&lt;/div&gt;&lt;div class=&quot;col-sm-8 col-md-9 node-metadata-value&quot;&gt;input&lt;/div&gt;" definition="a relation between a continuant and a process, in which the continuant is somehow involved in the process" id="cuhHOgTxAMi1feGoNmrJ-25">
          <mxCell style="edgeLabel;html=1;align=center;verticalAlign=middle;resizable=0;points=[];" connectable="0" vertex="1" parent="cuhHOgTxAMi1feGoNmrJ-24">
            <mxGeometry x="-0.417" y="-1" relative="1" as="geometry">
              <mxPoint x="-8" as="offset" />
            </mxGeometry>
          </mxCell>
        </object>
        <mxCell id="cuhHOgTxAMi1feGoNmrJ-28" value="obi:assay objective" style="rounded=0;whiteSpace=wrap;html=1;fillColor=#dae8fc;strokeColor=#6c8ebf;" vertex="1" parent="wvn5aXwUQFeutLeLyO1h-1">
          <mxGeometry x="140" y="-5982" width="105" height="40" as="geometry" />
        </mxCell>
        <mxCell id="cuhHOgTxAMi1feGoNmrJ-29" style="rounded=0;orthogonalLoop=1;jettySize=auto;html=1;jumpStyle=arc;fontColor=#000000;strokeColor=#000000;exitX=0.5;exitY=0;exitDx=0;exitDy=0;" edge="1" parent="wvn5aXwUQFeutLeLyO1h-1" source="cuhHOgTxAMi1feGoNmrJ-33" target="cuhHOgTxAMi1feGoNmrJ-28">
          <mxGeometry relative="1" as="geometry">
            <mxPoint x="433.75" y="-6518" as="sourcePoint" />
            <mxPoint x="729.5" y="-6568" as="targetPoint" />
            <Array as="points" />
          </mxGeometry>
        </mxCell>
        <mxCell id="cuhHOgTxAMi1feGoNmrJ-30" value="&lt;div&gt;bfo:has &lt;br&gt;&lt;/div&gt;&lt;div&gt;part&lt;/div&gt;" style="edgeLabel;html=1;align=center;verticalAlign=middle;resizable=0;points=[];fontColor=#000000;" connectable="0" vertex="1" parent="cuhHOgTxAMi1feGoNmrJ-29">
          <mxGeometry x="-0.2064" y="1" relative="1" as="geometry">
            <mxPoint x="-1" y="35" as="offset" />
          </mxGeometry>
        </mxCell>
        <mxCell id="cuhHOgTxAMi1feGoNmrJ-31" style="rounded=0;orthogonalLoop=1;jettySize=auto;html=1;exitX=0;exitY=0.867;exitDx=0;exitDy=0;exitPerimeter=0;" edge="1" parent="wvn5aXwUQFeutLeLyO1h-1" source="cuhHOgTxAMi1feGoNmrJ-0" target="cuhHOgTxAMi1feGoNmrJ-28">
          <mxGeometry relative="1" as="geometry">
            <Array as="points" />
            <mxPoint x="698.75" y="-6291" as="sourcePoint" />
          </mxGeometry>
        </mxCell>
        <mxCell id="cuhHOgTxAMi1feGoNmrJ-32" value="&lt;div&gt;obi:achieves&lt;/div&gt;&lt;div&gt;planned objective&lt;br&gt;&lt;/div&gt;" style="edgeLabel;html=1;align=center;verticalAlign=middle;resizable=0;points=[];" connectable="0" vertex="1" parent="cuhHOgTxAMi1feGoNmrJ-31">
          <mxGeometry x="-0.2881" y="-4" relative="1" as="geometry">
            <mxPoint x="-49" y="36" as="offset" />
          </mxGeometry>
        </mxCell>
        <mxCell id="cuhHOgTxAMi1feGoNmrJ-33" value="&lt;div&gt;obi:investigation&lt;/div&gt;&lt;div&gt;assay specification&lt;br&gt;&lt;/div&gt;" style="rounded=0;whiteSpace=wrap;html=1;fillColor=#dae8fc;strokeColor=#6c8ebf;" vertex="1" parent="wvn5aXwUQFeutLeLyO1h-1">
          <mxGeometry x="140" y="-6094" width="105" height="60" as="geometry" />
        </mxCell>
        <mxCell id="cuhHOgTxAMi1feGoNmrJ-34" style="rounded=0;orthogonalLoop=1;jettySize=auto;html=1;exitX=1;exitY=0.25;exitDx=0;exitDy=0;entryX=0.019;entryY=0.344;entryDx=0;entryDy=0;entryPerimeter=0;" edge="1" parent="wvn5aXwUQFeutLeLyO1h-1" source="cuhHOgTxAMi1feGoNmrJ-33" target="cuhHOgTxAMi1feGoNmrJ-0">
          <mxGeometry relative="1" as="geometry">
            <mxPoint x="440.25" y="-6725.67" as="sourcePoint" />
            <mxPoint x="634.25" y="-6238" as="targetPoint" />
            <Array as="points" />
          </mxGeometry>
        </mxCell>
        <mxCell id="cuhHOgTxAMi1feGoNmrJ-35" value="iao:is about" style="edgeLabel;html=1;align=center;verticalAlign=middle;resizable=0;points=[];" connectable="0" vertex="1" parent="cuhHOgTxAMi1feGoNmrJ-34">
          <mxGeometry x="0.2301" y="-2" relative="1" as="geometry">
            <mxPoint x="-185" y="69" as="offset" />
          </mxGeometry>
        </mxCell>
        <mxCell id="cuhHOgTxAMi1feGoNmrJ-36" style="edgeStyle=orthogonalEdgeStyle;rounded=0;orthogonalLoop=1;jettySize=auto;html=1;exitX=0.5;exitY=1;exitDx=0;exitDy=0;" edge="1" parent="wvn5aXwUQFeutLeLyO1h-1" source="cuhHOgTxAMi1feGoNmrJ-33" target="cuhHOgTxAMi1feGoNmrJ-33">
          <mxGeometry relative="1" as="geometry" />
        </mxCell>
        <mxCell id="cuhHOgTxAMi1feGoNmrJ-42" style="rounded=0;orthogonalLoop=1;jettySize=auto;html=1;jumpStyle=arc;strokeColor=#000000;entryX=0;entryY=0.75;entryDx=0;entryDy=0;fontColor=#000000;" edge="1" parent="wvn5aXwUQFeutLeLyO1h-1" source="cuhHOgTxAMi1feGoNmrJ-1" target="cuhHOgTxAMi1feGoNmrJ-17">
          <mxGeometry relative="1" as="geometry">
            <mxPoint x="466.25" y="-5969" as="sourcePoint" />
            <mxPoint x="838.25" y="-5963" as="targetPoint" />
            <Array as="points" />
          </mxGeometry>
        </mxCell>
        <mxCell id="cuhHOgTxAMi1feGoNmrJ-43" value="&lt;div&gt;iao:is about&lt;/div&gt;" style="edgeLabel;html=1;align=center;verticalAlign=middle;resizable=0;points=[];fontColor=#000000;" connectable="0" vertex="1" parent="cuhHOgTxAMi1feGoNmrJ-42">
          <mxGeometry x="0.2301" y="-2" relative="1" as="geometry">
            <mxPoint x="-66" y="19" as="offset" />
          </mxGeometry>
        </mxCell>
        <mxCell id="cuhHOgTxAMi1feGoNmrJ-44" style="rounded=0;orthogonalLoop=1;jettySize=auto;html=1;entryX=0.5;entryY=1;entryDx=0;entryDy=0;exitX=1;exitY=0.5;exitDx=0;exitDy=0;" edge="1" parent="wvn5aXwUQFeutLeLyO1h-1" source="cuhHOgTxAMi1feGoNmrJ-17" target="cuhHOgTxAMi1feGoNmrJ-61">
          <mxGeometry relative="1" as="geometry">
            <mxPoint x="943.25" y="-6113" as="sourcePoint" />
            <mxPoint x="1105.75" y="-6172.000384615384" as="targetPoint" />
            <Array as="points" />
          </mxGeometry>
        </mxCell>
        <mxCell id="cuhHOgTxAMi1feGoNmrJ-45" value="ro:has role" style="edgeLabel;html=1;align=center;verticalAlign=middle;resizable=0;points=[];" connectable="0" vertex="1" parent="cuhHOgTxAMi1feGoNmrJ-44">
          <mxGeometry x="-0.3225" y="4" relative="1" as="geometry">
            <mxPoint x="22" y="-16" as="offset" />
          </mxGeometry>
        </mxCell>
        <mxCell id="cuhHOgTxAMi1feGoNmrJ-46" value="obi:evaluant role" style="rounded=0;whiteSpace=wrap;html=1;fillColor=#d5e8d4;strokeColor=#82b366;" vertex="1" parent="wvn5aXwUQFeutLeLyO1h-1">
          <mxGeometry x="827" y="-6246.5" width="105" height="40" as="geometry" />
        </mxCell>
        <mxCell id="cuhHOgTxAMi1feGoNmrJ-47" style="rounded=0;orthogonalLoop=1;jettySize=auto;html=1;entryX=0.5;entryY=1;entryDx=0;entryDy=0;" edge="1" parent="wvn5aXwUQFeutLeLyO1h-1" source="cuhHOgTxAMi1feGoNmrJ-17" target="cuhHOgTxAMi1feGoNmrJ-46">
          <mxGeometry relative="1" as="geometry">
            <mxPoint x="1421.25" y="-6163" as="sourcePoint" />
            <mxPoint x="1473.25" y="-6213" as="targetPoint" />
            <Array as="points" />
          </mxGeometry>
        </mxCell>
        <mxCell id="cuhHOgTxAMi1feGoNmrJ-48" value="ro:has role" style="edgeLabel;html=1;align=center;verticalAlign=middle;resizable=0;points=[];" connectable="0" vertex="1" parent="cuhHOgTxAMi1feGoNmrJ-47">
          <mxGeometry x="-0.3225" y="4" relative="1" as="geometry">
            <mxPoint x="2" y="-9" as="offset" />
          </mxGeometry>
        </mxCell>
        <mxCell id="cuhHOgTxAMi1feGoNmrJ-49" value="&lt;div&gt;obi:material sampling process&lt;br&gt;&lt;/div&gt;" style="rounded=0;whiteSpace=wrap;html=1;fillColor=#f8cecc;strokeColor=#b85450;" vertex="1" parent="wvn5aXwUQFeutLeLyO1h-1">
          <mxGeometry x="943" y="-6368" width="105" height="45" as="geometry" />
        </mxCell>
        <mxCell id="cuhHOgTxAMi1feGoNmrJ-50" value="bfo:material entity" style="rounded=0;whiteSpace=wrap;html=1;fillColor=#fff2cc;strokeColor=#d6b656;" vertex="1" parent="wvn5aXwUQFeutLeLyO1h-1">
          <mxGeometry x="1176" y="-6366.5" width="105" height="40" as="geometry" />
        </mxCell>
        <mxCell id="cuhHOgTxAMi1feGoNmrJ-51" value="" style="rounded=0;orthogonalLoop=1;jettySize=auto;html=1;" edge="1" parent="wvn5aXwUQFeutLeLyO1h-1" source="cuhHOgTxAMi1feGoNmrJ-49" target="cuhHOgTxAMi1feGoNmrJ-50">
          <mxGeometry relative="1" as="geometry">
            <mxPoint x="874.75" y="-6379" as="sourcePoint" />
            <mxPoint x="968.75" y="-6393" as="targetPoint" />
          </mxGeometry>
        </mxCell>
        <object label="&lt;div class=&quot;node-metadata-label&quot;&gt;&lt;/div&gt;&lt;div class=&quot;col-sm-8 col-md-9 node-metadata-value&quot;&gt;obi:has &lt;br&gt;&lt;/div&gt;&lt;div class=&quot;col-sm-8 col-md-9 node-metadata-value&quot;&gt;specified &lt;br&gt;&lt;/div&gt;&lt;div class=&quot;col-sm-8 col-md-9 node-metadata-value&quot;&gt;input&lt;/div&gt;" definition="a relation between a continuant and a process, in which the continuant is somehow involved in the process" id="cuhHOgTxAMi1feGoNmrJ-52">
          <mxCell style="edgeLabel;html=1;align=center;verticalAlign=middle;resizable=0;points=[];" connectable="0" vertex="1" parent="cuhHOgTxAMi1feGoNmrJ-51">
            <mxGeometry x="-0.417" y="-1" relative="1" as="geometry">
              <mxPoint x="14" y="-4" as="offset" />
            </mxGeometry>
          </mxCell>
        </object>
        <mxCell id="cuhHOgTxAMi1feGoNmrJ-53" style="rounded=0;orthogonalLoop=1;jettySize=auto;html=1;jumpStyle=arc;" edge="1" parent="wvn5aXwUQFeutLeLyO1h-1" source="cuhHOgTxAMi1feGoNmrJ-49" target="cuhHOgTxAMi1feGoNmrJ-17">
          <mxGeometry relative="1" as="geometry">
            <mxPoint x="1041.25" y="-6209" as="sourcePoint" />
            <mxPoint x="1081.25" y="-6043" as="targetPoint" />
            <Array as="points" />
          </mxGeometry>
        </mxCell>
        <mxCell id="cuhHOgTxAMi1feGoNmrJ-54" value="&lt;div&gt;obi:has &lt;br&gt;&lt;/div&gt;&lt;div&gt;specified &lt;br&gt;&lt;/div&gt;&lt;div&gt;output&lt;/div&gt;" style="edgeLabel;html=1;align=center;verticalAlign=middle;resizable=0;points=[];" connectable="0" vertex="1" parent="cuhHOgTxAMi1feGoNmrJ-53">
          <mxGeometry x="-0.2211" y="2" relative="1" as="geometry">
            <mxPoint x="3" y="-7" as="offset" />
          </mxGeometry>
        </mxCell>
        <mxCell id="cuhHOgTxAMi1feGoNmrJ-55" style="rounded=0;orthogonalLoop=1;jettySize=auto;html=1;jumpStyle=arc;" edge="1" parent="wvn5aXwUQFeutLeLyO1h-1" source="cuhHOgTxAMi1feGoNmrJ-0" target="cuhHOgTxAMi1feGoNmrJ-46">
          <mxGeometry relative="1" as="geometry">
            <mxPoint x="1181.25" y="-6308" as="targetPoint" />
            <mxPoint x="964.25" y="-6312" as="sourcePoint" />
          </mxGeometry>
        </mxCell>
        <mxCell id="cuhHOgTxAMi1feGoNmrJ-56" value="bfo:realizes" style="edgeLabel;html=1;align=center;verticalAlign=middle;resizable=0;points=[];" connectable="0" vertex="1" parent="cuhHOgTxAMi1feGoNmrJ-55">
          <mxGeometry x="-0.3129" y="2" relative="1" as="geometry">
            <mxPoint x="10" as="offset" />
          </mxGeometry>
        </mxCell>
        <mxCell id="cuhHOgTxAMi1feGoNmrJ-57" style="rounded=0;orthogonalLoop=1;jettySize=auto;html=1;jumpStyle=arc;fontColor=#000000;strokeColor=#000000;exitX=0.75;exitY=1;exitDx=0;exitDy=0;entryX=0.5;entryY=0;entryDx=0;entryDy=0;" edge="1" parent="wvn5aXwUQFeutLeLyO1h-1" source="cuhHOgTxAMi1feGoNmrJ-49" target="cuhHOgTxAMi1feGoNmrJ-61">
          <mxGeometry relative="1" as="geometry">
            <mxPoint x="1092.75" y="-6243" as="targetPoint" />
            <mxPoint x="1137.25" y="-6206" as="sourcePoint" />
          </mxGeometry>
        </mxCell>
        <mxCell id="cuhHOgTxAMi1feGoNmrJ-58" value="bfo:realizes" style="edgeLabel;html=1;align=center;verticalAlign=middle;resizable=0;points=[];fontColor=#000000;" connectable="0" vertex="1" parent="cuhHOgTxAMi1feGoNmrJ-57">
          <mxGeometry x="-0.3129" y="2" relative="1" as="geometry">
            <mxPoint x="3" y="6" as="offset" />
          </mxGeometry>
        </mxCell>
        <mxCell id="cuhHOgTxAMi1feGoNmrJ-59" style="rounded=0;orthogonalLoop=1;jettySize=auto;html=1;jumpStyle=arc;fontColor=#000000;strokeColor=#000000;" edge="1" parent="wvn5aXwUQFeutLeLyO1h-1" source="cuhHOgTxAMi1feGoNmrJ-33" target="cuhHOgTxAMi1feGoNmrJ-64">
          <mxGeometry relative="1" as="geometry">
            <mxPoint x="464.75" y="-6150" as="sourcePoint" />
            <mxPoint x="464.75" y="-6194" as="targetPoint" />
            <Array as="points" />
          </mxGeometry>
        </mxCell>
        <mxCell id="cuhHOgTxAMi1feGoNmrJ-60" value="&lt;div&gt;bfo:has &lt;br&gt;&lt;/div&gt;&lt;div&gt;part&lt;/div&gt;" style="edgeLabel;html=1;align=center;verticalAlign=middle;resizable=0;points=[];fontColor=#000000;" connectable="0" vertex="1" parent="cuhHOgTxAMi1feGoNmrJ-59">
          <mxGeometry x="-0.2064" y="1" relative="1" as="geometry">
            <mxPoint as="offset" />
          </mxGeometry>
        </mxCell>
        <mxCell id="cuhHOgTxAMi1feGoNmrJ-61" value="&lt;div&gt;obi:material &lt;br&gt;&lt;/div&gt;&lt;div&gt;sample role&lt;/div&gt;" style="rounded=0;whiteSpace=wrap;html=1;fillColor=#d5e8d4;strokeColor=#82b366;" vertex="1" parent="wvn5aXwUQFeutLeLyO1h-1">
          <mxGeometry x="1071" y="-6251" width="105" height="40" as="geometry" />
        </mxCell>
        <mxCell id="cuhHOgTxAMi1feGoNmrJ-62" style="rounded=0;orthogonalLoop=1;jettySize=auto;html=1;strokeColor=#000000;fontColor=#000000;entryX=1;entryY=0.75;entryDx=0;entryDy=0;exitX=-0.01;exitY=0.644;exitDx=0;exitDy=0;exitPerimeter=0;" edge="1" parent="wvn5aXwUQFeutLeLyO1h-1" source="cuhHOgTxAMi1feGoNmrJ-0" target="cuhHOgTxAMi1feGoNmrJ-33">
          <mxGeometry relative="1" as="geometry">
            <mxPoint x="607" y="-6213" as="sourcePoint" />
            <mxPoint x="517.3" y="-6215" as="targetPoint" />
            <Array as="points" />
          </mxGeometry>
        </mxCell>
        <mxCell id="cuhHOgTxAMi1feGoNmrJ-63" value="stato:executes" style="edgeLabel;html=1;align=center;verticalAlign=middle;resizable=0;points=[];fontColor=#000000;" connectable="0" vertex="1" parent="cuhHOgTxAMi1feGoNmrJ-62">
          <mxGeometry x="-0.2313" y="-1" relative="1" as="geometry">
            <mxPoint x="64" y="-28" as="offset" />
          </mxGeometry>
        </mxCell>
        <mxCell id="cuhHOgTxAMi1feGoNmrJ-64" value="&lt;span class=&quot;text-2xl mr-3&quot;&gt;foodon:device specification&lt;/span&gt;" style="text;whiteSpace=wrap;html=1;fillColor=#dae8fc;strokeColor=#6c8ebf;align=center;verticalAlign=middle;" vertex="1" parent="wvn5aXwUQFeutLeLyO1h-1">
          <mxGeometry x="141.99999999999994" y="-6186" width="105" height="40" as="geometry" />
        </mxCell>
        <mxCell id="cuhHOgTxAMi1feGoNmrJ-65" style="rounded=0;orthogonalLoop=1;jettySize=auto;html=1;jumpStyle=arc;fontColor=#000000;strokeColor=#000000;" edge="1" parent="wvn5aXwUQFeutLeLyO1h-1" source="cuhHOgTxAMi1feGoNmrJ-64" target="cuhHOgTxAMi1feGoNmrJ-14">
          <mxGeometry relative="1" as="geometry">
            <mxPoint x="203" y="-6115" as="sourcePoint" />
            <mxPoint x="203" y="-6189" as="targetPoint" />
            <Array as="points" />
          </mxGeometry>
        </mxCell>
        <mxCell id="cuhHOgTxAMi1feGoNmrJ-66" value="&lt;div&gt;bfo:has &lt;br&gt;&lt;/div&gt;&lt;div&gt;part&lt;/div&gt;" style="edgeLabel;html=1;align=center;verticalAlign=middle;resizable=0;points=[];fontColor=#000000;" connectable="0" vertex="1" parent="cuhHOgTxAMi1feGoNmrJ-65">
          <mxGeometry x="-0.2064" y="1" relative="1" as="geometry">
            <mxPoint y="-4" as="offset" />
          </mxGeometry>
        </mxCell>
        <mxCell id="cuhHOgTxAMi1feGoNmrJ-67" style="rounded=0;orthogonalLoop=1;jettySize=auto;html=1;fontColor=#000000;strokeColor=#000000;entryX=1;entryY=0.25;entryDx=0;entryDy=0;" edge="1" parent="wvn5aXwUQFeutLeLyO1h-1" source="cuhHOgTxAMi1feGoNmrJ-49" target="cuhHOgTxAMi1feGoNmrJ-0">
          <mxGeometry relative="1" as="geometry">
            <mxPoint x="418" y="-5947" as="targetPoint" />
            <mxPoint x="666" y="-6184" as="sourcePoint" />
          </mxGeometry>
        </mxCell>
        <mxCell id="cuhHOgTxAMi1feGoNmrJ-68" value="bfo:precedes" style="edgeLabel;html=1;align=center;verticalAlign=middle;resizable=0;points=[];fontColor=#000000;" connectable="0" vertex="1" parent="cuhHOgTxAMi1feGoNmrJ-67">
          <mxGeometry x="-0.44" y="2" relative="1" as="geometry">
            <mxPoint x="-10" y="2" as="offset" />
          </mxGeometry>
        </mxCell>
        <mxCell id="cuhHOgTxAMi1feGoNmrJ-69" value="&lt;font style=&quot;font-size: 12px;&quot;&gt;pato:physical quality&lt;/font&gt;" style="rounded=0;whiteSpace=wrap;html=1;glass=0;fillColor=#f5f5f5;fontStyle=0;fontSize=14;shadow=0;strokeColor=#666666;strokeWidth=1;fontColor=#333333;fontFamily=Helvetica;" vertex="1" parent="wvn5aXwUQFeutLeLyO1h-1">
          <mxGeometry x="393.52000000000004" y="-6403" width="123.5" height="40" as="geometry" />
        </mxCell>
        <mxCell id="cuhHOgTxAMi1feGoNmrJ-70" style="rounded=0;orthogonalLoop=1;jettySize=auto;html=1;exitX=1;exitY=0.5;exitDx=0;exitDy=0;fontSize=14;entryX=0;entryY=0.25;entryDx=0;entryDy=0;" edge="1" parent="wvn5aXwUQFeutLeLyO1h-1" source="cuhHOgTxAMi1feGoNmrJ-69" target="cuhHOgTxAMi1feGoNmrJ-4">
          <mxGeometry relative="1" as="geometry">
            <mxPoint x="594" y="-6579" as="sourcePoint" />
            <mxPoint x="785" y="-6607" as="targetPoint" />
          </mxGeometry>
        </mxCell>
        <mxCell id="cuhHOgTxAMi1feGoNmrJ-71" value="&lt;div style=&quot;font-size: 11px;&quot;&gt;ro:quality of&lt;/div&gt;" style="edgeLabel;html=1;align=center;verticalAlign=middle;resizable=0;points=[];fontSize=14;" connectable="0" vertex="1" parent="cuhHOgTxAMi1feGoNmrJ-70">
          <mxGeometry x="-0.1652" y="3" relative="1" as="geometry">
            <mxPoint x="10" y="2" as="offset" />
          </mxGeometry>
        </mxCell>
        <mxCell id="cuhHOgTxAMi1feGoNmrJ-72" style="rounded=0;orthogonalLoop=1;jettySize=auto;html=1;exitX=1;exitY=0.5;exitDx=0;exitDy=0;entryX=0.25;entryY=1;entryDx=0;entryDy=0;" edge="1" parent="wvn5aXwUQFeutLeLyO1h-1" source="cuhHOgTxAMi1feGoNmrJ-14" target="cuhHOgTxAMi1feGoNmrJ-69">
          <mxGeometry relative="1" as="geometry">
            <mxPoint x="360" y="-6478" as="targetPoint" />
            <mxPoint x="411" y="-6336" as="sourcePoint" />
          </mxGeometry>
        </mxCell>
        <mxCell id="cuhHOgTxAMi1feGoNmrJ-73" value="ro:is concretized as" style="edgeLabel;html=1;align=center;verticalAlign=middle;resizable=0;points=[];" connectable="0" vertex="1" parent="cuhHOgTxAMi1feGoNmrJ-72">
          <mxGeometry x="-0.6373" y="-2" relative="1" as="geometry">
            <mxPoint x="34" y="-6" as="offset" />
          </mxGeometry>
        </mxCell>
        <mxCell id="cuhHOgTxAMi1feGoNmrJ-74" style="rounded=0;orthogonalLoop=1;jettySize=auto;html=1;jumpStyle=arc;fontColor=#000000;strokeColor=#000000;exitX=0.5;exitY=0;exitDx=0;exitDy=0;entryX=0.5;entryY=1;entryDx=0;entryDy=0;" edge="1" parent="wvn5aXwUQFeutLeLyO1h-1" source="cuhHOgTxAMi1feGoNmrJ-7" target="cuhHOgTxAMi1feGoNmrJ-69">
          <mxGeometry relative="1" as="geometry">
            <mxPoint x="207" y="-6354" as="sourcePoint" />
            <mxPoint x="207" y="-6420" as="targetPoint" />
            <Array as="points" />
          </mxGeometry>
        </mxCell>
        <mxCell id="cuhHOgTxAMi1feGoNmrJ-75" value="&lt;div&gt;bfo:has &lt;br&gt;&lt;/div&gt;&lt;div&gt;part&lt;/div&gt;" style="edgeLabel;html=1;align=center;verticalAlign=middle;resizable=0;points=[];fontColor=#000000;" connectable="0" vertex="1" parent="cuhHOgTxAMi1feGoNmrJ-74">
          <mxGeometry x="-0.2064" y="1" relative="1" as="geometry">
            <mxPoint x="1" y="27" as="offset" />
          </mxGeometry>
        </mxCell>
        <mxCell id="cuhHOgTxAMi1feGoNmrJ-76" style="rounded=0;orthogonalLoop=1;jettySize=auto;html=1;entryX=0;entryY=0.5;entryDx=0;entryDy=0;jumpStyle=arc;exitX=0.75;exitY=0;exitDx=0;exitDy=0;" edge="1" parent="wvn5aXwUQFeutLeLyO1h-1" source="cuhHOgTxAMi1feGoNmrJ-64" target="cuhHOgTxAMi1feGoNmrJ-4">
          <mxGeometry relative="1" as="geometry">
            <mxPoint x="259" y="-6229" as="sourcePoint" />
            <mxPoint x="645" y="-6229" as="targetPoint" />
            <Array as="points" />
          </mxGeometry>
        </mxCell>
        <mxCell id="cuhHOgTxAMi1feGoNmrJ-77" value="iao:is about" style="edgeLabel;html=1;align=center;verticalAlign=middle;resizable=0;points=[];" connectable="0" vertex="1" parent="cuhHOgTxAMi1feGoNmrJ-76">
          <mxGeometry x="0.2301" y="-2" relative="1" as="geometry">
            <mxPoint x="-187" y="70" as="offset" />
          </mxGeometry>
        </mxCell>
        <mxCell id="cuhHOgTxAMi1feGoNmrJ-78" value="&lt;div&gt;obi:value&lt;/div&gt;&lt;div&gt;specification&lt;/div&gt;" style="rounded=0;whiteSpace=wrap;html=1;fontSize=12;fontFamily=Helvetica;fillColor=#dae8fc;strokeColor=#6c8ebf;strokeWidth=2;" vertex="1" parent="wvn5aXwUQFeutLeLyO1h-1">
          <mxGeometry x="144" y="-6374" width="105" height="40" as="geometry" />
        </mxCell>
        <mxCell id="cuhHOgTxAMi1feGoNmrJ-79" style="rounded=0;orthogonalLoop=1;jettySize=auto;html=1;jumpStyle=arc;exitX=1;exitY=0.75;exitDx=0;exitDy=0;" edge="1" parent="wvn5aXwUQFeutLeLyO1h-1" source="cuhHOgTxAMi1feGoNmrJ-78" target="cuhHOgTxAMi1feGoNmrJ-69">
          <mxGeometry relative="1" as="geometry">
            <mxPoint x="931" y="-7200" as="targetPoint" />
            <mxPoint x="1049" y="-6883" as="sourcePoint" />
          </mxGeometry>
        </mxCell>
        <mxCell id="cuhHOgTxAMi1feGoNmrJ-80" value="&lt;div&gt;&lt;font style=&quot;font-size: 12px;&quot;&gt;obi:specifies&lt;/font&gt;&lt;/div&gt;&lt;div&gt;&lt;font style=&quot;font-size: 12px;&quot;&gt;value of&lt;/font&gt;&lt;/div&gt;" style="edgeLabel;html=1;align=center;verticalAlign=middle;resizable=0;points=[];fontSize=12;" connectable="0" vertex="1" parent="cuhHOgTxAMi1feGoNmrJ-79">
          <mxGeometry x="-0.261" y="2" relative="1" as="geometry">
            <mxPoint x="6" y="2" as="offset" />
          </mxGeometry>
        </mxCell>
        <mxCell id="cuhHOgTxAMi1feGoNmrJ-81" style="rounded=0;orthogonalLoop=1;jettySize=auto;html=1;jumpStyle=arc;fontColor=#000000;strokeColor=#000000;entryX=0.5;entryY=1;entryDx=0;entryDy=0;" edge="1" parent="wvn5aXwUQFeutLeLyO1h-1" source="cuhHOgTxAMi1feGoNmrJ-78" target="cuhHOgTxAMi1feGoNmrJ-83">
          <mxGeometry relative="1" as="geometry">
            <mxPoint x="461" y="-6213" as="sourcePoint" />
            <mxPoint x="839" y="-6599" as="targetPoint" />
            <Array as="points" />
          </mxGeometry>
        </mxCell>
        <mxCell id="cuhHOgTxAMi1feGoNmrJ-82" value="&lt;div&gt;bfo:has &lt;br&gt;&lt;/div&gt;&lt;div&gt;part&lt;/div&gt;" style="edgeLabel;html=1;align=center;verticalAlign=middle;resizable=0;points=[];fontColor=#000000;" connectable="0" vertex="1" parent="cuhHOgTxAMi1feGoNmrJ-81">
          <mxGeometry x="-0.2064" y="1" relative="1" as="geometry">
            <mxPoint x="1" as="offset" />
          </mxGeometry>
        </mxCell>
        <mxCell id="cuhHOgTxAMi1feGoNmrJ-83" value="uo:unit" style="rounded=0;whiteSpace=wrap;html=1;fontSize=12;fontFamily=Helvetica;fillColor=#dae8fc;strokeColor=#6c8ebf;strokeWidth=2;" vertex="1" parent="wvn5aXwUQFeutLeLyO1h-1">
          <mxGeometry x="141.99999999999994" y="-6480" width="105" height="40" as="geometry" />
        </mxCell>
        <mxCell id="cuhHOgTxAMi1feGoNmrJ-84" style="edgeStyle=none;rounded=0;jumpStyle=arc;orthogonalLoop=1;jettySize=auto;html=1;fontSize=14;exitX=1;exitY=0.25;exitDx=0;exitDy=0;" edge="1" parent="wvn5aXwUQFeutLeLyO1h-1" source="cuhHOgTxAMi1feGoNmrJ-78" target="cuhHOgTxAMi1feGoNmrJ-86">
          <mxGeometry relative="1" as="geometry">
            <mxPoint x="1023" y="-6758" as="sourcePoint" />
            <mxPoint x="1060" y="-6558" as="targetPoint" />
          </mxGeometry>
        </mxCell>
        <mxCell id="cuhHOgTxAMi1feGoNmrJ-85" value="&lt;div&gt;obi:has&lt;/div&gt;&lt;div&gt;specified value&lt;/div&gt;" style="edgeLabel;html=1;align=center;verticalAlign=middle;resizable=0;points=[];fontSize=12;" connectable="0" vertex="1" parent="cuhHOgTxAMi1feGoNmrJ-84">
          <mxGeometry x="-0.3129" y="-2" relative="1" as="geometry">
            <mxPoint x="11" y="-14" as="offset" />
          </mxGeometry>
        </mxCell>
        <mxCell id="cuhHOgTxAMi1feGoNmrJ-86" value="rdfs:Literal" style="rounded=0;whiteSpace=wrap;html=1;strokeColor=#00FF00;strokeWidth=2;fontSize=12;" vertex="1" parent="wvn5aXwUQFeutLeLyO1h-1">
          <mxGeometry x="285.81" y="-6480" width="105" height="40" as="geometry" />
        </mxCell>
        <mxCell id="cuhHOgTxAMi1feGoNmrJ-87" style="rounded=0;orthogonalLoop=1;jettySize=auto;html=1;jumpStyle=arc;fontColor=#000000;strokeColor=#000000;entryX=0.5;entryY=0;entryDx=0;entryDy=0;exitX=0.25;exitY=1;exitDx=0;exitDy=0;" edge="1" parent="wvn5aXwUQFeutLeLyO1h-1" source="cuhHOgTxAMi1feGoNmrJ-0" target="cuhHOgTxAMi1feGoNmrJ-20">
          <mxGeometry relative="1" as="geometry">
            <mxPoint x="465" y="-6256" as="sourcePoint" />
            <mxPoint x="465" y="-6386" as="targetPoint" />
            <Array as="points" />
          </mxGeometry>
        </mxCell>
        <mxCell id="cuhHOgTxAMi1feGoNmrJ-88" value="&lt;div&gt;bfo:has &lt;br&gt;&lt;/div&gt;&lt;div&gt;part&lt;/div&gt;" style="edgeLabel;html=1;align=center;verticalAlign=middle;resizable=0;points=[];fontColor=#000000;" connectable="0" vertex="1" parent="cuhHOgTxAMi1feGoNmrJ-87">
          <mxGeometry x="-0.2064" y="1" relative="1" as="geometry">
            <mxPoint x="6" y="-5" as="offset" />
          </mxGeometry>
        </mxCell>
        <mxCell id="cuhHOgTxAMi1feGoNmrJ-102" style="rounded=0;orthogonalLoop=1;jettySize=auto;html=1;jumpStyle=arc;strokeColor=#000000;entryX=0.5;entryY=1;entryDx=0;entryDy=0;fontColor=#000000;exitX=1;exitY=0.5;exitDx=0;exitDy=0;" edge="1" parent="wvn5aXwUQFeutLeLyO1h-1" source="cuhHOgTxAMi1feGoNmrJ-23" target="cuhHOgTxAMi1feGoNmrJ-17">
          <mxGeometry relative="1" as="geometry">
            <mxPoint x="752" y="-6060" as="sourcePoint" />
            <mxPoint x="953" y="-6115" as="targetPoint" />
            <Array as="points" />
          </mxGeometry>
        </mxCell>
        <mxCell id="cuhHOgTxAMi1feGoNmrJ-103" value="&lt;div&gt;iao:is about&lt;/div&gt;" style="edgeLabel;html=1;align=center;verticalAlign=middle;resizable=0;points=[];fontColor=#000000;" connectable="0" vertex="1" parent="cuhHOgTxAMi1feGoNmrJ-102">
          <mxGeometry x="0.2301" y="-2" relative="1" as="geometry">
            <mxPoint x="-99" y="57" as="offset" />
          </mxGeometry>
        </mxCell>
      </root>
    </mxGraphModel>
  </diagram>
  <diagram id="MIDBUODzspzkrgsKzxDG" name="Page-5">
    <mxGraphModel dx="2373" dy="1275" grid="1" gridSize="10" guides="1" tooltips="1" connect="1" arrows="1" fold="1" page="1" pageScale="1" pageWidth="827" pageHeight="1169" math="0" shadow="0">
      <root>
        <mxCell id="iTJmPWoZTawlCNFMVfO3-0" />
        <mxCell id="iTJmPWoZTawlCNFMVfO3-1" parent="iTJmPWoZTawlCNFMVfO3-0" />
        <mxCell id="hecgAeeEMm5fwRrelMIG-0" value="" style="group" connectable="0" vertex="1" parent="iTJmPWoZTawlCNFMVfO3-1">
          <mxGeometry x="20" y="200" width="1008" height="509" as="geometry" />
        </mxCell>
        <mxCell id="hecgAeeEMm5fwRrelMIG-1" value="&lt;span id=&quot;docs-internal-guid-7533299b-7fff-fd25-6ce4-45c02c812a31&quot; style=&quot;font-size: 21pt; font-family: &amp;quot;IBM Plex Sans&amp;quot;, sans-serif; color: rgb(0, 156, 188); background-color: transparent; font-weight: 700; font-style: normal; font-variant: normal; text-decoration: none; vertical-align: baseline;&quot;&gt;NFDI4Chem - Reseach Data Relevant Process Pattern&lt;/span&gt;" style="text;whiteSpace=wrap;html=1;" vertex="1" parent="hecgAeeEMm5fwRrelMIG-0">
          <mxGeometry width="1008" height="509" as="geometry" />
        </mxCell>
        <mxCell id="hecgAeeEMm5fwRrelMIG-2" value="&lt;div&gt;obi:assay&lt;/div&gt;" style="rounded=1;whiteSpace=wrap;html=1;fillColor=#dae8fc;strokeColor=#6c8ebf;" vertex="1" parent="hecgAeeEMm5fwRrelMIG-0">
          <mxGeometry x="261.6" y="256" width="105" height="45" as="geometry" />
        </mxCell>
        <mxCell id="hecgAeeEMm5fwRrelMIG-3" value="&lt;div&gt;iao:data item&lt;/div&gt;" style="rounded=1;whiteSpace=wrap;html=1;fillColor=#f5f5f5;strokeColor=#666666;fontColor=#333333;arcSize=15;glass=0;shadow=0;" vertex="1" parent="hecgAeeEMm5fwRrelMIG-0">
          <mxGeometry x="261.6" y="399" width="105" height="45" as="geometry" />
        </mxCell>
        <mxCell id="hecgAeeEMm5fwRrelMIG-4" style="rounded=0;orthogonalLoop=1;jettySize=auto;html=1;jumpStyle=arc;" edge="1" parent="hecgAeeEMm5fwRrelMIG-0" source="hecgAeeEMm5fwRrelMIG-2" target="hecgAeeEMm5fwRrelMIG-3">
          <mxGeometry relative="1" as="geometry">
            <mxPoint x="406.1" y="291.8299999999999" as="sourcePoint" />
            <mxPoint x="903.85" y="218.15999999999985" as="targetPoint" />
            <Array as="points" />
          </mxGeometry>
        </mxCell>
        <mxCell id="hecgAeeEMm5fwRrelMIG-5" value="&lt;div&gt;obi:has &lt;br&gt;&lt;/div&gt;&lt;div&gt;specified &lt;br&gt;&lt;/div&gt;&lt;div&gt;output&lt;/div&gt;" style="edgeLabel;html=1;align=center;verticalAlign=middle;resizable=0;points=[];" connectable="0" vertex="1" parent="hecgAeeEMm5fwRrelMIG-4">
          <mxGeometry x="-0.2211" y="2" relative="1" as="geometry">
            <mxPoint x="-5" y="-14" as="offset" />
          </mxGeometry>
        </mxCell>
        <mxCell id="hecgAeeEMm5fwRrelMIG-6" value="obi:device" style="rounded=1;whiteSpace=wrap;html=1;fillColor=#d5e8d4;strokeColor=#82b366;" vertex="1" parent="hecgAeeEMm5fwRrelMIG-0">
          <mxGeometry x="386.35" y="152" width="105" height="45" as="geometry" />
        </mxCell>
        <mxCell id="hecgAeeEMm5fwRrelMIG-7" style="rounded=0;orthogonalLoop=1;jettySize=auto;html=1;jumpStyle=arc;strokeColor=#60854C;entryX=0.137;entryY=1.005;entryDx=0;entryDy=0;exitX=0.622;exitY=-0.004;exitDx=0;exitDy=0;exitPerimeter=0;entryPerimeter=0;" edge="1" parent="hecgAeeEMm5fwRrelMIG-0" source="hecgAeeEMm5fwRrelMIG-2" target="hecgAeeEMm5fwRrelMIG-6">
          <mxGeometry relative="1" as="geometry">
            <mxPoint x="588.1" y="-40" as="sourcePoint" />
            <mxPoint x="566.6" y="-92.5" as="targetPoint" />
          </mxGeometry>
        </mxCell>
        <object label="&lt;div class=&quot;node-metadata-label&quot;&gt;&lt;/div&gt;&lt;div class=&quot;col-sm-8 col-md-9 node-metadata-value&quot;&gt;obi:has &lt;br&gt;&lt;/div&gt;&lt;div class=&quot;col-sm-8 col-md-9 node-metadata-value&quot;&gt;specified &lt;br&gt;&lt;/div&gt;&lt;div class=&quot;col-sm-8 col-md-9 node-metadata-value&quot;&gt;input&lt;/div&gt;" definition="a relation between a continuant and a process, in which the continuant is somehow involved in the process" id="hecgAeeEMm5fwRrelMIG-8">
          <mxCell style="edgeLabel;html=1;align=center;verticalAlign=middle;resizable=0;points=[];fontColor=#60854C;" connectable="0" vertex="1" parent="hecgAeeEMm5fwRrelMIG-7">
            <mxGeometry x="-0.417" y="-1" relative="1" as="geometry">
              <mxPoint x="11" y="-12" as="offset" />
            </mxGeometry>
          </mxCell>
        </object>
        <mxCell id="hecgAeeEMm5fwRrelMIG-9" value="obi:device setting" style="rounded=1;whiteSpace=wrap;html=1;fillColor=#fff2cc;strokeColor=#d6b656;" vertex="1" parent="hecgAeeEMm5fwRrelMIG-0">
          <mxGeometry x="261.6" y="62" width="105" height="45" as="geometry" />
        </mxCell>
        <mxCell id="hecgAeeEMm5fwRrelMIG-10" style="rounded=0;orthogonalLoop=1;jettySize=auto;html=1;jumpStyle=arc;strokeColor=#60854C;exitX=0.5;exitY=0;exitDx=0;exitDy=0;" edge="1" parent="hecgAeeEMm5fwRrelMIG-0" source="hecgAeeEMm5fwRrelMIG-2" target="hecgAeeEMm5fwRrelMIG-9">
          <mxGeometry relative="1" as="geometry">
            <mxPoint x="593.35" y="287" as="sourcePoint" />
            <mxPoint x="777.35" y="274" as="targetPoint" />
          </mxGeometry>
        </mxCell>
        <mxCell id="hecgAeeEMm5fwRrelMIG-11" value="bfo:realizes" style="edgeLabel;html=1;align=center;verticalAlign=middle;resizable=0;points=[];fontColor=#60854C;" connectable="0" vertex="1" parent="hecgAeeEMm5fwRrelMIG-10">
          <mxGeometry x="-0.3129" y="2" relative="1" as="geometry">
            <mxPoint x="2" y="-41" as="offset" />
          </mxGeometry>
        </mxCell>
        <mxCell id="hecgAeeEMm5fwRrelMIG-12" style="rounded=0;orthogonalLoop=1;jettySize=auto;html=1;entryX=0.138;entryY=0;entryDx=0;entryDy=0;entryPerimeter=0;" edge="1" parent="hecgAeeEMm5fwRrelMIG-0" source="hecgAeeEMm5fwRrelMIG-9" target="hecgAeeEMm5fwRrelMIG-6">
          <mxGeometry relative="1" as="geometry">
            <mxPoint x="618.35" y="48" as="sourcePoint" />
            <mxPoint x="673.35" y="12" as="targetPoint" />
            <Array as="points" />
          </mxGeometry>
        </mxCell>
        <mxCell id="hecgAeeEMm5fwRrelMIG-13" value="ro:characteristic of" style="edgeLabel;html=1;align=center;verticalAlign=middle;resizable=0;points=[];labelBackgroundColor=default;" connectable="0" vertex="1" parent="hecgAeeEMm5fwRrelMIG-12">
          <mxGeometry x="0.2475" y="-4" relative="1" as="geometry">
            <mxPoint x="-9" y="-12" as="offset" />
          </mxGeometry>
        </mxCell>
        <mxCell id="hecgAeeEMm5fwRrelMIG-14" value="&lt;div&gt;iao:setting datum&lt;br&gt;&lt;/div&gt;" style="rounded=1;whiteSpace=wrap;html=1;fillColor=#f5f5f5;strokeColor=#666666;fontColor=#333333;arcSize=15;glass=0;shadow=0;" vertex="1" parent="hecgAeeEMm5fwRrelMIG-0">
          <mxGeometry x="141.35" y="152" width="105" height="45" as="geometry" />
        </mxCell>
        <mxCell id="hecgAeeEMm5fwRrelMIG-15" style="rounded=0;orthogonalLoop=1;jettySize=auto;html=1;exitX=0.25;exitY=1;exitDx=0;exitDy=0;entryX=0.87;entryY=-0.011;entryDx=0;entryDy=0;entryPerimeter=0;" edge="1" parent="hecgAeeEMm5fwRrelMIG-0" source="hecgAeeEMm5fwRrelMIG-9" target="hecgAeeEMm5fwRrelMIG-14">
          <mxGeometry relative="1" as="geometry">
            <mxPoint x="237.85000000000002" y="150" as="targetPoint" />
          </mxGeometry>
        </mxCell>
        <mxCell id="hecgAeeEMm5fwRrelMIG-16" value="ro:is concretized as" style="edgeLabel;html=1;align=center;verticalAlign=middle;resizable=0;points=[];" connectable="0" vertex="1" parent="hecgAeeEMm5fwRrelMIG-15">
          <mxGeometry x="-0.6373" y="-2" relative="1" as="geometry">
            <mxPoint x="-16" y="9" as="offset" />
          </mxGeometry>
        </mxCell>
        <mxCell id="hecgAeeEMm5fwRrelMIG-17" value="" style="rounded=0;orthogonalLoop=1;jettySize=auto;html=1;strokeColor=#60854C;exitX=0.373;exitY=-0.004;exitDx=0;exitDy=0;entryX=0.888;entryY=1.005;entryDx=0;entryDy=0;exitPerimeter=0;entryPerimeter=0;" edge="1" parent="hecgAeeEMm5fwRrelMIG-0" source="hecgAeeEMm5fwRrelMIG-2" target="hecgAeeEMm5fwRrelMIG-14">
          <mxGeometry relative="1" as="geometry">
            <mxPoint x="338.35" y="212" as="sourcePoint" />
            <mxPoint x="436.35" y="411" as="targetPoint" />
            <Array as="points" />
          </mxGeometry>
        </mxCell>
        <object label="&lt;div class=&quot;node-metadata-label&quot;&gt;&lt;/div&gt;&lt;div class=&quot;col-sm-8 col-md-9 node-metadata-value&quot;&gt;&lt;div class=&quot;col-sm-8 col-md-9 node-metadata-value&quot;&gt;obi:has &lt;br&gt;&lt;/div&gt;&lt;div class=&quot;col-sm-8 col-md-9 node-metadata-value&quot;&gt;specified &lt;br&gt;&lt;/div&gt;&lt;div class=&quot;col-sm-8 col-md-9 node-metadata-value&quot;&gt;input&lt;/div&gt;&lt;/div&gt;" definition="a relation between a continuant and a process, in which the continuant is somehow involved in the process" id="hecgAeeEMm5fwRrelMIG-18">
          <mxCell style="edgeLabel;html=1;align=center;verticalAlign=middle;resizable=0;points=[];fontColor=#60854C;" connectable="0" vertex="1" parent="hecgAeeEMm5fwRrelMIG-17">
            <mxGeometry x="-0.417" y="-1" relative="1" as="geometry">
              <mxPoint x="-10" y="-10" as="offset" />
            </mxGeometry>
          </mxCell>
        </object>
        <mxCell id="hecgAeeEMm5fwRrelMIG-19" value="obi:material sample" style="rounded=1;whiteSpace=wrap;html=1;fillColor=#d5e8d4;strokeColor=#82b366;" vertex="1" parent="hecgAeeEMm5fwRrelMIG-0">
          <mxGeometry x="457.35" y="356" width="105" height="45" as="geometry" />
        </mxCell>
        <mxCell id="hecgAeeEMm5fwRrelMIG-20" value="" style="rounded=0;orthogonalLoop=1;jettySize=auto;html=1;exitX=0.75;exitY=1;exitDx=0;exitDy=0;entryX=0;entryY=0.25;entryDx=0;entryDy=0;" edge="1" parent="hecgAeeEMm5fwRrelMIG-0" source="hecgAeeEMm5fwRrelMIG-2" target="hecgAeeEMm5fwRrelMIG-19">
          <mxGeometry relative="1" as="geometry">
            <mxPoint x="468.35" y="279" as="sourcePoint" />
            <mxPoint x="627.35" y="402" as="targetPoint" />
          </mxGeometry>
        </mxCell>
        <object label="&lt;div class=&quot;node-metadata-label&quot;&gt;&lt;/div&gt;&lt;div class=&quot;col-sm-8 col-md-9 node-metadata-value&quot;&gt;obi:has &lt;br&gt;&lt;/div&gt;&lt;div class=&quot;col-sm-8 col-md-9 node-metadata-value&quot;&gt;specified &lt;br&gt;&lt;/div&gt;&lt;div class=&quot;col-sm-8 col-md-9 node-metadata-value&quot;&gt;input&lt;/div&gt;" definition="a relation between a continuant and a process, in which the continuant is somehow involved in the process" id="hecgAeeEMm5fwRrelMIG-21">
          <mxCell style="edgeLabel;html=1;align=center;verticalAlign=middle;resizable=0;points=[];" connectable="0" vertex="1" parent="hecgAeeEMm5fwRrelMIG-20">
            <mxGeometry x="-0.417" y="-1" relative="1" as="geometry">
              <mxPoint x="8" y="8" as="offset" />
            </mxGeometry>
          </mxCell>
        </object>
        <mxCell id="hecgAeeEMm5fwRrelMIG-22" value="&lt;div&gt;obi:data transformation&lt;br&gt;&lt;/div&gt;" style="rounded=1;whiteSpace=wrap;html=1;fillColor=#dae8fc;strokeColor=#6c8ebf;" vertex="1" parent="hecgAeeEMm5fwRrelMIG-0">
          <mxGeometry x="77.85" y="330" width="105" height="45" as="geometry" />
        </mxCell>
        <mxCell id="hecgAeeEMm5fwRrelMIG-23" style="rounded=0;orthogonalLoop=1;jettySize=auto;html=1;jumpStyle=arc;strokeColor=#60854C;fontColor=#97D077;" edge="1" parent="hecgAeeEMm5fwRrelMIG-0" source="hecgAeeEMm5fwRrelMIG-22" target="hecgAeeEMm5fwRrelMIG-25">
          <mxGeometry relative="1" as="geometry">
            <mxPoint x="463.35" y="279" as="sourcePoint" />
            <mxPoint x="471.35" y="590" as="targetPoint" />
            <Array as="points" />
          </mxGeometry>
        </mxCell>
        <mxCell id="hecgAeeEMm5fwRrelMIG-24" value="&lt;div&gt;obi:has &lt;br&gt;&lt;/div&gt;&lt;div&gt;specified &lt;br&gt;&lt;/div&gt;&lt;div&gt;output&lt;/div&gt;" style="edgeLabel;html=1;align=center;verticalAlign=middle;resizable=0;points=[];fontColor=#60854C;" connectable="0" vertex="1" parent="hecgAeeEMm5fwRrelMIG-23">
          <mxGeometry x="-0.2211" y="2" relative="1" as="geometry">
            <mxPoint x="-5" as="offset" />
          </mxGeometry>
        </mxCell>
        <mxCell id="hecgAeeEMm5fwRrelMIG-25" value="&lt;div&gt;iao:data item&lt;/div&gt;" style="rounded=1;whiteSpace=wrap;html=1;fillColor=#f5f5f5;strokeColor=#666666;fontColor=#333333;arcSize=15;glass=0;shadow=0;" vertex="1" parent="hecgAeeEMm5fwRrelMIG-0">
          <mxGeometry x="77.85" y="452" width="105" height="45" as="geometry" />
        </mxCell>
        <mxCell id="hecgAeeEMm5fwRrelMIG-26" value="" style="rounded=0;orthogonalLoop=1;jettySize=auto;html=1;" edge="1" parent="hecgAeeEMm5fwRrelMIG-0" source="hecgAeeEMm5fwRrelMIG-3" target="hecgAeeEMm5fwRrelMIG-22">
          <mxGeometry relative="1" as="geometry">
            <mxPoint x="517.35" y="279" as="sourcePoint" />
            <mxPoint x="703.35" y="372" as="targetPoint" />
          </mxGeometry>
        </mxCell>
        <object label="&lt;div class=&quot;node-metadata-label&quot;&gt;&lt;/div&gt;&lt;div class=&quot;col-sm-8 col-md-9 node-metadata-value&quot;&gt;obi:has &lt;br&gt;&lt;/div&gt;&lt;div class=&quot;col-sm-8 col-md-9 node-metadata-value&quot;&gt;specified &lt;br&gt;&lt;/div&gt;&lt;div class=&quot;col-sm-8 col-md-9 node-metadata-value&quot;&gt;input&lt;/div&gt;" definition="a relation between a continuant and a process, in which the continuant is somehow involved in the process" id="hecgAeeEMm5fwRrelMIG-27">
          <mxCell style="edgeLabel;html=1;align=center;verticalAlign=middle;resizable=0;points=[];" connectable="0" vertex="1" parent="hecgAeeEMm5fwRrelMIG-26">
            <mxGeometry x="-0.417" y="-1" relative="1" as="geometry">
              <mxPoint x="-11" y="-8" as="offset" />
            </mxGeometry>
          </mxCell>
        </object>
        <mxCell id="hecgAeeEMm5fwRrelMIG-28" style="rounded=0;orthogonalLoop=1;jettySize=auto;html=1;jumpStyle=arc;strokeColor=#60854C;" edge="1" parent="hecgAeeEMm5fwRrelMIG-0" source="hecgAeeEMm5fwRrelMIG-25" target="hecgAeeEMm5fwRrelMIG-39">
          <mxGeometry relative="1" as="geometry">
            <mxPoint x="252.35000000000002" y="428" as="sourcePoint" />
            <mxPoint x="373.35" y="464" as="targetPoint" />
            <Array as="points" />
          </mxGeometry>
        </mxCell>
        <mxCell id="hecgAeeEMm5fwRrelMIG-29" value="&lt;div&gt;iao:is about&lt;/div&gt;" style="edgeLabel;html=1;align=center;verticalAlign=middle;resizable=0;points=[];fontColor=#60854C;" connectable="0" vertex="1" parent="hecgAeeEMm5fwRrelMIG-28">
          <mxGeometry x="0.2301" y="-2" relative="1" as="geometry">
            <mxPoint x="-87" y="-3" as="offset" />
          </mxGeometry>
        </mxCell>
        <mxCell id="hecgAeeEMm5fwRrelMIG-30" value="obi:assay objective" style="rounded=1;whiteSpace=wrap;html=1;fillColor=#f5f5f5;fontColor=#333333;strokeColor=#666666;" vertex="1" parent="hecgAeeEMm5fwRrelMIG-0">
          <mxGeometry x="11.099999999999994" y="152" width="105" height="45" as="geometry" />
        </mxCell>
        <mxCell id="hecgAeeEMm5fwRrelMIG-31" style="rounded=0;orthogonalLoop=1;jettySize=auto;html=1;jumpStyle=arc;fontColor=#97D077;strokeColor=#60854C;exitX=0.5;exitY=0;exitDx=0;exitDy=0;entryX=0.5;entryY=1;entryDx=0;entryDy=0;" edge="1" parent="hecgAeeEMm5fwRrelMIG-0" source="hecgAeeEMm5fwRrelMIG-35" target="hecgAeeEMm5fwRrelMIG-30">
          <mxGeometry relative="1" as="geometry">
            <mxPoint x="64.35" y="-137" as="sourcePoint" />
            <mxPoint x="360.1" y="-187" as="targetPoint" />
            <Array as="points" />
          </mxGeometry>
        </mxCell>
        <mxCell id="hecgAeeEMm5fwRrelMIG-32" value="&lt;div&gt;bfo:has &lt;br&gt;&lt;/div&gt;&lt;div&gt;part&lt;/div&gt;" style="edgeLabel;html=1;align=center;verticalAlign=middle;resizable=0;points=[];fontColor=#60854C;" connectable="0" vertex="1" parent="hecgAeeEMm5fwRrelMIG-31">
          <mxGeometry x="-0.2064" y="1" relative="1" as="geometry">
            <mxPoint x="1" y="-2" as="offset" />
          </mxGeometry>
        </mxCell>
        <mxCell id="hecgAeeEMm5fwRrelMIG-33" style="rounded=0;orthogonalLoop=1;jettySize=auto;html=1;entryX=0.75;entryY=1;entryDx=0;entryDy=0;" edge="1" parent="hecgAeeEMm5fwRrelMIG-0" source="hecgAeeEMm5fwRrelMIG-2" target="hecgAeeEMm5fwRrelMIG-30">
          <mxGeometry relative="1" as="geometry">
            <Array as="points" />
            <mxPoint x="325.35" y="219" as="sourcePoint" />
          </mxGeometry>
        </mxCell>
        <mxCell id="hecgAeeEMm5fwRrelMIG-34" value="&lt;div&gt;obi:achieves&lt;/div&gt;&lt;div&gt;planned &lt;br&gt;&lt;/div&gt;&lt;div&gt;objective&lt;br&gt;&lt;/div&gt;" style="edgeLabel;html=1;align=center;verticalAlign=middle;resizable=0;points=[];" connectable="0" vertex="1" parent="hecgAeeEMm5fwRrelMIG-33">
          <mxGeometry x="-0.2881" y="-4" relative="1" as="geometry">
            <mxPoint x="8" y="5" as="offset" />
          </mxGeometry>
        </mxCell>
        <mxCell id="hecgAeeEMm5fwRrelMIG-35" value="&lt;div&gt;obi:investigation&lt;/div&gt;&lt;div&gt;assay specification&lt;br&gt;&lt;/div&gt;" style="rounded=1;whiteSpace=wrap;html=1;fillColor=#f5f5f5;strokeColor=#666666;fontColor=#333333;" vertex="1" parent="hecgAeeEMm5fwRrelMIG-0">
          <mxGeometry x="11.099999999999994" y="256" width="105" height="45" as="geometry" />
        </mxCell>
        <mxCell id="hecgAeeEMm5fwRrelMIG-36" style="rounded=0;orthogonalLoop=1;jettySize=auto;html=1;exitX=1;exitY=0.25;exitDx=0;exitDy=0;entryX=0;entryY=0.25;entryDx=0;entryDy=0;" edge="1" parent="hecgAeeEMm5fwRrelMIG-0" source="hecgAeeEMm5fwRrelMIG-35" target="hecgAeeEMm5fwRrelMIG-2">
          <mxGeometry relative="1" as="geometry">
            <mxPoint x="66.85" y="-215.67000000000007" as="sourcePoint" />
            <mxPoint x="260.85" y="272" as="targetPoint" />
            <Array as="points" />
          </mxGeometry>
        </mxCell>
        <mxCell id="hecgAeeEMm5fwRrelMIG-37" value="iao:is about" style="edgeLabel;html=1;align=center;verticalAlign=middle;resizable=0;points=[];" connectable="0" vertex="1" parent="hecgAeeEMm5fwRrelMIG-36">
          <mxGeometry x="0.2301" y="-2" relative="1" as="geometry">
            <mxPoint x="-51" y="-3" as="offset" />
          </mxGeometry>
        </mxCell>
        <mxCell id="hecgAeeEMm5fwRrelMIG-38" style="edgeStyle=orthogonalEdgeStyle;rounded=0;orthogonalLoop=1;jettySize=auto;html=1;exitX=0.5;exitY=1;exitDx=0;exitDy=0;" edge="1" parent="hecgAeeEMm5fwRrelMIG-0" source="hecgAeeEMm5fwRrelMIG-35" target="hecgAeeEMm5fwRrelMIG-35">
          <mxGeometry relative="1" as="geometry" />
        </mxCell>
        <mxCell id="hecgAeeEMm5fwRrelMIG-39" value="pato:molecular quality" style="rounded=1;whiteSpace=wrap;html=1;fillColor=#fff2cc;strokeColor=#d6b656;" vertex="1" parent="hecgAeeEMm5fwRrelMIG-0">
          <mxGeometry x="457.35" y="452" width="105" height="45" as="geometry" />
        </mxCell>
        <mxCell id="hecgAeeEMm5fwRrelMIG-40" style="rounded=0;orthogonalLoop=1;jettySize=auto;html=1;" edge="1" parent="hecgAeeEMm5fwRrelMIG-0" source="hecgAeeEMm5fwRrelMIG-39" target="hecgAeeEMm5fwRrelMIG-19">
          <mxGeometry relative="1" as="geometry">
            <mxPoint x="382.35" y="-50" as="sourcePoint" />
            <mxPoint x="442.35" y="-76" as="targetPoint" />
            <Array as="points" />
          </mxGeometry>
        </mxCell>
        <mxCell id="hecgAeeEMm5fwRrelMIG-41" value="ro:characteristic of" style="edgeLabel;html=1;align=center;verticalAlign=middle;resizable=0;points=[];labelBackgroundColor=default;" connectable="0" vertex="1" parent="hecgAeeEMm5fwRrelMIG-40">
          <mxGeometry x="0.2475" y="-4" relative="1" as="geometry">
            <mxPoint x="-6" y="8" as="offset" />
          </mxGeometry>
        </mxCell>
        <mxCell id="hecgAeeEMm5fwRrelMIG-42" value="&lt;div&gt;rxno:planned synthesis&lt;/div&gt;" style="rounded=1;whiteSpace=wrap;html=1;fillColor=#dae8fc;strokeColor=#6c8ebf;" vertex="1" parent="hecgAeeEMm5fwRrelMIG-0">
          <mxGeometry x="768.85" y="152" width="105" height="45" as="geometry" />
        </mxCell>
        <mxCell id="hecgAeeEMm5fwRrelMIG-43" style="rounded=0;orthogonalLoop=1;jettySize=auto;html=1;jumpStyle=arc;strokeColor=#60854C;" edge="1" parent="hecgAeeEMm5fwRrelMIG-0" source="hecgAeeEMm5fwRrelMIG-42" target="hecgAeeEMm5fwRrelMIG-69">
          <mxGeometry relative="1" as="geometry">
            <mxPoint x="460.85" y="246" as="sourcePoint" />
            <mxPoint x="828.85" y="-32" as="targetPoint" />
            <Array as="points" />
          </mxGeometry>
        </mxCell>
        <mxCell id="hecgAeeEMm5fwRrelMIG-44" value="&lt;div class=&quot;node-metadata-label&quot;&gt;&lt;/div&gt;&lt;div class=&quot;col-sm-8 col-md-9 node-metadata-value&quot;&gt;rxno:has &lt;br&gt;&lt;/div&gt;&lt;div class=&quot;col-sm-8 col-md-9 node-metadata-value&quot;&gt;specified product&lt;/div&gt;" style="edgeLabel;html=1;align=center;verticalAlign=middle;resizable=0;points=[];fontColor=#60854C;" connectable="0" vertex="1" parent="hecgAeeEMm5fwRrelMIG-43">
          <mxGeometry x="-0.2211" y="2" relative="1" as="geometry">
            <mxPoint x="2" y="-3" as="offset" />
          </mxGeometry>
        </mxCell>
        <mxCell id="hecgAeeEMm5fwRrelMIG-45" value="chebi:&lt;div class=&quot;node-metadata-label&quot;&gt;&lt;/div&gt;&lt;div class=&quot;col-sm-8 col-md-9 node-metadata-value&quot;&gt;chemical substance&lt;/div&gt;" style="rounded=1;whiteSpace=wrap;html=1;fillColor=#d5e8d4;strokeColor=#82b366;" vertex="1" parent="hecgAeeEMm5fwRrelMIG-0">
          <mxGeometry x="891.6" y="62" width="105" height="45" as="geometry" />
        </mxCell>
        <mxCell id="hecgAeeEMm5fwRrelMIG-46" style="rounded=0;orthogonalLoop=1;jettySize=auto;html=1;jumpStyle=arc;strokeColor=#60854C;" edge="1" parent="hecgAeeEMm5fwRrelMIG-0" source="hecgAeeEMm5fwRrelMIG-42" target="hecgAeeEMm5fwRrelMIG-45">
          <mxGeometry relative="1" as="geometry">
            <mxPoint x="476.85" y="196" as="sourcePoint" />
            <mxPoint x="492.85" y="-76" as="targetPoint" />
          </mxGeometry>
        </mxCell>
        <object label="&lt;div&gt;rxno:has &lt;br&gt;&lt;/div&gt;&lt;div&gt;specified reactant&lt;/div&gt;" definition="a relation between a continuant and a process, in which the continuant is somehow involved in the process" id="hecgAeeEMm5fwRrelMIG-47">
          <mxCell style="edgeLabel;html=1;align=center;verticalAlign=middle;resizable=0;points=[];fontColor=#60854C;" connectable="0" vertex="1" parent="hecgAeeEMm5fwRrelMIG-46">
            <mxGeometry x="-0.417" y="-1" relative="1" as="geometry">
              <mxPoint x="3" y="-6" as="offset" />
            </mxGeometry>
          </mxCell>
        </object>
        <mxCell id="hecgAeeEMm5fwRrelMIG-48" style="rounded=0;orthogonalLoop=1;jettySize=auto;html=1;jumpStyle=arc;strokeColor=#60854C;" edge="1" parent="hecgAeeEMm5fwRrelMIG-0" source="hecgAeeEMm5fwRrelMIG-3" target="hecgAeeEMm5fwRrelMIG-39">
          <mxGeometry relative="1" as="geometry">
            <mxPoint x="82.85" y="531" as="sourcePoint" />
            <mxPoint x="312.85" y="671" as="targetPoint" />
            <Array as="points" />
          </mxGeometry>
        </mxCell>
        <mxCell id="hecgAeeEMm5fwRrelMIG-49" value="&lt;div&gt;iao:is about&lt;/div&gt;" style="edgeLabel;html=1;align=center;verticalAlign=middle;resizable=0;points=[];fontColor=#60854C;" connectable="0" vertex="1" parent="hecgAeeEMm5fwRrelMIG-48">
          <mxGeometry x="-0.2343" y="1" relative="1" as="geometry">
            <mxPoint x="5" y="1" as="offset" />
          </mxGeometry>
        </mxCell>
        <mxCell id="hecgAeeEMm5fwRrelMIG-50" style="rounded=0;orthogonalLoop=1;jettySize=auto;html=1;jumpStyle=arc;strokeColor=#60854C;entryX=0;entryY=0.75;entryDx=0;entryDy=0;" edge="1" parent="hecgAeeEMm5fwRrelMIG-0" source="hecgAeeEMm5fwRrelMIG-3" target="hecgAeeEMm5fwRrelMIG-19">
          <mxGeometry relative="1" as="geometry">
            <mxPoint x="92.85" y="541" as="sourcePoint" />
            <mxPoint x="464.85" y="547" as="targetPoint" />
            <Array as="points" />
          </mxGeometry>
        </mxCell>
        <mxCell id="hecgAeeEMm5fwRrelMIG-51" value="&lt;div&gt;iao:is about&lt;/div&gt;" style="edgeLabel;html=1;align=center;verticalAlign=middle;resizable=0;points=[];fontColor=#60854C;" connectable="0" vertex="1" parent="hecgAeeEMm5fwRrelMIG-50">
          <mxGeometry x="0.2301" y="-2" relative="1" as="geometry">
            <mxPoint x="-20" y="1" as="offset" />
          </mxGeometry>
        </mxCell>
        <mxCell id="hecgAeeEMm5fwRrelMIG-52" style="rounded=0;orthogonalLoop=1;jettySize=auto;html=1;entryX=0;entryY=0.5;entryDx=0;entryDy=0;exitX=0.996;exitY=0.882;exitDx=0;exitDy=0;exitPerimeter=0;" edge="1" parent="hecgAeeEMm5fwRrelMIG-0" source="hecgAeeEMm5fwRrelMIG-19" target="hecgAeeEMm5fwRrelMIG-90">
          <mxGeometry relative="1" as="geometry">
            <mxPoint x="569.85" y="397" as="sourcePoint" />
            <mxPoint x="732.35" y="337.9996153846157" as="targetPoint" />
            <Array as="points" />
          </mxGeometry>
        </mxCell>
        <mxCell id="hecgAeeEMm5fwRrelMIG-53" value="ro:has role" style="edgeLabel;html=1;align=center;verticalAlign=middle;resizable=0;points=[];" connectable="0" vertex="1" parent="hecgAeeEMm5fwRrelMIG-52">
          <mxGeometry x="-0.3225" y="4" relative="1" as="geometry">
            <mxPoint x="-36" y="-11" as="offset" />
          </mxGeometry>
        </mxCell>
        <mxCell id="hecgAeeEMm5fwRrelMIG-54" value="obi:evaluant role" style="rounded=1;whiteSpace=wrap;html=1;fillColor=#f8cecc;strokeColor=#b85450;" vertex="1" parent="hecgAeeEMm5fwRrelMIG-0">
          <mxGeometry x="644.6" y="356" width="105" height="45" as="geometry" />
        </mxCell>
        <mxCell id="hecgAeeEMm5fwRrelMIG-55" style="rounded=0;orthogonalLoop=1;jettySize=auto;html=1;" edge="1" parent="hecgAeeEMm5fwRrelMIG-0" source="hecgAeeEMm5fwRrelMIG-19" target="hecgAeeEMm5fwRrelMIG-54">
          <mxGeometry relative="1" as="geometry">
            <mxPoint x="1047.85" y="347" as="sourcePoint" />
            <mxPoint x="1099.85" y="297" as="targetPoint" />
            <Array as="points" />
          </mxGeometry>
        </mxCell>
        <mxCell id="hecgAeeEMm5fwRrelMIG-56" value="ro:has role" style="edgeLabel;html=1;align=center;verticalAlign=middle;resizable=0;points=[];" connectable="0" vertex="1" parent="hecgAeeEMm5fwRrelMIG-55">
          <mxGeometry x="-0.3225" y="4" relative="1" as="geometry">
            <mxPoint x="6" y="4" as="offset" />
          </mxGeometry>
        </mxCell>
        <mxCell id="hecgAeeEMm5fwRrelMIG-57" value="&lt;div&gt;obi:material sampling process&lt;br&gt;&lt;/div&gt;" style="rounded=1;whiteSpace=wrap;html=1;fillColor=#dae8fc;strokeColor=#6c8ebf;" vertex="1" parent="hecgAeeEMm5fwRrelMIG-0">
          <mxGeometry x="661.85" y="256" width="105" height="45" as="geometry" />
        </mxCell>
        <mxCell id="hecgAeeEMm5fwRrelMIG-58" value="bfo:material&amp;nbsp; entity" style="rounded=1;whiteSpace=wrap;html=1;fillColor=#d5e8d4;strokeColor=#82b366;" vertex="1" parent="hecgAeeEMm5fwRrelMIG-0">
          <mxGeometry x="529.6900000000002" y="152" width="105" height="45" as="geometry" />
        </mxCell>
        <mxCell id="hecgAeeEMm5fwRrelMIG-59" value="" style="rounded=0;orthogonalLoop=1;jettySize=auto;html=1;" edge="1" parent="hecgAeeEMm5fwRrelMIG-0" source="hecgAeeEMm5fwRrelMIG-57" target="hecgAeeEMm5fwRrelMIG-58">
          <mxGeometry relative="1" as="geometry">
            <mxPoint x="501.35" y="131" as="sourcePoint" />
            <mxPoint x="595.35" y="117" as="targetPoint" />
          </mxGeometry>
        </mxCell>
        <object label="&lt;div class=&quot;node-metadata-label&quot;&gt;&lt;/div&gt;&lt;div class=&quot;col-sm-8 col-md-9 node-metadata-value&quot;&gt;obi:has &lt;br&gt;&lt;/div&gt;&lt;div class=&quot;col-sm-8 col-md-9 node-metadata-value&quot;&gt;specified &lt;br&gt;&lt;/div&gt;&lt;div class=&quot;col-sm-8 col-md-9 node-metadata-value&quot;&gt;input&lt;/div&gt;" definition="a relation between a continuant and a process, in which the continuant is somehow involved in the process" id="hecgAeeEMm5fwRrelMIG-60">
          <mxCell style="edgeLabel;html=1;align=center;verticalAlign=middle;resizable=0;points=[];" connectable="0" vertex="1" parent="hecgAeeEMm5fwRrelMIG-59">
            <mxGeometry x="-0.417" y="-1" relative="1" as="geometry">
              <mxPoint x="-8" y="-9" as="offset" />
            </mxGeometry>
          </mxCell>
        </object>
        <mxCell id="hecgAeeEMm5fwRrelMIG-61" style="rounded=0;orthogonalLoop=1;jettySize=auto;html=1;jumpStyle=arc;entryX=1;entryY=0.114;entryDx=0;entryDy=0;entryPerimeter=0;" edge="1" parent="hecgAeeEMm5fwRrelMIG-0" source="hecgAeeEMm5fwRrelMIG-57" target="hecgAeeEMm5fwRrelMIG-19">
          <mxGeometry relative="1" as="geometry">
            <mxPoint x="667.85" y="301" as="sourcePoint" />
            <mxPoint x="707.85" y="467" as="targetPoint" />
            <Array as="points" />
          </mxGeometry>
        </mxCell>
        <mxCell id="hecgAeeEMm5fwRrelMIG-62" value="&lt;div&gt;obi:has &lt;br&gt;&lt;/div&gt;&lt;div&gt;specified &lt;br&gt;&lt;/div&gt;&lt;div&gt;output&lt;/div&gt;" style="edgeLabel;html=1;align=center;verticalAlign=middle;resizable=0;points=[];" connectable="0" vertex="1" parent="hecgAeeEMm5fwRrelMIG-61">
          <mxGeometry x="-0.2211" y="2" relative="1" as="geometry">
            <mxPoint x="3" y="-7" as="offset" />
          </mxGeometry>
        </mxCell>
        <mxCell id="hecgAeeEMm5fwRrelMIG-63" style="rounded=0;orthogonalLoop=1;jettySize=auto;html=1;jumpStyle=arc;entryX=0;entryY=0.093;entryDx=0;entryDy=0;entryPerimeter=0;" edge="1" parent="hecgAeeEMm5fwRrelMIG-0" source="hecgAeeEMm5fwRrelMIG-2" target="hecgAeeEMm5fwRrelMIG-54">
          <mxGeometry relative="1" as="geometry">
            <mxPoint x="807.85" y="202" as="targetPoint" />
            <mxPoint x="590.85" y="198" as="sourcePoint" />
          </mxGeometry>
        </mxCell>
        <mxCell id="hecgAeeEMm5fwRrelMIG-64" value="bfo:realizes" style="edgeLabel;html=1;align=center;verticalAlign=middle;resizable=0;points=[];" connectable="0" vertex="1" parent="hecgAeeEMm5fwRrelMIG-63">
          <mxGeometry x="-0.3129" y="2" relative="1" as="geometry">
            <mxPoint x="-57" y="-15" as="offset" />
          </mxGeometry>
        </mxCell>
        <mxCell id="hecgAeeEMm5fwRrelMIG-65" style="rounded=0;orthogonalLoop=1;jettySize=auto;html=1;fontColor=#97D077;strokeColor=#60854C;" edge="1" parent="hecgAeeEMm5fwRrelMIG-0" source="hecgAeeEMm5fwRrelMIG-57" target="hecgAeeEMm5fwRrelMIG-2">
          <mxGeometry relative="1" as="geometry">
            <mxPoint x="493.9599999999997" y="186" as="targetPoint" />
            <mxPoint x="573.9599999999997" y="117" as="sourcePoint" />
          </mxGeometry>
        </mxCell>
        <mxCell id="hecgAeeEMm5fwRrelMIG-66" value="ro:before or simultaneous with" style="edgeLabel;html=1;align=center;verticalAlign=middle;resizable=0;points=[];fontColor=#60854C;" connectable="0" vertex="1" parent="hecgAeeEMm5fwRrelMIG-65">
          <mxGeometry x="-0.44" y="2" relative="1" as="geometry">
            <mxPoint x="-30" y="-4" as="offset" />
          </mxGeometry>
        </mxCell>
        <mxCell id="hecgAeeEMm5fwRrelMIG-67" style="rounded=0;orthogonalLoop=1;jettySize=auto;html=1;strokeColor=#60854C;" edge="1" parent="hecgAeeEMm5fwRrelMIG-0" source="hecgAeeEMm5fwRrelMIG-69" target="hecgAeeEMm5fwRrelMIG-58">
          <mxGeometry relative="1" as="geometry" />
        </mxCell>
        <mxCell id="hecgAeeEMm5fwRrelMIG-68" value="bfo:part of" style="edgeLabel;html=1;align=center;verticalAlign=middle;resizable=0;points=[];fontColor=#60854C;" connectable="0" vertex="1" parent="hecgAeeEMm5fwRrelMIG-67">
          <mxGeometry x="0.3118" y="1" relative="1" as="geometry">
            <mxPoint x="5" y="-14" as="offset" />
          </mxGeometry>
        </mxCell>
        <mxCell id="hecgAeeEMm5fwRrelMIG-69" value="chebi:&lt;div class=&quot;node-metadata-label&quot;&gt;&lt;/div&gt;&lt;div class=&quot;col-sm-8 col-md-9 node-metadata-value&quot;&gt;chemical substance&lt;/div&gt;" style="rounded=1;whiteSpace=wrap;html=1;fillColor=#d5e8d4;strokeColor=#82b366;" vertex="1" parent="hecgAeeEMm5fwRrelMIG-0">
          <mxGeometry x="644.6" y="62" width="105" height="45" as="geometry" />
        </mxCell>
        <mxCell id="hecgAeeEMm5fwRrelMIG-70" style="rounded=0;orthogonalLoop=1;jettySize=auto;html=1;jumpStyle=arc;fontColor=#67AB9F;strokeColor=#60854C;exitX=0.75;exitY=1;exitDx=0;exitDy=0;" edge="1" parent="hecgAeeEMm5fwRrelMIG-0" source="hecgAeeEMm5fwRrelMIG-57" target="hecgAeeEMm5fwRrelMIG-90">
          <mxGeometry relative="1" as="geometry">
            <mxPoint x="719.35" y="267" as="targetPoint" />
            <mxPoint x="763.85" y="304" as="sourcePoint" />
          </mxGeometry>
        </mxCell>
        <mxCell id="hecgAeeEMm5fwRrelMIG-71" value="bfo:realizes" style="edgeLabel;html=1;align=center;verticalAlign=middle;resizable=0;points=[];fontColor=#60854C;" connectable="0" vertex="1" parent="hecgAeeEMm5fwRrelMIG-70">
          <mxGeometry x="-0.3129" y="2" relative="1" as="geometry">
            <mxPoint x="-16" y="-34" as="offset" />
          </mxGeometry>
        </mxCell>
        <mxCell id="hecgAeeEMm5fwRrelMIG-72" value="obi:reactant role" style="rounded=1;whiteSpace=wrap;html=1;fillColor=#f8cecc;strokeColor=#b85450;" vertex="1" parent="hecgAeeEMm5fwRrelMIG-0">
          <mxGeometry x="891.6" y="256" width="105" height="45" as="geometry" />
        </mxCell>
        <mxCell id="hecgAeeEMm5fwRrelMIG-73" style="rounded=0;orthogonalLoop=1;jettySize=auto;html=1;strokeColor=#60854C;" edge="1" parent="hecgAeeEMm5fwRrelMIG-0" source="hecgAeeEMm5fwRrelMIG-45" target="hecgAeeEMm5fwRrelMIG-72">
          <mxGeometry relative="1" as="geometry">
            <mxPoint x="1107.6" y="54" as="sourcePoint" />
            <mxPoint x="1177.6" y="379.3000000000002" as="targetPoint" />
            <Array as="points" />
          </mxGeometry>
        </mxCell>
        <mxCell id="hecgAeeEMm5fwRrelMIG-74" value="ro:has role" style="edgeLabel;html=1;align=center;verticalAlign=middle;resizable=0;points=[];fontColor=#60854C;" connectable="0" vertex="1" parent="hecgAeeEMm5fwRrelMIG-73">
          <mxGeometry x="-0.3225" y="4" relative="1" as="geometry">
            <mxPoint x="-3" y="11" as="offset" />
          </mxGeometry>
        </mxCell>
        <mxCell id="hecgAeeEMm5fwRrelMIG-75" style="rounded=0;orthogonalLoop=1;jettySize=auto;html=1;jumpStyle=arc;strokeColor=#60854C;" edge="1" parent="hecgAeeEMm5fwRrelMIG-0" source="hecgAeeEMm5fwRrelMIG-42" target="hecgAeeEMm5fwRrelMIG-72">
          <mxGeometry relative="1" as="geometry">
            <mxPoint x="743.85" y="322" as="targetPoint" />
            <mxPoint x="647.85" y="140" as="sourcePoint" />
          </mxGeometry>
        </mxCell>
        <mxCell id="hecgAeeEMm5fwRrelMIG-76" value="bfo:realizes" style="edgeLabel;html=1;align=center;verticalAlign=middle;resizable=0;points=[];fontColor=#60854C;" connectable="0" vertex="1" parent="hecgAeeEMm5fwRrelMIG-75">
          <mxGeometry x="-0.3129" y="2" relative="1" as="geometry">
            <mxPoint x="-3" y="-2" as="offset" />
          </mxGeometry>
        </mxCell>
        <mxCell id="hecgAeeEMm5fwRrelMIG-77" style="rounded=0;orthogonalLoop=1;jettySize=auto;html=1;jumpStyle=arc;fontColor=#97D077;strokeColor=#60854C;exitX=0.75;exitY=0;exitDx=0;exitDy=0;" edge="1" parent="hecgAeeEMm5fwRrelMIG-0" source="hecgAeeEMm5fwRrelMIG-35" target="hecgAeeEMm5fwRrelMIG-14">
          <mxGeometry relative="1" as="geometry">
            <mxPoint x="95.35" y="231" as="sourcePoint" />
            <mxPoint x="95.35" y="187" as="targetPoint" />
            <Array as="points" />
          </mxGeometry>
        </mxCell>
        <mxCell id="hecgAeeEMm5fwRrelMIG-78" value="&lt;div&gt;bfo:has &lt;br&gt;&lt;/div&gt;&lt;div&gt;part&lt;/div&gt;" style="edgeLabel;html=1;align=center;verticalAlign=middle;resizable=0;points=[];fontColor=#60854C;" connectable="0" vertex="1" parent="hecgAeeEMm5fwRrelMIG-77">
          <mxGeometry x="-0.2064" y="1" relative="1" as="geometry">
            <mxPoint x="-8" y="5" as="offset" />
          </mxGeometry>
        </mxCell>
        <mxCell id="hecgAeeEMm5fwRrelMIG-79" style="rounded=0;orthogonalLoop=1;jettySize=auto;html=1;strokeColor=#60854C;exitX=0.25;exitY=1;exitDx=0;exitDy=0;" edge="1" parent="hecgAeeEMm5fwRrelMIG-0" source="hecgAeeEMm5fwRrelMIG-42" target="hecgAeeEMm5fwRrelMIG-57">
          <mxGeometry relative="1" as="geometry" />
        </mxCell>
        <mxCell id="hecgAeeEMm5fwRrelMIG-80" value="&lt;div&gt;ro:before or &lt;br&gt;&lt;/div&gt;&lt;div&gt;simultaneous with&lt;/div&gt;" style="edgeLabel;html=1;align=center;verticalAlign=middle;resizable=0;points=[];fontColor=#60854C;" connectable="0" vertex="1" parent="hecgAeeEMm5fwRrelMIG-79">
          <mxGeometry x="-0.1196" y="-2" relative="1" as="geometry">
            <mxPoint x="8" y="-1" as="offset" />
          </mxGeometry>
        </mxCell>
        <mxCell id="hecgAeeEMm5fwRrelMIG-81" style="rounded=0;orthogonalLoop=1;jettySize=auto;html=1;fontColor=#97D077;strokeColor=#60854C;" edge="1" parent="hecgAeeEMm5fwRrelMIG-0" source="hecgAeeEMm5fwRrelMIG-2" target="hecgAeeEMm5fwRrelMIG-22">
          <mxGeometry relative="1" as="geometry">
            <mxPoint x="444.35" y="238" as="targetPoint" />
            <mxPoint x="295.35" y="312" as="sourcePoint" />
          </mxGeometry>
        </mxCell>
        <mxCell id="hecgAeeEMm5fwRrelMIG-82" value="bfo:precedes" style="edgeLabel;html=1;align=center;verticalAlign=middle;resizable=0;points=[];fontColor=#60854C;" connectable="0" vertex="1" parent="hecgAeeEMm5fwRrelMIG-81">
          <mxGeometry x="-0.44" y="2" relative="1" as="geometry">
            <mxPoint x="-10" y="2" as="offset" />
          </mxGeometry>
        </mxCell>
        <mxCell id="hecgAeeEMm5fwRrelMIG-83" value="" style="group" connectable="0" vertex="1" parent="hecgAeeEMm5fwRrelMIG-0">
          <mxGeometry x="891.8100000000001" y="401" width="105" height="96" as="geometry" />
        </mxCell>
        <mxCell id="hecgAeeEMm5fwRrelMIG-84" value="" style="rounded=0;whiteSpace=wrap;html=1;" vertex="1" parent="hecgAeeEMm5fwRrelMIG-83">
          <mxGeometry width="104.99999999999999" height="96" as="geometry" />
        </mxCell>
        <mxCell id="hecgAeeEMm5fwRrelMIG-85" style="rounded=0;orthogonalLoop=1;jettySize=auto;html=1;dashed=1;strokeWidth=2;strokeColor=#CCCCCC;" edge="1" parent="hecgAeeEMm5fwRrelMIG-83">
          <mxGeometry relative="1" as="geometry">
            <mxPoint x="95.34154639175267" y="40.66750000000002" as="sourcePoint" />
            <mxPoint x="6.578659793814495" y="40.66750000000002" as="targetPoint" />
          </mxGeometry>
        </mxCell>
        <mxCell id="hecgAeeEMm5fwRrelMIG-86" value="rdfs:subclassOf" style="edgeLabel;html=1;align=center;verticalAlign=middle;resizable=0;points=[];fontSize=9;" connectable="0" vertex="1" parent="hecgAeeEMm5fwRrelMIG-85">
          <mxGeometry x="0.1249" y="1" relative="1" as="geometry">
            <mxPoint x="6" y="10" as="offset" />
          </mxGeometry>
        </mxCell>
        <mxCell id="hecgAeeEMm5fwRrelMIG-87" style="rounded=0;orthogonalLoop=1;jettySize=auto;html=1;strokeColor=#60854C;" edge="1" parent="hecgAeeEMm5fwRrelMIG-83">
          <mxGeometry relative="1" as="geometry">
            <mxPoint x="94.8003092783506" y="15.668749999999818" as="sourcePoint" />
            <mxPoint x="7.119896907216571" y="15.668749999999818" as="targetPoint" />
          </mxGeometry>
        </mxCell>
        <mxCell id="hecgAeeEMm5fwRrelMIG-88" value="not asserted" style="edgeLabel;html=1;align=center;verticalAlign=middle;resizable=0;points=[];fontSize=9;fontColor=#60854C;" connectable="0" vertex="1" parent="hecgAeeEMm5fwRrelMIG-87">
          <mxGeometry x="-0.4133" y="2" relative="1" as="geometry">
            <mxPoint x="-13" y="6" as="offset" />
          </mxGeometry>
        </mxCell>
        <mxCell id="hecgAeeEMm5fwRrelMIG-89" value="&lt;font style=&quot;font-size: 9px;&quot;&gt;obi:planned process&lt;/font&gt;" style="rounded=1;whiteSpace=wrap;html=1;fillColor=#dae8fc;strokeColor=#6c8ebf;fontSize=10;" vertex="1" parent="hecgAeeEMm5fwRrelMIG-83">
          <mxGeometry x="9.202371134020723" y="65.67000000000007" width="86.59793814432989" height="24" as="geometry" />
        </mxCell>
        <mxCell id="hecgAeeEMm5fwRrelMIG-90" value="obi:material sample role" style="rounded=1;whiteSpace=wrap;html=1;fillColor=#f8cecc;strokeColor=#b85450;" vertex="1" parent="hecgAeeEMm5fwRrelMIG-0">
          <mxGeometry x="768.85" y="452" width="105" height="45" as="geometry" />
        </mxCell>
        <mxCell id="hecgAeeEMm5fwRrelMIG-91" style="rounded=0;orthogonalLoop=1;jettySize=auto;html=1;strokeColor=#60854C;entryX=1;entryY=0.75;entryDx=0;entryDy=0;exitX=0;exitY=0.75;exitDx=0;exitDy=0;" edge="1" parent="hecgAeeEMm5fwRrelMIG-0" source="hecgAeeEMm5fwRrelMIG-2" target="hecgAeeEMm5fwRrelMIG-35">
          <mxGeometry relative="1" as="geometry">
            <mxPoint x="236.89999999999998" y="295" as="sourcePoint" />
            <mxPoint x="143.89999999999998" y="295" as="targetPoint" />
            <Array as="points" />
          </mxGeometry>
        </mxCell>
        <mxCell id="hecgAeeEMm5fwRrelMIG-92" value="stato:executes" style="edgeLabel;html=1;align=center;verticalAlign=middle;resizable=0;points=[];fontColor=#60854C;" connectable="0" vertex="1" parent="hecgAeeEMm5fwRrelMIG-91">
          <mxGeometry x="-0.2313" y="-1" relative="1" as="geometry">
            <mxPoint x="-6" y="-1" as="offset" />
          </mxGeometry>
        </mxCell>
      </root>
    </mxGraphModel>
  </diagram>
</mxfile>
